lean.ufo
<glyph name="exclamation" format="2">
  <advance width="222.45"/>
  <unicode hex="0021"/>
  <outline>
    <contour>
      <point x="186.225" y="63.75" type="curve" smooth="yes"/>
      <point x="186.225" y="105.14363"/>
      <point x="152.61863" y="138.75"/>
      <point x="111.225" y="138.75" type="curve" smooth="yes"/>
      <point x="69.83136999999999" y="138.75"/>
      <point x="36.225" y="105.14363"/>
      <point x="36.225" y="63.75" type="curve" smooth="yes"/>
      <point x="36.225" y="22.35637"/>
      <point x="69.83136999999999" y="-11.25"/>
      <point x="111.225" y="-11.25" type="curve" smooth="yes"/>
      <point x="152.61863" y="-11.25"/>
      <point x="186.225" y="22.35637"/>
    </contour>
    <contour>
      <point x="41.225" y="200.0" type="line"/>
      <point x="181.225" y="200.0" type="line"/>
      <point x="181.225" y="400.0" type="line"/>
      <point x="41.225" y="400.0" type="line"/>
    </contour>
    <contour>
      <point x="41.225" y="400" type="line"/>
      <point x="181.225" y="400" type="line"/>
      <point x="181.225" y="600" type="line"/>
      <point x="41.225" y="600" type="line"/>
    </contour>
    <contour>
      <point x="41.225" y="600" type="line"/>
      <point x="181.225" y="600" type="line"/>
      <point x="181.225" y="800" type="line"/>
      <point x="41.225" y="800" type="line"/>
    </contour>
  </outline>
</glyph>
<glyph name="numbersign" format="2">
  <advance width="745.1834301327654"/>
  <unicode hex="0023"/>
  <outline>
    <contour>
      <point x="211.5265459513344" y="320.0" type="line"/>
      <point x="134.2584459513344" y="320.0"/>
      <point x="57.94887773373073" y="257.2681"/>
      <point x="41.225" y="180.0" type="curve"/>
      <point x="181.225" y="180.0" type="line"/>
    </contour>
    <contour>
      <point x="276.4584301327653" y="620.0" type="line"/>
      <point x="199.19033013276527" y="620.0"/>
      <point x="122.8807619151616" y="557.2681"/>
      <point x="106.15688418143088" y="480.0" type="curve"/>
      <point x="246.15688418143088" y="480.0" type="line"/>
    </contour>
    <contour>
      <point x="123.68367142145095" y="-5.0" type="line"/>
      <point x="200.95177142145099" y="-5.0"/>
      <point x="277.26133963905465" y="57.7319"/>
      <point x="293.98521737278537" y="135.0" type="curve"/>
      <point x="153.98521737278537" y="135.0" type="line"/>
    </contour>
    <contour>
      <point x="153.98521737278537" y="135.0" type="line"/>
      <point x="293.98521737278537" y="135.0" type="line"/>
      <point x="308.0537922787621" y="200.0" type="line"/>
      <point x="168.05379227876205" y="200.0" type="line"/>
    </contour>
    <contour>
      <point x="168.05379227876205" y="200" type="line"/>
      <point x="308.0537922787621" y="200" type="line"/>
      <point x="351.3417150663827" y="400" type="line"/>
      <point x="211.34171506638262" y="400" type="line"/>
    </contour>
    <contour>
      <point x="211.34171506638262" y="400" type="line"/>
      <point x="351.3417150663827" y="400" type="line"/>
      <point x="394.62963785400325" y="600" type="line"/>
      <point x="254.6296378540032" y="600" type="line"/>
    </contour>
    <contour>
      <point x="438.99975871131437" y="805.0" type="line"/>
      <point x="361.73165871131437" y="805.0"/>
      <point x="285.42209049371064" y="742.2681"/>
      <point x="268.69821275997987" y="665.0" type="curve"/>
      <point x="408.6982127599799" y="665.0" type="line"/>
    </contour>
    <contour>
      <point x="254.6296378540032" y="600" type="line"/>
      <point x="394.62963785400325" y="600" type="line"/>
      <point x="408.6982127599799" y="665.0" type="line"/>
      <point x="268.69821275997987" y="665.0" type="line"/>
    </contour>
    <contour>
      <point x="233.72499999999997" y="180.0" type="line"/>
      <point x="373.725" y="180.0" type="line"/>
      <point x="404.02654595133447" y="320.0" type="line"/>
      <point x="264.0265459513344" y="320.0" type="line"/>
    </contour>
    <contour>
      <point x="306.183671421451" y="-5.0" type="line"/>
      <point x="383.451771421451" y="-5.0"/>
      <point x="459.76133963905465" y="57.7319"/>
      <point x="476.4852173727854" y="135.0" type="curve"/>
      <point x="336.4852173727854" y="135.0" type="line"/>
    </contour>
    <contour>
      <point x="336.4852173727854" y="135.0" type="line"/>
      <point x="476.4852173727854" y="135.0" type="line"/>
      <point x="490.5537922787621" y="200.0" type="line"/>
      <point x="350.5537922787621" y="200.0" type="line"/>
    </contour>
    <contour>
      <point x="350.5537922787621" y="200" type="line"/>
      <point x="490.5537922787621" y="200" type="line"/>
      <point x="533.8417150663827" y="400" type="line"/>
      <point x="393.8417150663827" y="400" type="line"/>
    </contour>
    <contour>
      <point x="393.8417150663827" y="400" type="line"/>
      <point x="533.8417150663827" y="400" type="line"/>
      <point x="577.1296378540032" y="600" type="line"/>
      <point x="437.12963785400325" y="600" type="line"/>
    </contour>
    <contour>
      <point x="621.4997587113144" y="805.0" type="line"/>
      <point x="544.2316587113144" y="805.0"/>
      <point x="467.9220904937107" y="742.2681"/>
      <point x="451.1982127599799" y="665.0" type="curve"/>
      <point x="591.1982127599799" y="665.0" type="line"/>
    </contour>
    <contour>
      <point x="437.12963785400325" y="600" type="line"/>
      <point x="577.1296378540032" y="600" type="line"/>
      <point x="591.1982127599799" y="665.0" type="line"/>
      <point x="451.1982127599799" y="665.0" type="line"/>
    </contour>
    <contour>
      <point x="341.1568841814309" y="480.0" type="line"/>
      <point x="481.1568841814309" y="480.0" type="line"/>
      <point x="511.45843013276533" y="620.0" type="line"/>
      <point x="371.45843013276533" y="620.0" type="line"/>
    </contour>
    <contour>
      <point x="468.725" y="180.0" type="line"/>
      <point x="545.9931" y="180.0"/>
      <point x="622.3026682176037" y="242.7319"/>
      <point x="639.0265459513345" y="320.0" type="curve"/>
      <point x="499.02654595133447" y="320.0" type="line"/>
    </contour>
    <contour>
      <point x="533.6568841814309" y="480.0" type="line"/>
      <point x="610.9249841814309" y="480.0"/>
      <point x="687.2345523990346" y="542.7319"/>
      <point x="703.9584301327653" y="620.0" type="curve"/>
      <point x="563.9584301327653" y="620.0" type="line"/>
    </contour>
  </outline>
</glyph>
<glyph name="dollar" format="2">
  <advance width="404.95"/>
  <unicode hex="0024"/>
  <outline>
    <contour>
      <point x="111.225" y="0" type="line"/>
      <point x="181.225" y="0" type="line"/>
      <point x="181.225" y="100.0" type="line"/>
      <point x="111.225" y="100.0" type="line"/>
    </contour>
    <contour>
      <point x="181.225" y="100.0" type="line"/>
      <point x="181.225" y="177.2681"/>
      <point x="118.4931" y="240.0"/>
      <point x="41.225" y="240.0" type="curve"/>
      <point x="41.225" y="100.0" type="line"/>
    </contour>
    <contour>
      <point x="41.225" y="470.0" type="line"/>
      <point x="41.225" y="392.7319"/>
      <point x="103.9569" y="330.0"/>
      <point x="181.225" y="330.0" type="curve"/>
      <point x="181.225" y="470.0" type="line"/>
    </contour>
    <contour>
      <point x="41.225" y="470.0" type="line"/>
      <point x="181.225" y="470.0" type="line"/>
      <point x="181.225" y="500.0" type="line"/>
      <point x="41.225" y="500.0" type="line"/>
    </contour>
    <contour>
      <point x="181.225" y="700.0" type="line"/>
      <point x="103.9569" y="700.0"/>
      <point x="41.225" y="637.2681"/>
      <point x="41.225" y="560.0" type="curve"/>
      <point x="181.225" y="560.0" type="line"/>
    </contour>
    <contour>
      <point x="41.225" y="500.0" type="line"/>
      <point x="181.225" y="500.0" type="line"/>
      <point x="181.225" y="560.0" type="line"/>
      <point x="41.225" y="560.0" type="line"/>
    </contour>
    <contour>
      <point x="111.225" y="600" type="line"/>
      <point x="181.225" y="600" type="line"/>
      <point x="181.225" y="700.0" type="line"/>
      <point x="111.225" y="700.0" type="line"/>
    </contour>
    <contour>
      <point x="111.225" y="700.0" type="line"/>
      <point x="181.225" y="700.0" type="line"/>
      <point x="181.225" y="800.0" type="line"/>
      <point x="111.225" y="800.0" type="line"/>
    </contour>
    <contour>
      <point x="223.725" y="0" type="line"/>
      <point x="293.725" y="0" type="line"/>
      <point x="293.725" y="100.0" type="line"/>
      <point x="223.725" y="100.0" type="line"/>
    </contour>
    <contour>
      <point x="223.725" y="100.0" type="line"/>
      <point x="293.725" y="100.0" type="line"/>
      <point x="293.725" y="200.0" type="line"/>
      <point x="223.725" y="200.0" type="line"/>
    </contour>
    <contour>
      <point x="223.725" y="100.0" type="line"/>
      <point x="300.9931" y="100.0"/>
      <point x="363.725" y="162.7319"/>
      <point x="363.725" y="240.0" type="curve"/>
      <point x="223.725" y="240.0" type="line"/>
    </contour>
    <contour>
      <point x="223.725" y="240.0" type="line"/>
      <point x="363.725" y="240.0" type="line"/>
      <point x="363.725" y="300.0" type="line"/>
      <point x="223.725" y="300.0" type="line"/>
    </contour>
    <contour>
      <point x="363.725" y="330.0" type="line"/>
      <point x="363.725" y="407.2681"/>
      <point x="300.9931" y="470.0"/>
      <point x="223.725" y="470.0" type="curve"/>
      <point x="223.725" y="330.0" type="line"/>
    </contour>
    <contour>
      <point x="223.725" y="300.0" type="line"/>
      <point x="363.725" y="300.0" type="line"/>
      <point x="363.725" y="330.0" type="line"/>
      <point x="223.725" y="330.0" type="line"/>
    </contour>
    <contour>
      <point x="219.35" y="700.0" type="line"/>
      <point x="219.35" y="622.7319"/>
      <point x="282.0819" y="560.0"/>
      <point x="359.35" y="560.0" type="curve"/>
      <point x="359.35" y="700.0" type="line"/>
    </contour>
    <contour>
      <point x="219.35" y="700.0" type="line"/>
      <point x="289.35" y="700.0" type="line"/>
      <point x="289.35" y="800.0" type="line"/>
      <point x="219.35" y="800.0" type="line"/>
    </contour>
  </outline>
</glyph>
<glyph name="percent" format="2">
  <advance width="682.45"/>
  <unicode hex="0025"/>
  <outline>
    <contour>
      <point x="116.225" y="805.0" type="line"/>
      <point x="74.83136999999999" y="805.0"/>
      <point x="41.225" y="771.39363"/>
      <point x="41.225" y="730.0" type="curve" smooth="yes"/>
      <point x="41.225" y="688.60637"/>
      <point x="74.83136999999999" y="655.0"/>
      <point x="116.225" y="655.0" type="curve"/>
    </contour>
    <contour>
      <point x="158.725" y="655.0" type="line"/>
      <point x="200.11862999999997" y="655.0"/>
      <point x="233.725" y="688.60637"/>
      <point x="233.725" y="730.0" type="curve" smooth="yes"/>
      <point x="233.725" y="771.39363"/>
      <point x="200.11862999999997" y="805.0"/>
      <point x="158.725" y="805.0" type="curve"/>
    </contour>
    <contour>
      <point x="271.225" y="0.0" type="line"/>
      <point x="348.4931" y="0.0"/>
      <point x="411.225" y="62.7319"/>
      <point x="411.225" y="140.0" type="curve"/>
      <point x="271.225" y="140.0" type="line"/>
    </contour>
    <contour>
      <point x="271.225" y="140.0" type="line"/>
      <point x="411.225" y="140.0" type="line"/>
      <point x="411.225" y="200.0" type="line"/>
      <point x="271.225" y="200.0" type="line"/>
    </contour>
    <contour>
      <point x="271.225" y="200" type="line"/>
      <point x="411.225" y="200" type="line"/>
      <point x="411.225" y="400" type="line"/>
      <point x="271.225" y="400" type="line"/>
    </contour>
    <contour>
      <point x="271.225" y="400" type="line"/>
      <point x="411.225" y="400" type="line"/>
      <point x="411.225" y="600" type="line"/>
      <point x="271.225" y="600" type="line"/>
    </contour>
    <contour>
      <point x="411.225" y="800.0" type="line"/>
      <point x="333.9569" y="800.0"/>
      <point x="271.225" y="737.2681"/>
      <point x="271.225" y="660.0" type="curve"/>
      <point x="411.225" y="660.0" type="line"/>
    </contour>
    <contour>
      <point x="271.225" y="600" type="line"/>
      <point x="411.225" y="600" type="line"/>
      <point x="411.225" y="660.0" type="line"/>
      <point x="271.225" y="660.0" type="line"/>
    </contour>
    <contour>
      <point x="523.725" y="145.0" type="line"/>
      <point x="482.33137" y="145.0"/>
      <point x="448.725" y="111.39363"/>
      <point x="448.725" y="70.0" type="curve" smooth="yes"/>
      <point x="448.725" y="28.60637"/>
      <point x="482.33137" y="-5.0"/>
      <point x="523.725" y="-5.0" type="curve"/>
    </contour>
    <contour>
      <point x="566.225" y="-5.0" type="line"/>
      <point x="607.61863" y="-5.0"/>
      <point x="641.225" y="28.60637"/>
      <point x="641.225" y="70.0" type="curve" smooth="yes"/>
      <point x="641.225" y="111.39363"/>
      <point x="607.61863" y="145.0"/>
      <point x="566.225" y="145.0" type="curve"/>
    </contour>
  </outline>
</glyph>
<glyph name="ampersand" format="2">
  <advance width="544.95"/>
  <unicode hex="0026"/>
  <outline>
    <contour>
      <point x="41.225" y="135.0" type="line"/>
      <point x="41.225" y="57.7319"/>
      <point x="103.9569" y="-5.0"/>
      <point x="181.225" y="-5.0" type="curve"/>
      <point x="181.225" y="135.0" type="line"/>
    </contour>
    <contour>
      <point x="41.225" y="135.0" type="line"/>
      <point x="181.225" y="135.0" type="line"/>
      <point x="181.225" y="200.0" type="line"/>
      <point x="41.225" y="200.0" type="line"/>
    </contour>
    <contour>
      <point x="181.225" y="400.0" type="line"/>
      <point x="103.9569" y="400.0"/>
      <point x="41.225" y="337.2681"/>
      <point x="41.225" y="260.0" type="curve"/>
      <point x="181.225" y="260.0" type="line"/>
    </contour>
    <contour>
      <point x="41.225" y="200" type="line"/>
      <point x="181.225" y="200" type="line"/>
      <point x="181.225" y="260.0" type="line"/>
      <point x="41.225" y="260.0" type="line"/>
    </contour>
    <contour>
      <point x="41.225" y="540.0" type="line"/>
      <point x="41.225" y="462.7319"/>
      <point x="103.9569" y="400.0"/>
      <point x="181.225" y="400.0" type="curve"/>
      <point x="181.225" y="540.0" type="line"/>
    </contour>
    <contour>
      <point x="41.225" y="540.0" type="line"/>
      <point x="181.225" y="540.0" type="line"/>
      <point x="181.225" y="600.0" type="line"/>
      <point x="41.225" y="600.0" type="line"/>
    </contour>
    <contour>
      <point x="181.225" y="800.0" type="line"/>
      <point x="103.9569" y="800.0"/>
      <point x="41.225" y="737.2681"/>
      <point x="41.225" y="660.0" type="curve"/>
      <point x="181.225" y="660.0" type="line"/>
    </contour>
    <contour>
      <point x="41.225" y="600" type="line"/>
      <point x="181.225" y="600" type="line"/>
      <point x="181.225" y="660.0" type="line"/>
      <point x="41.225" y="660.0" type="line"/>
    </contour>
    <contour>
      <point x="223.725" y="-5.0" type="line"/>
      <point x="300.9931" y="-5.0"/>
      <point x="363.725" y="57.7319"/>
      <point x="363.725" y="135.0" type="curve"/>
      <point x="223.725" y="135.0" type="line"/>
    </contour>
    <contour>
      <point x="223.725" y="135.0" type="line"/>
      <point x="363.725" y="135.0" type="line"/>
      <point x="363.725" y="200.0" type="line"/>
      <point x="223.725" y="200.0" type="line"/>
    </contour>
    <contour>
      <point x="223.725" y="200" type="line"/>
      <point x="363.725" y="200" type="line"/>
      <point x="363.725" y="300.0" type="line"/>
      <point x="223.725" y="300.0" type="line"/>
    </contour>
    <contour>
      <point x="363.725" y="500.0" type="line"/>
      <point x="286.4569" y="500.0"/>
      <point x="223.725" y="437.2681"/>
      <point x="223.725" y="360.0" type="curve"/>
      <point x="363.725" y="360.0" type="line"/>
    </contour>
    <contour>
      <point x="223.725" y="300.0" type="line"/>
      <point x="363.725" y="300.0" type="line"/>
      <point x="363.725" y="360.0" type="line"/>
      <point x="223.725" y="360.0" type="line"/>
    </contour>
    <contour>
      <point x="214.975" y="800.0" type="line"/>
      <point x="214.975" y="722.7319"/>
      <point x="277.7069" y="660.0"/>
      <point x="354.975" y="660.0" type="curve"/>
      <point x="354.975" y="800.0" type="line"/>
    </contour>
    <contour>
      <point x="363.725" y="360.0" type="line"/>
      <point x="440.9931" y="360.0"/>
      <point x="503.725" y="422.7319"/>
      <point x="503.725" y="500.0" type="curve"/>
      <point x="363.725" y="500.0" type="line"/>
    </contour>
  </outline>
</glyph>
<glyph name="quotesingle" format="2">
  <advance width="222.45"/>
  <unicode hex="0027"/>
  <outline>
    <contour>
      <point x="41.225" y="700.0" type="line"/>
      <point x="118.4931" y="700.0"/>
      <point x="181.225" y="762.7319"/>
      <point x="181.225" y="840.0" type="curve"/>
      <point x="41.225" y="840.0" type="line"/>
    </contour>
    <contour>
      <point x="41.225" y="840.0" type="line"/>
      <point x="181.225" y="840.0" type="line"/>
      <point x="181.225" y="900.0" type="line"/>
      <point x="41.225" y="900.0" type="line"/>
    </contour>
  </outline>
</glyph>
<glyph name="asterisk" format="2">
  <advance width="452.4328174128571"/>
  <unicode hex="002A"/>
  <outline>
    <contour>
      <point x="411.20781741285714" y="666.2521478233929" type="line"/>
      <point x="364.5411507461905" y="747.0811855099405" type="line"/>
      <point x="41.225" y="560.4145188432739" type="line"/>
      <point x="87.89166666666665" y="479.58548115672625" type="line"/>
    </contour>
    <contour>
      <point x="364.54115074619045" y="479.58548115672625" type="line"/>
      <point x="411.20781741285714" y="560.4145188432739" type="line"/>
      <point x="87.89166666666668" y="747.0811855099405" type="line"/>
      <point x="41.22500000000003" y="666.252147823393" type="line"/>
    </contour>
    <contour>
      <point x="179.5497420397619" y="426.66666666666674" type="line"/>
      <point x="272.8830753730952" y="426.66666666666674" type="line"/>
      <point x="272.8830753730952" y="800.0" type="line"/>
      <point x="179.5497420397619" y="800.0" type="line"/>
    </contour>
  </outline>
</glyph>
<glyph name="plus" format="2">
  <advance width="587.45"/>
  <unicode hex="002B"/>
  <outline>
    <contour>
      <point x="83.725" y="330.0" type="line"/>
      <point x="223.725" y="330.0" type="line"/>
      <point x="223.725" y="470.0" type="line"/>
      <point x="83.725" y="470.0" type="line"/>
    </contour>
    <contour>
      <point x="223.725" y="160.0" type="line"/>
      <point x="363.725" y="160.0" type="line"/>
      <point x="363.725" y="300.0" type="line"/>
      <point x="223.725" y="300.0" type="line"/>
    </contour>
    <contour>
      <point x="223.725" y="300.0" type="line"/>
      <point x="363.725" y="300.0" type="line"/>
      <point x="363.725" y="500.0" type="line"/>
      <point x="223.725" y="500.0" type="line"/>
    </contour>
    <contour>
      <point x="223.725" y="500.0" type="line"/>
      <point x="363.725" y="500.0" type="line"/>
      <point x="363.725" y="640.0" type="line"/>
      <point x="223.725" y="640.0" type="line"/>
    </contour>
    <contour>
      <point x="363.725" y="330.0" type="line"/>
      <point x="503.725" y="330.0" type="line"/>
      <point x="503.725" y="470.0" type="line"/>
      <point x="363.725" y="470.0" type="line"/>
    </contour>
  </outline>
</glyph>
<glyph name="comma" format="2">
  <advance width="222.45"/>
  <unicode hex="002C"/>
  <outline>
    <contour>
      <point x="41.225" y="-100.0" type="line"/>
      <point x="118.4931" y="-100.0"/>
      <point x="181.225" y="-37.2681"/>
      <point x="181.225" y="40.0" type="curve"/>
      <point x="41.225" y="40.0" type="line"/>
    </contour>
    <contour>
      <point x="41.225" y="40.0" type="line"/>
      <point x="181.225" y="40.0" type="line"/>
      <point x="181.225" y="100.0" type="line"/>
      <point x="41.225" y="100.0" type="line"/>
    </contour>
  </outline>
</glyph>
<glyph name="three" format="2">
  <advance width="404.95"/>
  <unicode hex="0033"/>
  <outline>
    <contour>
      <point x="186.225" y="70.0" type="curve" smooth="yes"/>
      <point x="186.225" y="111.39363"/>
      <point x="152.61863" y="145.0"/>
      <point x="111.225" y="145.0" type="curve" smooth="yes"/>
      <point x="69.83136999999999" y="145.0"/>
      <point x="36.225" y="111.39363"/>
      <point x="36.225" y="70.0" type="curve" smooth="yes"/>
      <point x="36.225" y="28.60637"/>
      <point x="69.83136999999999" y="-5.0"/>
      <point x="111.225" y="-5.0" type="curve" smooth="yes"/>
      <point x="152.61863" y="-5.0"/>
      <point x="186.225" y="28.60637"/>
    </contour>
    <contour>
      <point x="186.225" y="730.0" type="curve" smooth="yes"/>
      <point x="186.225" y="771.39363"/>
      <point x="152.61863" y="805.0"/>
      <point x="111.225" y="805.0" type="curve" smooth="yes"/>
      <point x="69.83136999999999" y="805.0"/>
      <point x="36.225" y="771.39363"/>
      <point x="36.225" y="730.0" type="curve" smooth="yes"/>
      <point x="36.225" y="688.60637"/>
      <point x="69.83136999999999" y="655.0"/>
      <point x="111.225" y="655.0" type="curve" smooth="yes"/>
      <point x="152.61863" y="655.0"/>
      <point x="186.225" y="688.60637"/>
    </contour>
    <contour>
      <point x="223.725" y="-5.0" type="line"/>
      <point x="300.9931" y="-5.0"/>
      <point x="363.725" y="57.7319"/>
      <point x="363.725" y="135.0" type="curve"/>
      <point x="223.725" y="135.0" type="line"/>
    </contour>
    <contour>
      <point x="223.725" y="135.0" type="line"/>
      <point x="363.725" y="135.0" type="line"/>
      <point x="363.725" y="200.0" type="line"/>
      <point x="223.725" y="200.0" type="line"/>
    </contour>
    <contour>
      <point x="363.725" y="260.0" type="line"/>
      <point x="363.725" y="337.2681"/>
      <point x="300.9931" y="400.0"/>
      <point x="223.725" y="400.0" type="curve"/>
      <point x="223.725" y="260.0" type="line"/>
    </contour>
    <contour>
      <point x="223.725" y="200" type="line"/>
      <point x="363.725" y="200" type="line"/>
      <point x="363.725" y="260.0" type="line"/>
      <point x="223.725" y="260.0" type="line"/>
    </contour>
    <contour>
      <point x="223.725" y="400.0" type="line"/>
      <point x="300.9931" y="400.0"/>
      <point x="363.725" y="462.7319"/>
      <point x="363.725" y="540.0" type="curve"/>
      <point x="223.725" y="540.0" type="line"/>
    </contour>
    <contour>
      <point x="223.725" y="540.0" type="line"/>
      <point x="363.725" y="540.0" type="line"/>
      <point x="363.725" y="600.0" type="line"/>
      <point x="223.725" y="600.0" type="line"/>
    </contour>
    <contour>
      <point x="363.725" y="665.0" type="line"/>
      <point x="363.725" y="742.2681"/>
      <point x="300.9931" y="805.0"/>
      <point x="223.725" y="805.0" type="curve"/>
      <point x="223.725" y="665.0" type="line"/>
    </contour>
    <contour>
      <point x="223.725" y="600" type="line"/>
      <point x="363.725" y="600" type="line"/>
      <point x="363.725" y="665.0" type="line"/>
      <point x="223.725" y="665.0" type="line"/>
    </contour>
  </outline>
</glyph>
<glyph name="four" format="2">
  <advance width="404.95"/>
  <unicode hex="0034"/>
  <outline>
    <contour>
      <point x="41.225" y="300.0" type="line"/>
      <point x="118.4931" y="300.0"/>
      <point x="181.225" y="362.7319"/>
      <point x="181.225" y="440.0" type="curve"/>
      <point x="41.225" y="440.0" type="line"/>
    </contour>
    <contour>
      <point x="41.225" y="440.0" type="line"/>
      <point x="181.225" y="440.0" type="line"/>
      <point x="181.225" y="500.0" type="line"/>
      <point x="41.225" y="500.0" type="line"/>
    </contour>
    <contour>
      <point x="41.225" y="500.0" type="line"/>
      <point x="181.225" y="500.0" type="line"/>
      <point x="181.225" y="600.0" type="line"/>
      <point x="41.225" y="600.0" type="line"/>
    </contour>
    <contour>
      <point x="41.225" y="600" type="line"/>
      <point x="181.225" y="600" type="line"/>
      <point x="181.225" y="800" type="line"/>
      <point x="41.225" y="800" type="line"/>
    </contour>
    <contour>
      <point x="223.725" y="0" type="line"/>
      <point x="363.725" y="0" type="line"/>
      <point x="363.725" y="200" type="line"/>
      <point x="223.725" y="200" type="line"/>
    </contour>
    <contour>
      <point x="223.725" y="200" type="line"/>
      <point x="363.725" y="200" type="line"/>
      <point x="363.725" y="400" type="line"/>
      <point x="223.725" y="400" type="line"/>
    </contour>
    <contour>
      <point x="223.725" y="400" type="line"/>
      <point x="363.725" y="400" type="line"/>
      <point x="363.725" y="500.0" type="line"/>
      <point x="223.725" y="500.0" type="line"/>
    </contour>
  </outline>
</glyph>
<glyph name="five" format="2">
  <advance width="404.95"/>
  <unicode hex="0035"/>
  <outline>
    <contour>
      <point x="186.225" y="65.0" type="curve" smooth="yes"/>
      <point x="186.225" y="106.39363"/>
      <point x="152.61863" y="140.0"/>
      <point x="111.225" y="140.0" type="curve" smooth="yes"/>
      <point x="69.83136999999999" y="140.0"/>
      <point x="36.225" y="106.39363"/>
      <point x="36.225" y="65.0" type="curve" smooth="yes"/>
      <point x="36.225" y="23.60637"/>
      <point x="69.83136999999999" y="-10.0"/>
      <point x="111.225" y="-10.0" type="curve" smooth="yes"/>
      <point x="152.61863" y="-10.0"/>
      <point x="186.225" y="23.60637"/>
    </contour>
    <contour>
      <point x="45.6" y="470.0" type="line"/>
      <point x="45.6" y="392.7319"/>
      <point x="108.33189999999999" y="330.0"/>
      <point x="185.6" y="330.0" type="curve"/>
      <point x="185.6" y="470.0" type="line"/>
    </contour>
    <contour>
      <point x="45.6" y="470.0" type="line"/>
      <point x="185.6" y="470.0" type="line"/>
      <point x="185.6" y="500.0" type="line"/>
      <point x="45.6" y="500.0" type="line"/>
    </contour>
    <contour>
      <point x="45.6" y="500.0" type="line"/>
      <point x="185.6" y="500.0" type="line"/>
      <point x="185.6" y="600.0" type="line"/>
      <point x="45.6" y="600.0" type="line"/>
    </contour>
    <contour>
      <point x="45.6" y="600" type="line"/>
      <point x="185.6" y="600" type="line"/>
      <point x="185.6" y="800" type="line"/>
      <point x="45.6" y="800" type="line"/>
    </contour>
    <contour>
      <point x="223.725" y="-5.0" type="line"/>
      <point x="300.9931" y="-5.0"/>
      <point x="363.725" y="57.7319"/>
      <point x="363.725" y="135.0" type="curve"/>
      <point x="223.725" y="135.0" type="line"/>
    </contour>
    <contour>
      <point x="223.725" y="135.0" type="line"/>
      <point x="363.725" y="135.0" type="line"/>
      <point x="363.725" y="200.0" type="line"/>
      <point x="223.725" y="200.0" type="line"/>
    </contour>
    <contour>
      <point x="223.725" y="200" type="line"/>
      <point x="363.725" y="200" type="line"/>
      <point x="363.725" y="300.0" type="line"/>
      <point x="223.725" y="300.0" type="line"/>
    </contour>
    <contour>
      <point x="363.725" y="330.0" type="line"/>
      <point x="363.725" y="407.2681"/>
      <point x="300.9931" y="470.0"/>
      <point x="223.725" y="470.0" type="curve"/>
      <point x="223.725" y="330.0" type="line"/>
    </contour>
    <contour>
      <point x="223.725" y="300.0" type="line"/>
      <point x="363.725" y="300.0" type="line"/>
      <point x="363.725" y="330.0" type="line"/>
      <point x="223.725" y="330.0" type="line"/>
    </contour>
    <contour>
      <point x="219.35" y="800.0" type="line"/>
      <point x="219.35" y="722.7319"/>
      <point x="282.0819" y="660.0"/>
      <point x="359.35" y="660.0" type="curve"/>
      <point x="359.35" y="800.0" type="line"/>
    </contour>
  </outline>
</glyph>
<glyph name="six" format="2">
  <advance width="404.95"/>
  <unicode hex="0036"/>
  <outline>
    <contour>
      <point x="41.225" y="135.0" type="line"/>
      <point x="41.225" y="57.7319"/>
      <point x="103.9569" y="-5.0"/>
      <point x="181.225" y="-5.0" type="curve"/>
      <point x="181.225" y="135.0" type="line"/>
    </contour>
    <contour>
      <point x="41.225" y="135.0" type="line"/>
      <point x="181.225" y="135.0" type="line"/>
      <point x="181.225" y="200.0" type="line"/>
      <point x="41.225" y="200.0" type="line"/>
    </contour>
    <contour>
      <point x="41.225" y="200" type="line"/>
      <point x="181.225" y="200" type="line"/>
      <point x="181.225" y="400" type="line"/>
      <point x="41.225" y="400" type="line"/>
    </contour>
    <contour>
      <point x="41.225" y="400" type="line"/>
      <point x="181.225" y="400" type="line"/>
      <point x="181.225" y="600" type="line"/>
      <point x="41.225" y="600" type="line"/>
    </contour>
    <contour>
      <point x="181.225" y="805.0" type="line"/>
      <point x="103.9569" y="805.0"/>
      <point x="41.225" y="742.2681"/>
      <point x="41.225" y="665.0" type="curve"/>
      <point x="181.225" y="665.0" type="line"/>
    </contour>
    <contour>
      <point x="41.225" y="600" type="line"/>
      <point x="181.225" y="600" type="line"/>
      <point x="181.225" y="665.0" type="line"/>
      <point x="41.225" y="665.0" type="line"/>
    </contour>
    <contour>
      <point x="223.725" y="-5.0" type="line"/>
      <point x="300.9931" y="-5.0"/>
      <point x="363.725" y="57.7319"/>
      <point x="363.725" y="135.0" type="curve"/>
      <point x="223.725" y="135.0" type="line"/>
    </contour>
    <contour>
      <point x="223.725" y="135.0" type="line"/>
      <point x="363.725" y="135.0" type="line"/>
      <point x="363.725" y="200.0" type="line"/>
      <point x="223.725" y="200.0" type="line"/>
    </contour>
    <contour>
      <point x="223.725" y="200" type="line"/>
      <point x="363.725" y="200" type="line"/>
      <point x="363.725" y="300.0" type="line"/>
      <point x="223.725" y="300.0" type="line"/>
    </contour>
    <contour>
      <point x="363.725" y="360.0" type="line"/>
      <point x="363.725" y="437.2681"/>
      <point x="300.9931" y="500.0"/>
      <point x="223.725" y="500.0" type="curve"/>
      <point x="223.725" y="360.0" type="line"/>
    </contour>
    <contour>
      <point x="223.725" y="300.0" type="line"/>
      <point x="363.725" y="300.0" type="line"/>
      <point x="363.725" y="360.0" type="line"/>
      <point x="223.725" y="360.0" type="line"/>
    </contour>
    <contour>
      <point x="359.35" y="735.0" type="curve" smooth="yes"/>
      <point x="359.35" y="773.63405"/>
      <point x="327.98405" y="805.0"/>
      <point x="289.35" y="805.0" type="curve" smooth="yes"/>
      <point x="250.71595" y="805.0"/>
      <point x="219.35" y="773.63405"/>
      <point x="219.35" y="735.0" type="curve" smooth="yes"/>
      <point x="219.35" y="696.36595"/>
      <point x="250.71595" y="665.0"/>
      <point x="289.35" y="665.0" type="curve" smooth="yes"/>
      <point x="327.98405" y="665.0"/>
      <point x="359.35" y="696.36595"/>
    </contour>
  </outline>
</glyph>
<glyph name="seven" format="2">
  <advance width="404.95"/>
  <unicode hex="0037"/>
  <outline>
    <contour>
      <point x="41.225" y="660.0" type="line"/>
      <point x="181.225" y="660.0" type="line"/>
      <point x="181.225" y="800.0" type="line"/>
      <point x="41.225" y="800.0" type="line"/>
    </contour>
    <contour>
      <point x="181.225" y="660.0" type="line"/>
      <point x="223.725" y="660.0" type="line"/>
      <point x="223.725" y="800.0" type="line"/>
      <point x="181.225" y="800.0" type="line"/>
    </contour>
    <contour>
      <point x="223.725" y="0" type="line"/>
      <point x="363.725" y="0" type="line"/>
      <point x="363.725" y="200" type="line"/>
      <point x="223.725" y="200" type="line"/>
    </contour>
    <contour>
      <point x="223.725" y="200" type="line"/>
      <point x="363.725" y="200" type="line"/>
      <point x="363.725" y="400" type="line"/>
      <point x="223.725" y="400" type="line"/>
    </contour>
    <contour>
      <point x="363.725" y="645.0" type="line"/>
      <point x="286.4569" y="645.0"/>
      <point x="223.725" y="582.2681"/>
      <point x="223.725" y="505.0" type="curve"/>
      <point x="363.725" y="505.0" type="line"/>
    </contour>
    <contour>
      <point x="223.725" y="400" type="line"/>
      <point x="363.725" y="400" type="line"/>
      <point x="363.725" y="505.0" type="line"/>
      <point x="223.725" y="505.0" type="line"/>
    </contour>
    <contour>
      <point x="223.725" y="660.0" type="line"/>
      <point x="300.9931" y="660.0"/>
      <point x="363.725" y="722.7319"/>
      <point x="363.725" y="800.0" type="curve"/>
      <point x="223.725" y="800.0" type="line"/>
    </contour>
  </outline>
</glyph>
<glyph name="eight" format="2">
  <advance width="404.95"/>
  <unicode hex="0038"/>
  <outline>
    <contour>
      <point x="41.225" y="135.0" type="line"/>
      <point x="41.225" y="57.7319"/>
      <point x="103.9569" y="-5.0"/>
      <point x="181.225" y="-5.0" type="curve"/>
      <point x="181.225" y="135.0" type="line"/>
    </contour>
    <contour>
      <point x="41.225" y="135.0" type="line"/>
      <point x="181.225" y="135.0" type="line"/>
      <point x="181.225" y="200.0" type="line"/>
      <point x="41.225" y="200.0" type="line"/>
    </contour>
    <contour>
      <point x="181.225" y="400.0" type="line"/>
      <point x="103.9569" y="400.0"/>
      <point x="41.225" y="337.2681"/>
      <point x="41.225" y="260.0" type="curve"/>
      <point x="181.225" y="260.0" type="line"/>
    </contour>
    <contour>
      <point x="41.225" y="200" type="line"/>
      <point x="181.225" y="200" type="line"/>
      <point x="181.225" y="260.0" type="line"/>
      <point x="41.225" y="260.0" type="line"/>
    </contour>
    <contour>
      <point x="41.225" y="540.0" type="line"/>
      <point x="41.225" y="462.7319"/>
      <point x="103.9569" y="400.0"/>
      <point x="181.225" y="400.0" type="curve"/>
      <point x="181.225" y="540.0" type="line"/>
    </contour>
    <contour>
      <point x="41.225" y="540.0" type="line"/>
      <point x="181.225" y="540.0" type="line"/>
      <point x="181.225" y="600.0" type="line"/>
      <point x="41.225" y="600.0" type="line"/>
    </contour>
    <contour>
      <point x="181.225" y="805.0" type="line"/>
      <point x="103.9569" y="805.0"/>
      <point x="41.225" y="742.2681"/>
      <point x="41.225" y="665.0" type="curve"/>
      <point x="181.225" y="665.0" type="line"/>
    </contour>
    <contour>
      <point x="41.225" y="600" type="line"/>
      <point x="181.225" y="600" type="line"/>
      <point x="181.225" y="665.0" type="line"/>
      <point x="41.225" y="665.0" type="line"/>
    </contour>
    <contour>
      <point x="223.725" y="-5.0" type="line"/>
      <point x="300.9931" y="-5.0"/>
      <point x="363.725" y="57.7319"/>
      <point x="363.725" y="135.0" type="curve"/>
      <point x="223.725" y="135.0" type="line"/>
    </contour>
    <contour>
      <point x="223.725" y="135.0" type="line"/>
      <point x="363.725" y="135.0" type="line"/>
      <point x="363.725" y="200.0" type="line"/>
      <point x="223.725" y="200.0" type="line"/>
    </contour>
    <contour>
      <point x="363.725" y="260.0" type="line"/>
      <point x="363.725" y="337.2681"/>
      <point x="300.9931" y="400.0"/>
      <point x="223.725" y="400.0" type="curve"/>
      <point x="223.725" y="260.0" type="line"/>
    </contour>
    <contour>
      <point x="223.725" y="200" type="line"/>
      <point x="363.725" y="200" type="line"/>
      <point x="363.725" y="260.0" type="line"/>
      <point x="223.725" y="260.0" type="line"/>
    </contour>
    <contour>
      <point x="223.725" y="400.0" type="line"/>
      <point x="300.9931" y="400.0"/>
      <point x="363.725" y="462.7319"/>
      <point x="363.725" y="540.0" type="curve"/>
      <point x="223.725" y="540.0" type="line"/>
    </contour>
    <contour>
      <point x="223.725" y="540.0" type="line"/>
      <point x="363.725" y="540.0" type="line"/>
      <point x="363.725" y="600.0" type="line"/>
      <point x="223.725" y="600.0" type="line"/>
    </contour>
    <contour>
      <point x="363.725" y="665.0" type="line"/>
      <point x="363.725" y="742.2681"/>
      <point x="300.9931" y="805.0"/>
      <point x="223.725" y="805.0" type="curve"/>
      <point x="223.725" y="665.0" type="line"/>
    </contour>
    <contour>
      <point x="223.725" y="600" type="line"/>
      <point x="363.725" y="600" type="line"/>
      <point x="363.725" y="665.0" type="line"/>
      <point x="223.725" y="665.0" type="line"/>
    </contour>
  </outline>
</glyph>
<glyph name="nine" format="2">
  <advance width="404.95"/>
  <unicode hex="0039"/>
  <outline>
    <contour>
      <point x="190.6" y="65.0" type="curve" smooth="yes"/>
      <point x="190.6" y="106.39363"/>
      <point x="156.99363" y="140.0"/>
      <point x="115.6" y="140.0" type="curve" smooth="yes"/>
      <point x="74.20636999999999" y="140.0"/>
      <point x="40.6" y="106.39363"/>
      <point x="40.6" y="65.0" type="curve" smooth="yes"/>
      <point x="40.6" y="23.60637"/>
      <point x="74.20636999999999" y="-10.0"/>
      <point x="115.6" y="-10.0" type="curve" smooth="yes"/>
      <point x="156.99363" y="-10.0"/>
      <point x="190.6" y="23.60637"/>
    </contour>
    <contour>
      <point x="41.225" y="440.0" type="line"/>
      <point x="41.225" y="362.7319"/>
      <point x="103.9569" y="300.0"/>
      <point x="181.225" y="300.0" type="curve"/>
      <point x="181.225" y="440.0" type="line"/>
    </contour>
    <contour>
      <point x="41.225" y="440.0" type="line"/>
      <point x="181.225" y="440.0" type="line"/>
      <point x="181.225" y="500.0" type="line"/>
      <point x="41.225" y="500.0" type="line"/>
    </contour>
    <contour>
      <point x="41.225" y="500.0" type="line"/>
      <point x="181.225" y="500.0" type="line"/>
      <point x="181.225" y="600.0" type="line"/>
      <point x="41.225" y="600.0" type="line"/>
    </contour>
    <contour>
      <point x="181.225" y="805.0" type="line"/>
      <point x="103.9569" y="805.0"/>
      <point x="41.225" y="742.2681"/>
      <point x="41.225" y="665.0" type="curve"/>
      <point x="181.225" y="665.0" type="line"/>
    </contour>
    <contour>
      <point x="41.225" y="600" type="line"/>
      <point x="181.225" y="600" type="line"/>
      <point x="181.225" y="665.0" type="line"/>
      <point x="41.225" y="665.0" type="line"/>
    </contour>
    <contour>
      <point x="223.725" y="-5.0" type="line"/>
      <point x="300.9931" y="-5.0"/>
      <point x="363.725" y="57.7319"/>
      <point x="363.725" y="135.0" type="curve"/>
      <point x="223.725" y="135.0" type="line"/>
    </contour>
    <contour>
      <point x="223.725" y="135.0" type="line"/>
      <point x="363.725" y="135.0" type="line"/>
      <point x="363.725" y="200.0" type="line"/>
      <point x="223.725" y="200.0" type="line"/>
    </contour>
    <contour>
      <point x="223.725" y="200" type="line"/>
      <point x="363.725" y="200" type="line"/>
      <point x="363.725" y="400" type="line"/>
      <point x="223.725" y="400" type="line"/>
    </contour>
    <contour>
      <point x="223.725" y="400" type="line"/>
      <point x="363.725" y="400" type="line"/>
      <point x="363.725" y="600" type="line"/>
      <point x="223.725" y="600" type="line"/>
    </contour>
    <contour>
      <point x="363.725" y="665.0" type="line"/>
      <point x="363.725" y="742.2681"/>
      <point x="300.9931" y="805.0"/>
      <point x="223.725" y="805.0" type="curve"/>
      <point x="223.725" y="665.0" type="line"/>
    </contour>
    <contour>
      <point x="223.725" y="600" type="line"/>
      <point x="363.725" y="600" type="line"/>
      <point x="363.725" y="665.0" type="line"/>
      <point x="223.725" y="665.0" type="line"/>
    </contour>
  </outline>
</glyph>
<glyph name="colon" format="2">
  <advance width="222.45"/>
  <unicode hex="003A"/>
  <outline>
    <contour>
      <point x="186.225" y="65.0" type="curve" smooth="yes"/>
      <point x="186.225" y="106.39363"/>
      <point x="152.61863" y="140.0"/>
      <point x="111.225" y="140.0" type="curve" smooth="yes"/>
      <point x="69.83136999999999" y="140.0"/>
      <point x="36.225" y="106.39363"/>
      <point x="36.225" y="65.0" type="curve" smooth="yes"/>
      <point x="36.225" y="23.60637"/>
      <point x="69.83136999999999" y="-10.0"/>
      <point x="111.225" y="-10.0" type="curve" smooth="yes"/>
      <point x="152.61863" y="-10.0"/>
      <point x="186.225" y="23.60637"/>
    </contour>
    <contour>
      <point x="186.225" y="530.0" type="curve" smooth="yes"/>
      <point x="186.225" y="571.39363"/>
      <point x="152.61863" y="605.0"/>
      <point x="111.225" y="605.0" type="curve" smooth="yes"/>
      <point x="69.83136999999999" y="605.0"/>
      <point x="36.225" y="571.39363"/>
      <point x="36.225" y="530.0" type="curve" smooth="yes"/>
      <point x="36.225" y="488.60637"/>
      <point x="69.83136999999999" y="455.0"/>
      <point x="111.225" y="455.0" type="curve" smooth="yes"/>
      <point x="152.61863" y="455.0"/>
      <point x="186.225" y="488.60637"/>
    </contour>
  </outline>
</glyph>
<glyph name="semicolon" format="2">
  <advance width="222.45"/>
  <unicode hex="003B"/>
  <outline>
    <contour>
      <point x="41.225" y="-100.0" type="line"/>
      <point x="118.4931" y="-100.0"/>
      <point x="181.225" y="-37.2681"/>
      <point x="181.225" y="40.0" type="curve"/>
      <point x="41.225" y="40.0" type="line"/>
    </contour>
    <contour>
      <point x="41.225" y="40.0" type="line"/>
      <point x="181.225" y="40.0" type="line"/>
      <point x="181.225" y="100.0" type="line"/>
      <point x="41.225" y="100.0" type="line"/>
    </contour>
    <contour>
      <point x="186.225" y="530.0" type="curve" smooth="yes"/>
      <point x="186.225" y="571.39363"/>
      <point x="152.61863" y="605.0"/>
      <point x="111.225" y="605.0" type="curve" smooth="yes"/>
      <point x="69.83136999999999" y="605.0"/>
      <point x="36.225" y="571.39363"/>
      <point x="36.225" y="530.0" type="curve" smooth="yes"/>
      <point x="36.225" y="488.60637"/>
      <point x="69.83136999999999" y="455.0"/>
      <point x="111.225" y="455.0" type="curve" smooth="yes"/>
      <point x="152.61863" y="455.0"/>
      <point x="186.225" y="488.60637"/>
    </contour>
  </outline>
</glyph>
<glyph name="less" format="2">
  <advance width="362.45"/>
  <unicode hex="003C"/>
  <outline>
    <contour>
      <point x="41.225" y="240.0" type="line"/>
      <point x="41.225" y="162.7319"/>
      <point x="103.9569" y="100.0"/>
      <point x="181.225" y="100.0" type="curve"/>
      <point x="181.225" y="240.0" type="line"/>
    </contour>
    <contour>
      <point x="41.225" y="240.0" type="line"/>
      <point x="181.225" y="240.0" type="line"/>
      <point x="181.225" y="300.0" type="line"/>
      <point x="41.225" y="300.0" type="line"/>
    </contour>
    <contour>
      <point x="41.225" y="300.0" type="line"/>
      <point x="181.225" y="300.0" type="line"/>
      <point x="181.225" y="500.0" type="line"/>
      <point x="41.225" y="500.0" type="line"/>
    </contour>
    <contour>
      <point x="181.225" y="700.0" type="line"/>
      <point x="103.9569" y="700.0"/>
      <point x="41.225" y="637.2681"/>
      <point x="41.225" y="560.0" type="curve"/>
      <point x="181.225" y="560.0" type="line"/>
    </contour>
    <contour>
      <point x="41.225" y="500.0" type="line"/>
      <point x="181.225" y="500.0" type="line"/>
      <point x="181.225" y="560.0" type="line"/>
      <point x="41.225" y="560.0" type="line"/>
    </contour>
    <contour>
      <point x="321.225" y="100.0" type="line"/>
      <point x="321.225" y="177.2681"/>
      <point x="258.4931" y="240.0"/>
      <point x="181.225" y="240.0" type="curve"/>
      <point x="181.225" y="100.0" type="line"/>
    </contour>
    <contour>
      <point x="181.225" y="560.0" type="line"/>
      <point x="258.4931" y="560.0"/>
      <point x="321.225" y="622.7319"/>
      <point x="321.225" y="700.0" type="curve"/>
      <point x="181.225" y="700.0" type="line"/>
    </contour>
  </outline>
</glyph>
<glyph name="equal" format="2">
  <advance width="587.45"/>
  <unicode hex="003D"/>
  <outline>
    <contour>
      <point x="83.725" y="210.0" type="line"/>
      <point x="223.725" y="210.0" type="line"/>
      <point x="223.725" y="350.0" type="line"/>
      <point x="83.725" y="350.0" type="line"/>
    </contour>
    <contour>
      <point x="83.725" y="450.0" type="line"/>
      <point x="223.725" y="450.0" type="line"/>
      <point x="223.725" y="590.0" type="line"/>
      <point x="83.725" y="590.0" type="line"/>
    </contour>
    <contour>
      <point x="223.725" y="210.0" type="line"/>
      <point x="363.725" y="210.0" type="line"/>
      <point x="363.725" y="350.0" type="line"/>
      <point x="223.725" y="350.0" type="line"/>
    </contour>
    <contour>
      <point x="223.725" y="450.0" type="line"/>
      <point x="363.725" y="450.0" type="line"/>
      <point x="363.725" y="590.0" type="line"/>
      <point x="223.725" y="590.0" type="line"/>
    </contour>
    <contour>
      <point x="363.725" y="210.0" type="line"/>
      <point x="503.725" y="210.0" type="line"/>
      <point x="503.725" y="350.0" type="line"/>
      <point x="363.725" y="350.0" type="line"/>
    </contour>
    <contour>
      <point x="363.725" y="450.0" type="line"/>
      <point x="503.725" y="450.0" type="line"/>
      <point x="503.725" y="590.0" type="line"/>
      <point x="363.725" y="590.0" type="line"/>
    </contour>
  </outline>
</glyph>
<glyph name="question" format="2">
  <advance width="404.95"/>
  <unicode hex="003F"/>
  <outline>
    <contour>
      <point x="186.225" y="63.75" type="curve" smooth="yes"/>
      <point x="186.225" y="105.14363"/>
      <point x="152.61863" y="138.75"/>
      <point x="111.225" y="138.75" type="curve" smooth="yes"/>
      <point x="69.83136999999999" y="138.75"/>
      <point x="36.225" y="105.14363"/>
      <point x="36.225" y="63.75" type="curve" smooth="yes"/>
      <point x="36.225" y="22.35637"/>
      <point x="69.83136999999999" y="-11.25"/>
      <point x="111.225" y="-11.25" type="curve" smooth="yes"/>
      <point x="152.61863" y="-11.25"/>
      <point x="186.225" y="22.35637"/>
    </contour>
    <contour>
      <point x="41.225" y="200.0" type="line"/>
      <point x="181.225" y="200.0" type="line"/>
      <point x="181.225" y="400.0" type="line"/>
      <point x="41.225" y="400.0" type="line"/>
    </contour>
    <contour>
      <point x="181.225" y="540.0" type="line"/>
      <point x="103.9569" y="540.0"/>
      <point x="41.225" y="477.2681"/>
      <point x="41.225" y="400.0" type="curve"/>
      <point x="181.225" y="400.0" type="line"/>
    </contour>
    <contour>
      <point x="186.225" y="742.5" type="curve" smooth="yes"/>
      <point x="186.225" y="783.89363"/>
      <point x="152.61863" y="817.5"/>
      <point x="111.225" y="817.5" type="curve" smooth="yes"/>
      <point x="69.83136999999999" y="817.5"/>
      <point x="36.225" y="783.89363"/>
      <point x="36.225" y="742.5" type="curve" smooth="yes"/>
      <point x="36.225" y="701.10637"/>
      <point x="69.83136999999999" y="667.5"/>
      <point x="111.225" y="667.5" type="curve" smooth="yes"/>
      <point x="152.61863" y="667.5"/>
      <point x="186.225" y="701.10637"/>
    </contour>
    <contour>
      <point x="223.725" y="405.0" type="line"/>
      <point x="300.9931" y="405.0"/>
      <point x="363.725" y="467.7319"/>
      <point x="363.725" y="545.0" type="curve"/>
      <point x="223.725" y="545.0" type="line"/>
    </contour>
    <contour>
      <point x="223.725" y="545.0" type="line"/>
      <point x="363.725" y="545.0" type="line"/>
      <point x="363.725" y="605.0" type="line"/>
      <point x="223.725" y="605.0" type="line"/>
    </contour>
    <contour>
      <point x="363.725" y="665.0" type="line"/>
      <point x="363.725" y="742.2681"/>
      <point x="300.9931" y="805.0"/>
      <point x="223.725" y="805.0" type="curve"/>
      <point x="223.725" y="665.0" type="line"/>
    </contour>
    <contour>
      <point x="223.725" y="605.0" type="line"/>
      <point x="363.725" y="605.0" type="line"/>
      <point x="363.725" y="665.0" type="line"/>
      <point x="223.725" y="665.0" type="line"/>
    </contour>
  </outline>
</glyph>
<glyph name="at" format="2">
  <advance width="954.8433400000001"/>
  <unicode hex="0040"/>
  <outline>
    <contour>
      <point x="307.42167" y="340.0" type="curve"/>
      <point x="447.42167000000006" y="340.0" type="line"/>
      <point x="447.42167000000006" y="200.0" type="line"/>
      <point x="370.15357000000006" y="200.0"/>
      <point x="307.42167" y="262.7319"/>
    </contour>
    <contour>
      <point x="307.42167" y="340.0" type="line"/>
      <point x="307.42167" y="400.0" type="line"/>
      <point x="447.42167000000006" y="400.0" type="line"/>
      <point x="447.42167000000006" y="340.0" type="line"/>
    </contour>
    <contour>
      <point x="447.42167000000006" y="600.0" type="curve"/>
      <point x="447.42167000000006" y="460.0" type="line"/>
      <point x="307.42167" y="460.0" type="line"/>
      <point x="307.42167" y="537.2681"/>
      <point x="370.15357000000006" y="600.0"/>
    </contour>
    <contour>
      <point x="307.42167" y="400" type="line"/>
      <point x="307.42167" y="460.0" type="line"/>
      <point x="447.42167000000006" y="460.0" type="line"/>
      <point x="447.42167000000006" y="400" type="line"/>
    </contour>
    <contour>
      <point x="489.92167000000006" y="340.0" type="curve"/>
      <point x="629.9216700000001" y="340.0" type="line"/>
      <point x="629.9216700000001" y="200.0" type="line"/>
      <point x="552.6535700000001" y="200.0"/>
      <point x="489.92167000000006" y="262.7319"/>
    </contour>
    <contour>
      <point x="489.92167000000006" y="340.0" type="line"/>
      <point x="489.92167000000006" y="400.0" type="line"/>
      <point x="629.9216700000001" y="400.0" type="line"/>
      <point x="629.9216700000001" y="340.0" type="line"/>
    </contour>
    <contour>
      <point x="489.92167000000006" y="400" type="line"/>
      <point x="489.92167000000006" y="600" type="line"/>
      <point x="629.9216700000001" y="600" type="line"/>
      <point x="629.9216700000001" y="400" type="line"/>
    </contour>
    <contour>
      <point x="843.6183400000001" y="400.0" type="curve" smooth="yes"/>
      <point x="843.6183400000001" y="602.10944"/>
      <point x="679.53111" y="766.19667"/>
      <point x="477.42167000000006" y="766.19667" type="curve" smooth="yes"/>
      <point x="275.31223" y="766.19667"/>
      <point x="111.225" y="602.10944"/>
      <point x="111.225" y="400.0" type="curve" smooth="yes"/>
      <point x="111.225" y="197.89056"/>
      <point x="275.31223" y="33.80333"/>
      <point x="477.42167000000006" y="33.80333" type="curve" smooth="yes"/>
      <point x="679.53111" y="33.80333"/>
      <point x="843.6183400000001" y="197.89056"/>
    </contour>
  </outline>
</glyph>
<glyph name="A" format="2">
  <advance width="404.95"/>
  <unicode hex="0041"/>
  <outline>
    <contour>
      <point x="41.225" y="0" type="line"/>
      <point x="181.225" y="0" type="line"/>
      <point x="181.225" y="200" type="line"/>
      <point x="41.225" y="200" type="line"/>
    </contour>
    <contour>
      <point x="41.225" y="200" type="line"/>
      <point x="181.225" y="200" type="line"/>
      <point x="181.225" y="400" type="line"/>
      <point x="41.225" y="400" type="line"/>
    </contour>
    <contour>
      <point x="41.225" y="400" type="line"/>
      <point x="181.225" y="400" type="line"/>
      <point x="181.225" y="605.0" type="line"/>
      <point x="41.225" y="605.0" type="line"/>
    </contour>
    <contour>
      <point x="181.225" y="805.0" type="line"/>
      <point x="103.9569" y="805.0"/>
      <point x="41.225" y="742.2681"/>
      <point x="41.225" y="665.0" type="curve"/>
      <point x="181.225" y="665.0" type="line"/>
    </contour>
    <contour>
      <point x="41.225" y="605.0" type="line"/>
      <point x="181.225" y="605.0" type="line"/>
      <point x="181.225" y="665.0" type="line"/>
      <point x="41.225" y="665.0" type="line"/>
    </contour>
    <contour>
      <point x="223.725" y="0" type="line"/>
      <point x="363.725" y="0" type="line"/>
      <point x="363.725" y="200" type="line"/>
      <point x="223.725" y="200" type="line"/>
    </contour>
    <contour>
      <point x="223.725" y="200" type="line"/>
      <point x="363.725" y="200" type="line"/>
      <point x="363.725" y="400" type="line"/>
      <point x="223.725" y="400" type="line"/>
    </contour>
    <contour>
      <point x="223.725" y="400" type="line"/>
      <point x="363.725" y="400" type="line"/>
      <point x="363.725" y="605.0" type="line"/>
      <point x="223.725" y="605.0" type="line"/>
    </contour>
    <contour>
      <point x="363.725" y="665.0" type="line"/>
      <point x="363.725" y="742.2681"/>
      <point x="300.9931" y="805.0"/>
      <point x="223.725" y="805.0" type="curve"/>
      <point x="223.725" y="665.0" type="line"/>
    </contour>
    <contour>
      <point x="223.725" y="605.0" type="line"/>
      <point x="363.725" y="605.0" type="line"/>
      <point x="363.725" y="665.0" type="line"/>
      <point x="223.725" y="665.0" type="line"/>
    </contour>
  </outline>
</glyph>
<glyph name="C" format="2">
  <advance width="404.95"/>
  <unicode hex="0043"/>
  <outline>
    <contour>
      <point x="41.225" y="140.0" type="line"/>
      <point x="41.225" y="62.7319"/>
      <point x="103.9569" y="0.0"/>
      <point x="181.225" y="0.0" type="curve"/>
      <point x="181.225" y="140.0" type="line"/>
    </contour>
    <contour>
      <point x="41.225" y="140.0" type="line"/>
      <point x="181.225" y="140.0" type="line"/>
      <point x="181.225" y="200.0" type="line"/>
      <point x="41.225" y="200.0" type="line"/>
    </contour>
    <contour>
      <point x="41.225" y="200" type="line"/>
      <point x="181.225" y="200" type="line"/>
      <point x="181.225" y="400" type="line"/>
      <point x="41.225" y="400" type="line"/>
    </contour>
    <contour>
      <point x="41.225" y="400" type="line"/>
      <point x="181.225" y="400" type="line"/>
      <point x="181.225" y="600" type="line"/>
      <point x="41.225" y="600" type="line"/>
    </contour>
    <contour>
      <point x="181.225" y="800.0" type="line"/>
      <point x="103.9569" y="800.0"/>
      <point x="41.225" y="737.2681"/>
      <point x="41.225" y="660.0" type="curve"/>
      <point x="181.225" y="660.0" type="line"/>
    </contour>
    <contour>
      <point x="41.225" y="600" type="line"/>
      <point x="181.225" y="600" type="line"/>
      <point x="181.225" y="660.0" type="line"/>
      <point x="41.225" y="660.0" type="line"/>
    </contour>
    <contour>
      <point x="363.725" y="140.0" type="line"/>
      <point x="286.4569" y="140.0"/>
      <point x="223.725" y="77.2681"/>
      <point x="223.725" y="0.0" type="curve"/>
      <point x="363.725" y="0.0" type="line"/>
    </contour>
    <contour>
      <point x="223.725" y="600.0" type="line"/>
      <point x="223.725" y="522.7319"/>
      <point x="286.4569" y="460.0"/>
      <point x="363.725" y="460.0" type="curve"/>
      <point x="363.725" y="600.0" type="line"/>
    </contour>
    <contour>
      <point x="223.725" y="600" type="line"/>
      <point x="363.725" y="600" type="line"/>
      <point x="363.725" y="800" type="line"/>
      <point x="223.725" y="800" type="line"/>
    </contour>
  </outline>
</glyph>
<glyph name="F" format="2">
  <advance width="404.95"/>
  <unicode hex="0046"/>
  <outline>
    <contour>
      <point x="41.225" y="0" type="line"/>
      <point x="181.225" y="0" type="line"/>
      <point x="181.225" y="200" type="line"/>
      <point x="41.225" y="200" type="line"/>
    </contour>
    <contour>
      <point x="41.225" y="200" type="line"/>
      <point x="181.225" y="200" type="line"/>
      <point x="181.225" y="400" type="line"/>
      <point x="41.225" y="400" type="line"/>
    </contour>
    <contour>
      <point x="41.225" y="400" type="line"/>
      <point x="181.225" y="400" type="line"/>
      <point x="181.225" y="600" type="line"/>
      <point x="41.225" y="600" type="line"/>
    </contour>
    <contour>
      <point x="41.225" y="600" type="line"/>
      <point x="181.225" y="600" type="line"/>
      <point x="181.225" y="800" type="line"/>
      <point x="41.225" y="800" type="line"/>
    </contour>
    <contour>
      <point x="223.725" y="470.0" type="line"/>
      <point x="223.725" y="392.7319"/>
      <point x="286.4569" y="330.0"/>
      <point x="363.725" y="330.0" type="curve"/>
      <point x="363.725" y="470.0" type="line"/>
    </contour>
    <contour>
      <point x="223.725" y="800.0" type="line"/>
      <point x="223.725" y="722.7319"/>
      <point x="286.4569" y="660.0"/>
      <point x="363.725" y="660.0" type="curve"/>
      <point x="363.725" y="800.0" type="line"/>
    </contour>
  </outline>
</glyph>
<glyph name="H" format="2">
  <advance width="587.45"/>
  <unicode hex="0048"/>
  <outline>
    <contour>
      <point x="41.225" y="0" type="line"/>
      <point x="181.225" y="0" type="line"/>
      <point x="181.225" y="200" type="line"/>
      <point x="41.225" y="200" type="line"/>
    </contour>
    <contour>
      <point x="41.225" y="200" type="line"/>
      <point x="181.225" y="200" type="line"/>
      <point x="181.225" y="400" type="line"/>
      <point x="41.225" y="400" type="line"/>
    </contour>
    <contour>
      <point x="41.225" y="400" type="line"/>
      <point x="181.225" y="400" type="line"/>
      <point x="181.225" y="600" type="line"/>
      <point x="41.225" y="600" type="line"/>
    </contour>
    <contour>
      <point x="41.225" y="600" type="line"/>
      <point x="181.225" y="600" type="line"/>
      <point x="181.225" y="800" type="line"/>
      <point x="41.225" y="800" type="line"/>
    </contour>
    <contour>
      <point x="223.725" y="470.0" type="line"/>
      <point x="223.725" y="392.7319"/>
      <point x="286.4569" y="330.0"/>
      <point x="363.725" y="330.0" type="curve"/>
      <point x="363.725" y="470.0" type="line"/>
    </contour>
    <contour>
      <point x="406.225" y="0" type="line"/>
      <point x="546.225" y="0" type="line"/>
      <point x="546.225" y="200" type="line"/>
      <point x="406.225" y="200" type="line"/>
    </contour>
    <contour>
      <point x="406.225" y="200" type="line"/>
      <point x="546.225" y="200" type="line"/>
      <point x="546.225" y="400" type="line"/>
      <point x="406.225" y="400" type="line"/>
    </contour>
    <contour>
      <point x="406.225" y="400" type="line"/>
      <point x="546.225" y="400" type="line"/>
      <point x="546.225" y="600" type="line"/>
      <point x="406.225" y="600" type="line"/>
    </contour>
    <contour>
      <point x="406.225" y="600" type="line"/>
      <point x="546.225" y="600" type="line"/>
      <point x="546.225" y="800" type="line"/>
      <point x="406.225" y="800" type="line"/>
    </contour>
  </outline>
</glyph>
<glyph name="K" format="2">
  <advance width="404.95"/>
  <unicode hex="004B"/>
  <outline>
    <contour>
      <point x="41.225" y="0" type="line"/>
      <point x="181.225" y="0" type="line"/>
      <point x="181.225" y="200" type="line"/>
      <point x="41.225" y="200" type="line"/>
    </contour>
    <contour>
      <point x="41.225" y="200" type="line"/>
      <point x="181.225" y="200" type="line"/>
      <point x="181.225" y="400" type="line"/>
      <point x="41.225" y="400" type="line"/>
    </contour>
    <contour>
      <point x="41.225" y="400" type="line"/>
      <point x="181.225" y="400" type="line"/>
      <point x="181.225" y="600" type="line"/>
      <point x="41.225" y="600" type="line"/>
    </contour>
    <contour>
      <point x="41.225" y="600" type="line"/>
      <point x="181.225" y="600" type="line"/>
      <point x="181.225" y="800" type="line"/>
      <point x="41.225" y="800" type="line"/>
    </contour>
    <contour>
      <point x="223.725" y="0" type="line"/>
      <point x="363.725" y="0" type="line"/>
      <point x="363.725" y="200" type="line"/>
      <point x="223.725" y="200" type="line"/>
    </contour>
    <contour>
      <point x="363.725" y="260.0" type="line"/>
      <point x="363.725" y="337.2681"/>
      <point x="300.9931" y="400.0"/>
      <point x="223.725" y="400.0" type="curve"/>
      <point x="223.725" y="260.0" type="line"/>
    </contour>
    <contour>
      <point x="223.725" y="200" type="line"/>
      <point x="363.725" y="200" type="line"/>
      <point x="363.725" y="260.0" type="line"/>
      <point x="223.725" y="260.0" type="line"/>
    </contour>
    <contour>
      <point x="223.725" y="400.0" type="line"/>
      <point x="300.9931" y="400.0"/>
      <point x="363.725" y="462.7319"/>
      <point x="363.725" y="540.0" type="curve"/>
      <point x="223.725" y="540.0" type="line"/>
    </contour>
    <contour>
      <point x="223.725" y="540.0" type="line"/>
      <point x="363.725" y="540.0" type="line"/>
      <point x="363.725" y="600.0" type="line"/>
      <point x="223.725" y="600.0" type="line"/>
    </contour>
    <contour>
      <point x="223.725" y="600" type="line"/>
      <point x="363.725" y="600" type="line"/>
      <point x="363.725" y="800" type="line"/>
      <point x="223.725" y="800" type="line"/>
    </contour>
  </outline>
</glyph>
<glyph name="M" format="2">
  <advance width="587.45"/>
  <unicode hex="004D"/>
  <outline>
    <contour>
      <point x="41.225" y="0" type="line"/>
      <point x="181.225" y="0" type="line"/>
      <point x="181.225" y="200" type="line"/>
      <point x="41.225" y="200" type="line"/>
    </contour>
    <contour>
      <point x="41.225" y="200" type="line"/>
      <point x="181.225" y="200" type="line"/>
      <point x="181.225" y="400" type="line"/>
      <point x="41.225" y="400" type="line"/>
    </contour>
    <contour>
      <point x="41.225" y="400" type="line"/>
      <point x="181.225" y="400" type="line"/>
      <point x="181.225" y="600" type="line"/>
      <point x="41.225" y="600" type="line"/>
    </contour>
    <contour>
      <point x="41.225" y="600" type="line"/>
      <point x="181.225" y="600" type="line"/>
      <point x="181.225" y="800" type="line"/>
      <point x="41.225" y="800" type="line"/>
    </contour>
    <contour>
      <point x="223.725" y="0" type="line"/>
      <point x="363.725" y="0" type="line"/>
      <point x="363.725" y="200" type="line"/>
      <point x="223.725" y="200" type="line"/>
    </contour>
    <contour>
      <point x="223.725" y="200" type="line"/>
      <point x="363.725" y="200" type="line"/>
      <point x="363.725" y="400" type="line"/>
      <point x="223.725" y="400" type="line"/>
    </contour>
    <contour>
      <point x="223.725" y="400" type="line"/>
      <point x="363.725" y="400" type="line"/>
      <point x="363.725" y="600" type="line"/>
      <point x="223.725" y="600" type="line"/>
    </contour>
    <contour>
      <point x="223.725" y="600" type="line"/>
      <point x="363.725" y="600" type="line"/>
      <point x="363.725" y="800" type="line"/>
      <point x="223.725" y="800" type="line"/>
    </contour>
    <contour>
      <point x="406.225" y="0" type="line"/>
      <point x="546.225" y="0" type="line"/>
      <point x="546.225" y="200" type="line"/>
      <point x="406.225" y="200" type="line"/>
    </contour>
    <contour>
      <point x="406.225" y="200" type="line"/>
      <point x="546.225" y="200" type="line"/>
      <point x="546.225" y="400" type="line"/>
      <point x="406.225" y="400" type="line"/>
    </contour>
    <contour>
      <point x="406.225" y="400" type="line"/>
      <point x="546.225" y="400" type="line"/>
      <point x="546.225" y="600" type="line"/>
      <point x="406.225" y="600" type="line"/>
    </contour>
    <contour>
      <point x="546.225" y="660.0" type="line"/>
      <point x="546.225" y="737.2681"/>
      <point x="483.4931" y="800.0"/>
      <point x="406.225" y="800.0" type="curve"/>
      <point x="406.225" y="660.0" type="line"/>
    </contour>
    <contour>
      <point x="406.225" y="600" type="line"/>
      <point x="546.225" y="600" type="line"/>
      <point x="546.225" y="660.0" type="line"/>
      <point x="406.225" y="660.0" type="line"/>
    </contour>
  </outline>
</glyph>
<glyph name="U" format="2">
  <advance width="404.95"/>
  <unicode hex="0055"/>
  <outline>
    <contour>
      <point x="41.225" y="135.0" type="line"/>
      <point x="41.225" y="57.7319"/>
      <point x="103.9569" y="-5.0"/>
      <point x="181.225" y="-5.0" type="curve"/>
      <point x="181.225" y="135.0" type="line"/>
    </contour>
    <contour>
      <point x="41.225" y="135.0" type="line"/>
      <point x="181.225" y="135.0" type="line"/>
      <point x="181.225" y="195.0" type="line"/>
      <point x="41.225" y="195.0" type="line"/>
    </contour>
    <contour>
      <point x="41.225" y="195.0" type="line"/>
      <point x="181.225" y="195.0" type="line"/>
      <point x="181.225" y="400.0" type="line"/>
      <point x="41.225" y="400.0" type="line"/>
    </contour>
    <contour>
      <point x="41.225" y="400" type="line"/>
      <point x="181.225" y="400" type="line"/>
      <point x="181.225" y="600" type="line"/>
      <point x="41.225" y="600" type="line"/>
    </contour>
    <contour>
      <point x="41.225" y="600" type="line"/>
      <point x="181.225" y="600" type="line"/>
      <point x="181.225" y="800" type="line"/>
      <point x="41.225" y="800" type="line"/>
    </contour>
    <contour>
      <point x="223.725" y="-5.0" type="line"/>
      <point x="300.9931" y="-5.0"/>
      <point x="363.725" y="57.7319"/>
      <point x="363.725" y="135.0" type="curve"/>
      <point x="223.725" y="135.0" type="line"/>
    </contour>
    <contour>
      <point x="223.725" y="135.0" type="line"/>
      <point x="363.725" y="135.0" type="line"/>
      <point x="363.725" y="195.0" type="line"/>
      <point x="223.725" y="195.0" type="line"/>
    </contour>
    <contour>
      <point x="223.725" y="195.0" type="line"/>
      <point x="363.725" y="195.0" type="line"/>
      <point x="363.725" y="400.0" type="line"/>
      <point x="223.725" y="400.0" type="line"/>
    </contour>
    <contour>
      <point x="223.725" y="400" type="line"/>
      <point x="363.725" y="400" type="line"/>
      <point x="363.725" y="600" type="line"/>
      <point x="223.725" y="600" type="line"/>
    </contour>
    <contour>
      <point x="223.725" y="600" type="line"/>
      <point x="363.725" y="600" type="line"/>
      <point x="363.725" y="800" type="line"/>
      <point x="223.725" y="800" type="line"/>
    </contour>
  </outline>
</glyph>
<glyph name="V" format="2">
  <advance width="404.95"/>
  <unicode hex="0056"/>
  <outline>
    <contour>
      <point x="41.225" y="135.0" type="line"/>
      <point x="41.225" y="57.7319"/>
      <point x="103.9569" y="-5.0"/>
      <point x="181.225" y="-5.0" type="curve"/>
      <point x="181.225" y="135.0" type="line"/>
    </contour>
    <contour>
      <point x="41.225" y="135.0" type="line"/>
      <point x="181.225" y="135.0" type="line"/>
      <point x="181.225" y="195.0" type="line"/>
      <point x="41.225" y="195.0" type="line"/>
    </contour>
    <contour>
      <point x="41.225" y="195.0" type="line"/>
      <point x="181.225" y="195.0" type="line"/>
      <point x="181.225" y="400.0" type="line"/>
      <point x="41.225" y="400.0" type="line"/>
    </contour>
    <contour>
      <point x="41.225" y="400" type="line"/>
      <point x="181.225" y="400" type="line"/>
      <point x="181.225" y="600" type="line"/>
      <point x="41.225" y="600" type="line"/>
    </contour>
    <contour>
      <point x="181.225" y="660.0" type="line"/>
      <point x="181.225" y="737.2681"/>
      <point x="118.4931" y="800.0"/>
      <point x="41.225" y="800.0" type="curve"/>
      <point x="41.225" y="660.0" type="line"/>
    </contour>
    <contour>
      <point x="41.225" y="600" type="line"/>
      <point x="181.225" y="600" type="line"/>
      <point x="181.225" y="660.0" type="line"/>
      <point x="41.225" y="660.0" type="line"/>
    </contour>
    <contour>
      <point x="223.725" y="-5.0" type="line"/>
      <point x="300.9931" y="-5.0"/>
      <point x="363.725" y="57.7319"/>
      <point x="363.725" y="135.0" type="curve"/>
      <point x="223.725" y="135.0" type="line"/>
    </contour>
    <contour>
      <point x="223.725" y="135.0" type="line"/>
      <point x="363.725" y="135.0" type="line"/>
      <point x="363.725" y="195.0" type="line"/>
      <point x="223.725" y="195.0" type="line"/>
    </contour>
    <contour>
      <point x="223.725" y="195.0" type="line"/>
      <point x="363.725" y="195.0" type="line"/>
      <point x="363.725" y="400.0" type="line"/>
      <point x="223.725" y="400.0" type="line"/>
    </contour>
    <contour>
      <point x="223.725" y="400" type="line"/>
      <point x="363.725" y="400" type="line"/>
      <point x="363.725" y="600" type="line"/>
      <point x="223.725" y="600" type="line"/>
    </contour>
    <contour>
      <point x="223.725" y="600" type="line"/>
      <point x="363.725" y="600" type="line"/>
      <point x="363.725" y="800" type="line"/>
      <point x="223.725" y="800" type="line"/>
    </contour>
  </outline>
</glyph>
<glyph name="Z" format="2">
  <advance width="404.95"/>
  <unicode hex="005A"/>
  <outline>
    <contour>
      <point x="41.225" y="0" type="line"/>
      <point x="181.225" y="0" type="line"/>
      <point x="181.225" y="200" type="line"/>
      <point x="41.225" y="200" type="line"/>
    </contour>
    <contour>
      <point x="41.225" y="100.0" type="line"/>
      <point x="181.225" y="100.0" type="line"/>
      <point x="181.225" y="300.0" type="line"/>
      <point x="41.225" y="300.0" type="line"/>
    </contour>
    <contour>
      <point x="181.225" y="470.0" type="line"/>
      <point x="103.9569" y="470.0"/>
      <point x="41.225" y="407.2681"/>
      <point x="41.225" y="330.0" type="curve"/>
      <point x="181.225" y="330.0" type="line"/>
    </contour>
    <contour>
      <point x="41.225" y="300.0" type="line"/>
      <point x="181.225" y="300.0" type="line"/>
      <point x="181.225" y="330.0" type="line"/>
      <point x="41.225" y="330.0" type="line"/>
    </contour>
    <contour>
      <point x="41.225" y="660.0" type="line"/>
      <point x="118.4931" y="660.0"/>
      <point x="181.225" y="722.7319"/>
      <point x="181.225" y="800.0" type="curve"/>
      <point x="41.225" y="800.0" type="line"/>
    </contour>
    <contour>
      <point x="363.725" y="140.0" type="line"/>
      <point x="286.4569" y="140.0"/>
      <point x="223.725" y="77.2681"/>
      <point x="223.725" y="0.0" type="curve"/>
      <point x="363.725" y="0.0" type="line"/>
    </contour>
    <contour>
      <point x="223.725" y="330.0" type="line"/>
      <point x="300.9931" y="330.0"/>
      <point x="363.725" y="392.7319"/>
      <point x="363.725" y="470.0" type="curve"/>
      <point x="223.725" y="470.0" type="line"/>
    </contour>
    <contour>
      <point x="223.725" y="470.0" type="line"/>
      <point x="363.725" y="470.0" type="line"/>
      <point x="363.725" y="500.0" type="line"/>
      <point x="223.725" y="500.0" type="line"/>
    </contour>
    <contour>
      <point x="223.725" y="500.0" type="line"/>
      <point x="363.725" y="500.0" type="line"/>
      <point x="363.725" y="700.0" type="line"/>
      <point x="223.725" y="700.0" type="line"/>
    </contour>
    <contour>
      <point x="223.725" y="600" type="line"/>
      <point x="363.725" y="600" type="line"/>
      <point x="363.725" y="800" type="line"/>
      <point x="223.725" y="800" type="line"/>
    </contour>
  </outline>
</glyph>
<glyph name="bracketleft" format="2">
  <advance width="362.45"/>
  <unicode hex="005B"/>
  <outline>
    <contour>
      <point x="41.225" y="-100.0" type="line"/>
      <point x="181.225" y="-100.0" type="line"/>
      <point x="181.225" y="100.0" type="line"/>
      <point x="41.225" y="100.0" type="line"/>
    </contour>
    <contour>
      <point x="41.225" y="100.0" type="line"/>
      <point x="181.225" y="100.0" type="line"/>
      <point x="181.225" y="300.0" type="line"/>
      <point x="41.225" y="300.0" type="line"/>
    </contour>
    <contour>
      <point x="41.225" y="300.0" type="line"/>
      <point x="181.225" y="300.0" type="line"/>
      <point x="181.225" y="500.0" type="line"/>
      <point x="41.225" y="500.0" type="line"/>
    </contour>
    <contour>
      <point x="41.225" y="500.0" type="line"/>
      <point x="181.225" y="500.0" type="line"/>
      <point x="181.225" y="700.0" type="line"/>
      <point x="41.225" y="700.0" type="line"/>
    </contour>
    <contour>
      <point x="41.225" y="700.0" type="line"/>
      <point x="181.225" y="700.0" type="line"/>
      <point x="181.225" y="900.0" type="line"/>
      <point x="41.225" y="900.0" type="line"/>
    </contour>
    <contour>
      <point x="321.225" y="-100.0" type="line"/>
      <point x="321.225" y="-22.7319"/>
      <point x="258.4931" y="40.0"/>
      <point x="181.225" y="40.0" type="curve"/>
      <point x="181.225" y="-100.0" type="line"/>
    </contour>
    <contour>
      <point x="181.225" y="760.0" type="line"/>
      <point x="258.4931" y="760.0"/>
      <point x="321.225" y="822.7319"/>
      <point x="321.225" y="900.0" type="curve"/>
      <point x="181.225" y="900.0" type="line"/>
    </contour>
  </outline>
</glyph>
<glyph name="backslash" format="2">
  <advance width="435.57105493489354"/>
  <unicode hex="005C"/>
  <outline>
    <contour>
      <point x="227.36306798676847" y="33.382664461156764" type="line"/>
      <point x="244.0869457204992" y="-42.05387304658694"/>
      <point x="318.90951742714986" y="-89.72110831803025"/>
      <point x="394.3460549348936" y="-72.99723058429947" type="curve"/>
      <point x="364.0445089835592" y="63.68421041249121" type="line"/>
    </contour>
    <contour>
      <point x="227.36306798676847" y="33.382664461156764" type="line"/>
      <point x="364.0445089835592" y="63.68421041249121" type="line"/>
      <point x="351.058132147273" y="122.2619708396872" type="line"/>
      <point x="214.3766911504823" y="91.96042488835275" type="line"/>
    </contour>
    <contour>
      <point x="214.3766911504823" y="91.96042488835275" type="line"/>
      <point x="351.058132147273" y="122.2619708396872" type="line"/>
      <point x="307.7702093596524" y="317.52117226367386" type="line"/>
      <point x="171.0887683628617" y="287.21962631233947" type="line"/>
    </contour>
    <contour>
      <point x="171.0887683628617" y="287.21962631233947" type="line"/>
      <point x="307.7702093596524" y="317.52117226367386" type="line"/>
      <point x="264.48228657203185" y="512.7803736876606" type="line"/>
      <point x="127.80084557524114" y="482.47882773632614" type="line"/>
    </contour>
    <contour>
      <point x="127.80084557524114" y="482.47882773632614" type="line"/>
      <point x="264.48228657203185" y="512.7803736876606" type="line"/>
      <point x="221.19436378441125" y="708.0395751116473" type="line"/>
      <point x="84.51292278762057" y="677.7380291603129" type="line"/>
    </contour>
    <contour>
      <point x="208.20798694812507" y="766.6173355388432" type="line"/>
      <point x="191.48410921439435" y="842.0538730465869"/>
      <point x="116.66153750774373" y="889.7211083180302"/>
      <point x="41.225" y="872.9972305842995" type="curve"/>
      <point x="71.52654595133438" y="736.3157895875088" type="line"/>
    </contour>
    <contour>
      <point x="84.51292278762057" y="677.7380291603129" type="line"/>
      <point x="221.19436378441125" y="708.0395751116473" type="line"/>
      <point x="208.20798694812507" y="766.6173355388432" type="line"/>
      <point x="71.52654595133438" y="736.3157895875088" type="line"/>
    </contour>
  </outline>
</glyph>
<glyph name="bracketright" format="2">
  <advance width="362.45"/>
  <unicode hex="005D"/>
  <outline>
    <contour>
      <point x="181.225" y="40.0" type="line"/>
      <point x="103.95689999999999" y="40.0"/>
      <point x="41.225" y="-22.7319"/>
      <point x="41.225" y="-100.0" type="curve"/>
      <point x="181.225" y="-100.0" type="line"/>
    </contour>
    <contour>
      <point x="41.225" y="900.0" type="line"/>
      <point x="41.225" y="822.7319"/>
      <point x="103.95689999999999" y="760.0"/>
      <point x="181.225" y="760.0" type="curve"/>
      <point x="181.225" y="900.0" type="line"/>
    </contour>
    <contour>
      <point x="181.225" y="-100.0" type="line"/>
      <point x="321.225" y="-100.0" type="line"/>
      <point x="321.225" y="100.0" type="line"/>
      <point x="181.225" y="100.0" type="line"/>
    </contour>
    <contour>
      <point x="181.225" y="100.0" type="line"/>
      <point x="321.225" y="100.0" type="line"/>
      <point x="321.225" y="300.0" type="line"/>
      <point x="181.225" y="300.0" type="line"/>
    </contour>
    <contour>
      <point x="181.225" y="300.0" type="line"/>
      <point x="321.225" y="300.0" type="line"/>
      <point x="321.225" y="500.0" type="line"/>
      <point x="181.225" y="500.0" type="line"/>
    </contour>
    <contour>
      <point x="181.225" y="500.0" type="line"/>
      <point x="321.225" y="500.0" type="line"/>
      <point x="321.225" y="700.0" type="line"/>
      <point x="181.225" y="700.0" type="line"/>
    </contour>
    <contour>
      <point x="181.225" y="700.0" type="line"/>
      <point x="321.225" y="700.0" type="line"/>
      <point x="321.225" y="900.0" type="line"/>
      <point x="181.225" y="900.0" type="line"/>
    </contour>
  </outline>
</glyph>
<glyph name="asciicircum" format="2">
  <advance width="362.45"/>
  <unicode hex="005E"/>
  <outline>
    <contour>
      <point x="41.225" y="700.0" type="line"/>
      <point x="118.4931" y="700.0"/>
      <point x="181.225" y="762.7319"/>
      <point x="181.225" y="840.0" type="curve"/>
      <point x="41.225" y="840.0" type="line"/>
    </contour>
    <contour>
      <point x="181.225" y="840.0" type="line"/>
      <point x="181.225" y="762.7319"/>
      <point x="243.9569" y="700.0"/>
      <point x="321.225" y="700.0" type="curve"/>
      <point x="321.225" y="840.0" type="line"/>
    </contour>
  </outline>
</glyph>
<glyph name="d" format="2">
  <advance width="404.95"/>
  <unicode hex="0064"/>
  <outline>
    <contour>
      <point x="41.225" y="140.0" type="line"/>
      <point x="41.225" y="62.7319"/>
      <point x="103.9569" y="0.0"/>
      <point x="181.225" y="0.0" type="curve"/>
      <point x="181.225" y="140.0" type="line"/>
    </contour>
    <contour>
      <point x="41.225" y="140.0" type="line"/>
      <point x="181.225" y="140.0" type="line"/>
      <point x="181.225" y="200.0" type="line"/>
      <point x="41.225" y="200.0" type="line"/>
    </contour>
    <contour>
      <point x="41.225" y="200" type="line"/>
      <point x="181.225" y="200" type="line"/>
      <point x="181.225" y="405.0" type="line"/>
      <point x="41.225" y="405.0" type="line"/>
    </contour>
    <contour>
      <point x="181.225" y="605.0" type="line"/>
      <point x="103.9569" y="605.0"/>
      <point x="41.225" y="542.2681"/>
      <point x="41.225" y="465.0" type="curve"/>
      <point x="181.225" y="465.0" type="line"/>
    </contour>
    <contour>
      <point x="41.225" y="405.0" type="line"/>
      <point x="181.225" y="405.0" type="line"/>
      <point x="181.225" y="465.0" type="line"/>
      <point x="41.225" y="465.0" type="line"/>
    </contour>
    <contour>
      <point x="223.725" y="0" type="line"/>
      <point x="363.725" y="0" type="line"/>
      <point x="363.725" y="200" type="line"/>
      <point x="223.725" y="200" type="line"/>
    </contour>
    <contour>
      <point x="223.725" y="200" type="line"/>
      <point x="363.725" y="200" type="line"/>
      <point x="363.725" y="400" type="line"/>
      <point x="223.725" y="400" type="line"/>
    </contour>
    <contour>
      <point x="223.725" y="400" type="line"/>
      <point x="363.725" y="400" type="line"/>
      <point x="363.725" y="600" type="line"/>
      <point x="223.725" y="600" type="line"/>
    </contour>
    <contour>
      <point x="223.725" y="600" type="line"/>
      <point x="363.725" y="600" type="line"/>
      <point x="363.725" y="800" type="line"/>
      <point x="223.725" y="800" type="line"/>
    </contour>
  </outline>
</glyph>
<glyph name="l" format="2">
  <advance width="222.45"/>
  <unicode hex="006C"/>
  <outline>
    <contour>
      <point x="41.225" y="135.0" type="line"/>
      <point x="41.225" y="57.7319"/>
      <point x="103.9569" y="-5.0"/>
      <point x="181.225" y="-5.0" type="curve"/>
      <point x="181.225" y="135.0" type="line"/>
    </contour>
    <contour>
      <point x="41.225" y="135.0" type="line"/>
      <point x="181.225" y="135.0" type="line"/>
      <point x="181.225" y="195.0" type="line"/>
      <point x="41.225" y="195.0" type="line"/>
    </contour>
    <contour>
      <point x="41.225" y="195.0" type="line"/>
      <point x="181.225" y="195.0" type="line"/>
      <point x="181.225" y="400.0" type="line"/>
      <point x="41.225" y="400.0" type="line"/>
    </contour>
    <contour>
      <point x="41.225" y="400" type="line"/>
      <point x="181.225" y="400" type="line"/>
      <point x="181.225" y="600" type="line"/>
      <point x="41.225" y="600" type="line"/>
    </contour>
    <contour>
      <point x="41.225" y="600" type="line"/>
      <point x="181.225" y="600" type="line"/>
      <point x="181.225" y="800" type="line"/>
      <point x="41.225" y="800" type="line"/>
    </contour>
  </outline>
</glyph>
<glyph name="o" format="2">
  <advance width="404.95"/>
  <unicode hex="006F"/>
  <outline>
    <contour>
      <point x="41.225" y="135.0" type="line"/>
      <point x="41.225" y="57.7319"/>
      <point x="103.9569" y="-5.0"/>
      <point x="181.225" y="-5.0" type="curve"/>
      <point x="181.225" y="135.0" type="line"/>
    </contour>
    <contour>
      <point x="41.225" y="135.0" type="line"/>
      <point x="181.225" y="135.0" type="line"/>
      <point x="181.225" y="195.0" type="line"/>
      <point x="41.225" y="195.0" type="line"/>
    </contour>
    <contour>
      <point x="41.225" y="195.0" type="line"/>
      <point x="181.225" y="195.0" type="line"/>
      <point x="181.225" y="405.0" type="line"/>
      <point x="41.225" y="405.0" type="line"/>
    </contour>
    <contour>
      <point x="181.225" y="605.0" type="line"/>
      <point x="103.9569" y="605.0"/>
      <point x="41.225" y="542.2681"/>
      <point x="41.225" y="465.0" type="curve"/>
      <point x="181.225" y="465.0" type="line"/>
    </contour>
    <contour>
      <point x="41.225" y="405.0" type="line"/>
      <point x="181.225" y="405.0" type="line"/>
      <point x="181.225" y="465.0" type="line"/>
      <point x="41.225" y="465.0" type="line"/>
    </contour>
    <contour>
      <point x="223.725" y="-5.0" type="line"/>
      <point x="300.9931" y="-5.0"/>
      <point x="363.725" y="57.7319"/>
      <point x="363.725" y="135.0" type="curve"/>
      <point x="223.725" y="135.0" type="line"/>
    </contour>
    <contour>
      <point x="223.725" y="135.0" type="line"/>
      <point x="363.725" y="135.0" type="line"/>
      <point x="363.725" y="195.0" type="line"/>
      <point x="223.725" y="195.0" type="line"/>
    </contour>
    <contour>
      <point x="223.725" y="195.0" type="line"/>
      <point x="363.725" y="195.0" type="line"/>
      <point x="363.725" y="405.0" type="line"/>
      <point x="223.725" y="405.0" type="line"/>
    </contour>
    <contour>
      <point x="363.725" y="465.0" type="line"/>
      <point x="363.725" y="542.2681"/>
      <point x="300.9931" y="605.0"/>
      <point x="223.725" y="605.0" type="curve"/>
      <point x="223.725" y="465.0" type="line"/>
    </contour>
    <contour>
      <point x="223.725" y="405.0" type="line"/>
      <point x="363.725" y="405.0" type="line"/>
      <point x="363.725" y="465.0" type="line"/>
      <point x="223.725" y="465.0" type="line"/>
    </contour>
  </outline>
</glyph>
<glyph name="r" format="2">
  <advance width="404.95"/>
  <unicode hex="0072"/>
  <outline>
    <contour>
      <point x="41.225" y="0" type="line"/>
      <point x="181.225" y="0" type="line"/>
      <point x="181.225" y="200" type="line"/>
      <point x="41.225" y="200" type="line"/>
    </contour>
    <contour>
      <point x="41.225" y="200" type="line"/>
      <point x="181.225" y="200" type="line"/>
      <point x="181.225" y="400" type="line"/>
      <point x="41.225" y="400" type="line"/>
    </contour>
    <contour>
      <point x="41.225" y="400" type="line"/>
      <point x="181.225" y="400" type="line"/>
      <point x="181.225" y="600" type="line"/>
      <point x="41.225" y="600" type="line"/>
    </contour>
    <contour>
      <point x="368.725" y="530.0" type="curve" smooth="yes"/>
      <point x="368.725" y="571.39363"/>
      <point x="335.11863" y="605.0"/>
      <point x="293.725" y="605.0" type="curve" smooth="yes"/>
      <point x="252.33137" y="605.0"/>
      <point x="218.725" y="571.39363"/>
      <point x="218.725" y="530.0" type="curve" smooth="yes"/>
      <point x="218.725" y="488.60637"/>
      <point x="252.33137" y="455.0"/>
      <point x="293.725" y="455.0" type="curve" smooth="yes"/>
      <point x="335.11863" y="455.0"/>
      <point x="368.725" y="488.60637"/>
    </contour>
  </outline>
</glyph>
<glyph name="s" format="2">
  <advance width="404.95"/>
  <unicode hex="0073"/>
  <outline>
    <contour>
      <point x="183.4125" y="0" type="line"/>
      <point x="183.4125" y="77.2681"/>
      <point x="120.6806" y="140.0"/>
      <point x="43.4125" y="140.0" type="curve"/>
      <point x="43.4125" y="0" type="line"/>
    </contour>
    <contour>
      <point x="41.225" y="370.0" type="line"/>
      <point x="41.225" y="292.7319"/>
      <point x="103.9569" y="230.0"/>
      <point x="181.225" y="230.0" type="curve"/>
      <point x="181.225" y="370.0" type="line"/>
    </contour>
    <contour>
      <point x="41.225" y="370.0" type="line"/>
      <point x="181.225" y="370.0" type="line"/>
      <point x="181.225" y="400.0" type="line"/>
      <point x="41.225" y="400.0" type="line"/>
    </contour>
    <contour>
      <point x="181.225" y="600.0" type="line"/>
      <point x="103.9569" y="600.0"/>
      <point x="41.225" y="537.2681"/>
      <point x="41.225" y="460.0" type="curve"/>
      <point x="181.225" y="460.0" type="line"/>
    </contour>
    <contour>
      <point x="41.225" y="400" type="line"/>
      <point x="181.225" y="400" type="line"/>
      <point x="181.225" y="460.0" type="line"/>
      <point x="41.225" y="460.0" type="line"/>
    </contour>
    <contour>
      <point x="223.725" y="-5.0" type="line"/>
      <point x="300.9931" y="-5.0"/>
      <point x="363.725" y="57.7319"/>
      <point x="363.725" y="135.0" type="curve"/>
      <point x="223.725" y="135.0" type="line"/>
    </contour>
    <contour>
      <point x="223.725" y="135.0" type="line"/>
      <point x="363.725" y="135.0" type="line"/>
      <point x="363.725" y="195.0" type="line"/>
      <point x="223.725" y="195.0" type="line"/>
    </contour>
    <contour>
      <point x="363.725" y="225.0" type="line"/>
      <point x="363.725" y="302.2681"/>
      <point x="300.9931" y="365.0"/>
      <point x="223.725" y="365.0" type="curve"/>
      <point x="223.725" y="225.0" type="line"/>
    </contour>
    <contour>
      <point x="223.725" y="195.0" type="line"/>
      <point x="363.725" y="195.0" type="line"/>
      <point x="363.725" y="225.0" type="line"/>
      <point x="223.725" y="225.0" type="line"/>
    </contour>
    <contour>
      <point x="219.35" y="600.0" type="line"/>
      <point x="219.35" y="522.7319"/>
      <point x="282.0819" y="460.0"/>
      <point x="359.35" y="460.0" type="curve"/>
      <point x="359.35" y="600.0" type="line"/>
    </contour>
  </outline>
</glyph>
<glyph name="t" format="2">
  <advance width="404.95"/>
  <unicode hex="0074"/>
  <outline>
    <contour>
      <point x="41.225" y="0" type="line"/>
      <point x="181.225" y="0" type="line"/>
      <point x="181.225" y="200" type="line"/>
      <point x="41.225" y="200" type="line"/>
    </contour>
    <contour>
      <point x="41.225" y="200" type="line"/>
      <point x="181.225" y="200" type="line"/>
      <point x="181.225" y="400" type="line"/>
      <point x="41.225" y="400" type="line"/>
    </contour>
    <contour>
      <point x="41.225" y="400" type="line"/>
      <point x="181.225" y="400" type="line"/>
      <point x="181.225" y="600" type="line"/>
      <point x="41.225" y="600" type="line"/>
    </contour>
    <contour>
      <point x="181.225" y="800.0" type="line"/>
      <point x="103.9569" y="800.0"/>
      <point x="41.225" y="737.2681"/>
      <point x="41.225" y="660.0" type="curve"/>
      <point x="181.225" y="660.0" type="line"/>
    </contour>
    <contour>
      <point x="41.225" y="600" type="line"/>
      <point x="181.225" y="600" type="line"/>
      <point x="181.225" y="660.0" type="line"/>
      <point x="41.225" y="660.0" type="line"/>
    </contour>
    <contour>
      <point x="223.725" y="460.0" type="line"/>
      <point x="300.9931" y="460.0"/>
      <point x="363.725" y="522.7319"/>
      <point x="363.725" y="600.0" type="curve"/>
      <point x="223.725" y="600.0" type="line"/>
    </contour>
  </outline>
</glyph>
<glyph name="w" format="2">
  <advance width="587.45"/>
  <unicode hex="0077"/>
  <outline>
    <contour>
      <point x="41.225" y="140.0" type="line"/>
      <point x="41.225" y="62.7319"/>
      <point x="103.9569" y="0.0"/>
      <point x="181.225" y="0.0" type="curve"/>
      <point x="181.225" y="140.0" type="line"/>
    </contour>
    <contour>
      <point x="41.225" y="140.0" type="line"/>
      <point x="181.225" y="140.0" type="line"/>
      <point x="181.225" y="200.0" type="line"/>
      <point x="41.225" y="200.0" type="line"/>
    </contour>
    <contour>
      <point x="41.225" y="200" type="line"/>
      <point x="181.225" y="200" type="line"/>
      <point x="181.225" y="400" type="line"/>
      <point x="41.225" y="400" type="line"/>
    </contour>
    <contour>
      <point x="181.225" y="460.0" type="line"/>
      <point x="181.225" y="537.2681"/>
      <point x="118.4931" y="600.0"/>
      <point x="41.225" y="600.0" type="curve"/>
      <point x="41.225" y="460.0" type="line"/>
    </contour>
    <contour>
      <point x="41.225" y="400" type="line"/>
      <point x="181.225" y="400" type="line"/>
      <point x="181.225" y="460.0" type="line"/>
      <point x="41.225" y="460.0" type="line"/>
    </contour>
    <contour>
      <point x="223.725" y="0" type="line"/>
      <point x="363.725" y="0" type="line"/>
      <point x="363.725" y="200" type="line"/>
      <point x="223.725" y="200" type="line"/>
    </contour>
    <contour>
      <point x="223.725" y="200" type="line"/>
      <point x="363.725" y="200" type="line"/>
      <point x="363.725" y="400" type="line"/>
      <point x="223.725" y="400" type="line"/>
    </contour>
    <contour>
      <point x="363.725" y="460.0" type="line"/>
      <point x="363.725" y="537.2681"/>
      <point x="300.9931" y="600.0"/>
      <point x="223.725" y="600.0" type="curve"/>
      <point x="223.725" y="460.0" type="line"/>
    </contour>
    <contour>
      <point x="223.725" y="400" type="line"/>
      <point x="363.725" y="400" type="line"/>
      <point x="363.725" y="460.0" type="line"/>
      <point x="223.725" y="460.0" type="line"/>
    </contour>
    <contour>
      <point x="406.225" y="0.0" type="line"/>
      <point x="483.4931" y="0.0"/>
      <point x="546.225" y="62.7319"/>
      <point x="546.225" y="140.0" type="curve"/>
      <point x="406.225" y="140.0" type="line"/>
    </contour>
    <contour>
      <point x="406.225" y="140.0" type="line"/>
      <point x="546.225" y="140.0" type="line"/>
      <point x="546.225" y="200.0" type="line"/>
      <point x="406.225" y="200.0" type="line"/>
    </contour>
    <contour>
      <point x="406.225" y="200" type="line"/>
      <point x="546.225" y="200" type="line"/>
      <point x="546.225" y="400" type="line"/>
      <point x="406.225" y="400" type="line"/>
    </contour>
    <contour>
      <point x="406.225" y="400" type="line"/>
      <point x="546.225" y="400" type="line"/>
      <point x="546.225" y="600" type="line"/>
      <point x="406.225" y="600" type="line"/>
    </contour>
  </outline>
</glyph>
<glyph name="x" format="2">
  <advance width="404.95"/>
  <unicode hex="0078"/>
  <outline>
    <contour>
      <point x="41.225" y="0" type="line"/>
      <point x="181.225" y="0" type="line"/>
      <point x="181.225" y="100.0" type="line"/>
      <point x="41.225" y="100.0" type="line"/>
    </contour>
    <contour>
      <point x="181.225" y="300.0" type="line"/>
      <point x="103.9569" y="300.0"/>
      <point x="41.225" y="237.2681"/>
      <point x="41.225" y="160.0" type="curve"/>
      <point x="181.225" y="160.0" type="line"/>
    </contour>
    <contour>
      <point x="41.225" y="100.0" type="line"/>
      <point x="181.225" y="100.0" type="line"/>
      <point x="181.225" y="160.0" type="line"/>
      <point x="41.225" y="160.0" type="line"/>
    </contour>
    <contour>
      <point x="41.225" y="440.0" type="line"/>
      <point x="41.225" y="362.7319"/>
      <point x="103.9569" y="300.0"/>
      <point x="181.225" y="300.0" type="curve"/>
      <point x="181.225" y="440.0" type="line"/>
    </contour>
    <contour>
      <point x="41.225" y="440.0" type="line"/>
      <point x="181.225" y="440.0" type="line"/>
      <point x="181.225" y="500.0" type="line"/>
      <point x="41.225" y="500.0" type="line"/>
    </contour>
    <contour>
      <point x="41.225" y="500.0" type="line"/>
      <point x="181.225" y="500.0" type="line"/>
      <point x="181.225" y="600.0" type="line"/>
      <point x="41.225" y="600.0" type="line"/>
    </contour>
    <contour>
      <point x="223.725" y="0" type="line"/>
      <point x="363.725" y="0" type="line"/>
      <point x="363.725" y="100.0" type="line"/>
      <point x="223.725" y="100.0" type="line"/>
    </contour>
    <contour>
      <point x="363.725" y="160.0" type="line"/>
      <point x="363.725" y="237.2681"/>
      <point x="300.9931" y="300.0"/>
      <point x="223.725" y="300.0" type="curve"/>
      <point x="223.725" y="160.0" type="line"/>
    </contour>
    <contour>
      <point x="223.725" y="100.0" type="line"/>
      <point x="363.725" y="100.0" type="line"/>
      <point x="363.725" y="160.0" type="line"/>
      <point x="223.725" y="160.0" type="line"/>
    </contour>
    <contour>
      <point x="223.725" y="300.0" type="line"/>
      <point x="300.9931" y="300.0"/>
      <point x="363.725" y="362.7319"/>
      <point x="363.725" y="440.0" type="curve"/>
      <point x="223.725" y="440.0" type="line"/>
    </contour>
    <contour>
      <point x="223.725" y="440.0" type="line"/>
      <point x="363.725" y="440.0" type="line"/>
      <point x="363.725" y="500.0" type="line"/>
      <point x="223.725" y="500.0" type="line"/>
    </contour>
    <contour>
      <point x="223.725" y="500.0" type="line"/>
      <point x="363.725" y="500.0" type="line"/>
      <point x="363.725" y="600.0" type="line"/>
      <point x="223.725" y="600.0" type="line"/>
    </contour>
  </outline>
</glyph>
<glyph name="z" format="2">
  <advance width="404.95"/>
  <unicode hex="007A"/>
  <outline>
    <contour>
      <point x="41.225" y="0" type="line"/>
      <point x="181.225" y="0" type="line"/>
      <point x="181.225" y="200" type="line"/>
      <point x="41.225" y="200" type="line"/>
    </contour>
    <contour>
      <point x="181.225" y="370.0" type="line"/>
      <point x="103.9569" y="370.0"/>
      <point x="41.225" y="307.2681"/>
      <point x="41.225" y="230.0" type="curve"/>
      <point x="181.225" y="230.0" type="line"/>
    </contour>
    <contour>
      <point x="41.225" y="200" type="line"/>
      <point x="181.225" y="200" type="line"/>
      <point x="181.225" y="230.0" type="line"/>
      <point x="41.225" y="230.0" type="line"/>
    </contour>
    <contour>
      <point x="41.225" y="460.0" type="line"/>
      <point x="118.4931" y="460.0"/>
      <point x="181.225" y="522.7319"/>
      <point x="181.225" y="600.0" type="curve"/>
      <point x="41.225" y="600.0" type="line"/>
    </contour>
    <contour>
      <point x="363.725" y="140.0" type="line"/>
      <point x="286.4569" y="140.0"/>
      <point x="223.725" y="77.2681"/>
      <point x="223.725" y="0.0" type="curve"/>
      <point x="363.725" y="0.0" type="line"/>
    </contour>
    <contour>
      <point x="223.725" y="230.0" type="line"/>
      <point x="300.9931" y="230.0"/>
      <point x="363.725" y="292.7319"/>
      <point x="363.725" y="370.0" type="curve"/>
      <point x="223.725" y="370.0" type="line"/>
    </contour>
    <contour>
      <point x="223.725" y="370.0" type="line"/>
      <point x="363.725" y="370.0" type="line"/>
      <point x="363.725" y="400.0" type="line"/>
      <point x="223.725" y="400.0" type="line"/>
    </contour>
    <contour>
      <point x="223.725" y="400" type="line"/>
      <point x="363.725" y="400" type="line"/>
      <point x="363.725" y="600" type="line"/>
      <point x="223.725" y="600" type="line"/>
    </contour>
  </outline>
</glyph>
<glyph name="braceleft" format="2">
  <advance width="222.45"/>
  <unicode hex="007B"/>
  <outline>
    <contour>
      <point x="41.225" y="40.0" type="line"/>
      <point x="41.225" y="-37.2681"/>
      <point x="103.9569" y="-100.0"/>
      <point x="181.225" y="-100.0" type="curve"/>
      <point x="181.225" y="40.0" type="line"/>
    </contour>
    <contour>
      <point x="41.225" y="40.0" type="line"/>
      <point x="181.225" y="40.0" type="line"/>
      <point x="181.225" y="100.0" type="line"/>
      <point x="41.225" y="100.0" type="line"/>
    </contour>
    <contour>
      <point x="41.225" y="100.0" type="line"/>
      <point x="181.225" y="100.0" type="line"/>
      <point x="181.225" y="200.0" type="line"/>
      <point x="41.225" y="200.0" type="line"/>
    </contour>
    <contour>
      <point x="181.225" y="260.0" type="line"/>
      <point x="181.225" y="337.2681"/>
      <point x="118.4931" y="400.0"/>
      <point x="41.225" y="400.0" type="curve"/>
      <point x="41.225" y="260.0" type="line"/>
    </contour>
    <contour>
      <point x="41.225" y="200" type="line"/>
      <point x="181.225" y="200" type="line"/>
      <point x="181.225" y="260.0" type="line"/>
      <point x="41.225" y="260.0" type="line"/>
    </contour>
    <contour>
      <point x="41.225" y="400.0" type="line"/>
      <point x="118.4931" y="400.0"/>
      <point x="181.225" y="462.7319"/>
      <point x="181.225" y="540.0" type="curve"/>
      <point x="41.225" y="540.0" type="line"/>
    </contour>
    <contour>
      <point x="41.225" y="540.0" type="line"/>
      <point x="181.225" y="540.0" type="line"/>
      <point x="181.225" y="600.0" type="line"/>
      <point x="41.225" y="600.0" type="line"/>
    </contour>
    <contour>
      <point x="41.225" y="600" type="line"/>
      <point x="181.225" y="600" type="line"/>
      <point x="181.225" y="700.0" type="line"/>
      <point x="41.225" y="700.0" type="line"/>
    </contour>
    <contour>
      <point x="181.225" y="900.0" type="line"/>
      <point x="103.9569" y="900.0"/>
      <point x="41.225" y="837.2681"/>
      <point x="41.225" y="760.0" type="curve"/>
      <point x="181.225" y="760.0" type="line"/>
    </contour>
    <contour>
      <point x="41.225" y="700.0" type="line"/>
      <point x="181.225" y="700.0" type="line"/>
      <point x="181.225" y="760.0" type="line"/>
      <point x="41.225" y="760.0" type="line"/>
    </contour>
  </outline>
</glyph>
<glyph name="tilde" format="2">
  <advance width="404.95"/>
  <unicode hex="007E"/>
  <outline>
    <contour>
      <point x="181.225" y="470.0" type="line"/>
      <point x="103.9569" y="470.0"/>
      <point x="41.225" y="407.2681"/>
      <point x="41.225" y="330.0" type="curve"/>
      <point x="181.225" y="330.0" type="line"/>
    </contour>
    <contour>
      <point x="181.225" y="330.0" type="line"/>
      <point x="223.725" y="330.0" type="line"/>
      <point x="223.725" y="470.0" type="line"/>
      <point x="181.225" y="470.0" type="line"/>
    </contour>
    <contour>
      <point x="223.725" y="330.0" type="line"/>
      <point x="300.9931" y="330.0"/>
      <point x="363.725" y="392.7319"/>
      <point x="363.725" y="470.0" type="curve"/>
      <point x="223.725" y="470.0" type="line"/>
    </contour>
  </outline>
</glyph>
<glyph name="invexclamation" format="2">
  <advance width="222.45"/>
  <unicode hex="00A1"/>
  <outline>
    <contour>
      <point x="41.225" y="-200" type="line"/>
      <point x="181.225" y="-200" type="line"/>
      <point x="181.225" y="0" type="line"/>
      <point x="41.225" y="0" type="line"/>
    </contour>
    <contour>
      <point x="41.225" y="0" type="line"/>
      <point x="181.225" y="0" type="line"/>
      <point x="181.225" y="200" type="line"/>
      <point x="41.225" y="200" type="line"/>
    </contour>
    <contour>
      <point x="41.225" y="200" type="line"/>
      <point x="181.225" y="200" type="line"/>
      <point x="181.225" y="400.0" type="line"/>
      <point x="41.225" y="400.0" type="line"/>
    </contour>
    <contour>
      <point x="186.225" y="536.25" type="curve" smooth="yes"/>
      <point x="186.225" y="577.64363"/>
      <point x="152.61863" y="611.25"/>
      <point x="111.225" y="611.25" type="curve" smooth="yes"/>
      <point x="69.83136999999999" y="611.25"/>
      <point x="36.225" y="577.64363"/>
      <point x="36.225" y="536.25" type="curve" smooth="yes"/>
      <point x="36.225" y="494.85637"/>
      <point x="69.83136999999999" y="461.25"/>
      <point x="111.225" y="461.25" type="curve" smooth="yes"/>
      <point x="152.61863" y="461.25"/>
      <point x="186.225" y="494.85637"/>
    </contour>
  </outline>
</glyph>
<glyph name="cent" format="2">
  <advance width="404.95"/>
  <unicode hex="00A2"/>
  <outline>
    <contour>
      <point x="111.225" y="0" type="line"/>
      <point x="181.225" y="0" type="line"/>
      <point x="181.225" y="100.0" type="line"/>
      <point x="111.225" y="100.0" type="line"/>
    </contour>
    <contour>
      <point x="111.225" y="100.0" type="line"/>
      <point x="181.225" y="100.0" type="line"/>
      <point x="181.225" y="200.0" type="line"/>
      <point x="111.225" y="200.0" type="line"/>
    </contour>
    <contour>
      <point x="41.225" y="240.0" type="line"/>
      <point x="41.225" y="162.7319"/>
      <point x="103.9569" y="100.0"/>
      <point x="181.225" y="100.0" type="curve"/>
      <point x="181.225" y="240.0" type="line"/>
    </contour>
    <contour>
      <point x="41.225" y="240.0" type="line"/>
      <point x="181.225" y="240.0" type="line"/>
      <point x="181.225" y="300.0" type="line"/>
      <point x="41.225" y="300.0" type="line"/>
    </contour>
    <contour>
      <point x="181.225" y="500.0" type="line"/>
      <point x="103.9569" y="500.0"/>
      <point x="41.225" y="437.2681"/>
      <point x="41.225" y="360.0" type="curve"/>
      <point x="181.225" y="360.0" type="line"/>
    </contour>
    <contour>
      <point x="41.225" y="300.0" type="line"/>
      <point x="181.225" y="300.0" type="line"/>
      <point x="181.225" y="360.0" type="line"/>
      <point x="41.225" y="360.0" type="line"/>
    </contour>
    <contour>
      <point x="111.225" y="400" type="line"/>
      <point x="181.225" y="400" type="line"/>
      <point x="181.225" y="500.0" type="line"/>
      <point x="111.225" y="500.0" type="line"/>
    </contour>
    <contour>
      <point x="111.225" y="500.0" type="line"/>
      <point x="181.225" y="500.0" type="line"/>
      <point x="181.225" y="600.0" type="line"/>
      <point x="111.225" y="600.0" type="line"/>
    </contour>
    <contour>
      <point x="223.725" y="0" type="line"/>
      <point x="293.725" y="0" type="line"/>
      <point x="293.725" y="100.0" type="line"/>
      <point x="223.725" y="100.0" type="line"/>
    </contour>
    <contour>
      <point x="363.725" y="240.0" type="line"/>
      <point x="286.4569" y="240.0"/>
      <point x="223.725" y="177.2681"/>
      <point x="223.725" y="100.0" type="curve"/>
      <point x="363.725" y="100.0" type="line"/>
    </contour>
    <contour>
      <point x="223.725" y="500.0" type="line"/>
      <point x="223.725" y="422.7319"/>
      <point x="286.4569" y="360.0"/>
      <point x="363.725" y="360.0" type="curve"/>
      <point x="363.725" y="500.0" type="line"/>
    </contour>
    <contour>
      <point x="223.725" y="500.0" type="line"/>
      <point x="293.725" y="500.0" type="line"/>
      <point x="293.725" y="600.0" type="line"/>
      <point x="223.725" y="600.0" type="line"/>
    </contour>
  </outline>
</glyph>
<glyph name="pound" format="2">
  <advance width="522.45"/>
  <unicode hex="00A3"/>
  <outline>
    <contour>
      <point x="41.225" y="0" type="line"/>
      <point x="111.225" y="0" type="line"/>
      <point x="111.225" y="70.0" type="line"/>
      <point x="41.225" y="70.0" type="line"/>
    </contour>
    <contour>
      <point x="41.225" y="365.0" type="line"/>
      <point x="111.225" y="365.0" type="line"/>
      <point x="111.225" y="435.0" type="line"/>
      <point x="41.225" y="435.0" type="line"/>
    </contour>
    <contour>
      <point x="153.725" y="0" type="line"/>
      <point x="293.725" y="0" type="line"/>
      <point x="293.725" y="200" type="line"/>
      <point x="153.725" y="200" type="line"/>
    </contour>
    <contour>
      <point x="153.725" y="200" type="line"/>
      <point x="293.725" y="200" type="line"/>
      <point x="293.725" y="400" type="line"/>
      <point x="153.725" y="400" type="line"/>
    </contour>
    <contour>
      <point x="153.725" y="400" type="line"/>
      <point x="293.725" y="400" type="line"/>
      <point x="293.725" y="605.0" type="line"/>
      <point x="153.725" y="605.0" type="line"/>
    </contour>
    <contour>
      <point x="293.725" y="805.0" type="line"/>
      <point x="216.4569" y="805.0"/>
      <point x="153.725" y="742.2681"/>
      <point x="153.725" y="665.0" type="curve"/>
      <point x="293.725" y="665.0" type="line"/>
    </contour>
    <contour>
      <point x="153.725" y="605.0" type="line"/>
      <point x="293.725" y="605.0" type="line"/>
      <point x="293.725" y="665.0" type="line"/>
      <point x="153.725" y="665.0" type="line"/>
    </contour>
    <contour>
      <point x="476.225" y="140.0" type="line"/>
      <point x="398.9569" y="140.0"/>
      <point x="336.225" y="77.2681"/>
      <point x="336.225" y="0.0" type="curve"/>
      <point x="476.225" y="0.0" type="line"/>
    </contour>
    <contour>
      <point x="336.225" y="365.0" type="line"/>
      <point x="406.225" y="365.0" type="line"/>
      <point x="406.225" y="435.0" type="line"/>
      <point x="336.225" y="435.0" type="line"/>
    </contour>
    <contour>
      <point x="371.225" y="365.0" type="line"/>
      <point x="441.225" y="365.0" type="line"/>
      <point x="441.225" y="435.0" type="line"/>
      <point x="371.225" y="435.0" type="line"/>
    </contour>
    <contour>
      <point x="481.225" y="730.0" type="curve" smooth="yes"/>
      <point x="481.225" y="771.39363"/>
      <point x="447.61863" y="805.0"/>
      <point x="406.225" y="805.0" type="curve" smooth="yes"/>
      <point x="364.83137000000005" y="805.0"/>
      <point x="331.225" y="771.39363"/>
      <point x="331.225" y="730.0" type="curve" smooth="yes"/>
      <point x="331.225" y="688.60637"/>
      <point x="364.83137000000005" y="655.0"/>
      <point x="406.225" y="655.0" type="curve" smooth="yes"/>
      <point x="447.61863" y="655.0"/>
      <point x="481.225" y="688.60637"/>
    </contour>
  </outline>
</glyph>
<glyph name="currency" format="2">
  <advance width="404.95"/>
  <unicode hex="00A4"/>
  <outline>
    <contour>
      <point x="41.225" y="370.0" type="line"/>
      <point x="41.225" y="292.7319"/>
      <point x="103.9569" y="230.0"/>
      <point x="181.225" y="230.0" type="curve"/>
      <point x="181.225" y="370.0" type="line"/>
    </contour>
    <contour>
      <point x="41.225" y="370.0" type="line"/>
      <point x="181.225" y="370.0" type="line"/>
      <point x="181.225" y="400.0" type="line"/>
      <point x="41.225" y="400.0" type="line"/>
    </contour>
    <contour>
      <point x="181.225" y="570.0" type="line"/>
      <point x="103.9569" y="570.0"/>
      <point x="41.225" y="507.2681"/>
      <point x="41.225" y="430.0" type="curve"/>
      <point x="181.225" y="430.0" type="line"/>
    </contour>
    <contour>
      <point x="41.225" y="400" type="line"/>
      <point x="181.225" y="400" type="line"/>
      <point x="181.225" y="430.0" type="line"/>
      <point x="41.225" y="430.0" type="line"/>
    </contour>
    <contour>
      <point x="41.225" y="215.0" type="line"/>
      <point x="111.225" y="215.0" type="line"/>
      <point x="111.225" y="285.0" type="line"/>
      <point x="41.225" y="285.0" type="line"/>
    </contour>
    <contour>
      <point x="41.225" y="515.0" type="line"/>
      <point x="111.225" y="515.0" type="line"/>
      <point x="111.225" y="585.0" type="line"/>
      <point x="41.225" y="585.0" type="line"/>
    </contour>
    <contour>
      <point x="223.725" y="230.0" type="line"/>
      <point x="300.9931" y="230.0"/>
      <point x="363.725" y="292.7319"/>
      <point x="363.725" y="370.0" type="curve"/>
      <point x="223.725" y="370.0" type="line"/>
    </contour>
    <contour>
      <point x="223.725" y="370.0" type="line"/>
      <point x="363.725" y="370.0" type="line"/>
      <point x="363.725" y="400.0" type="line"/>
      <point x="223.725" y="400.0" type="line"/>
    </contour>
    <contour>
      <point x="363.725" y="430.0" type="line"/>
      <point x="363.725" y="507.2681"/>
      <point x="300.9931" y="570.0"/>
      <point x="223.725" y="570.0" type="curve"/>
      <point x="223.725" y="430.0" type="line"/>
    </contour>
    <contour>
      <point x="223.725" y="400" type="line"/>
      <point x="363.725" y="400" type="line"/>
      <point x="363.725" y="430.0" type="line"/>
      <point x="223.725" y="430.0" type="line"/>
    </contour>
    <contour>
      <point x="293.725" y="215.0" type="line"/>
      <point x="363.725" y="215.0" type="line"/>
      <point x="363.725" y="285.0" type="line"/>
      <point x="293.725" y="285.0" type="line"/>
    </contour>
    <contour>
      <point x="293.725" y="515.0" type="line"/>
      <point x="363.725" y="515.0" type="line"/>
      <point x="363.725" y="585.0" type="line"/>
      <point x="293.725" y="585.0" type="line"/>
    </contour>
  </outline>
</glyph>
<glyph name="yen" format="2">
  <advance width="629.95"/>
  <unicode hex="00A5"/>
  <outline>
    <contour>
      <point x="41.225" y="390.0" type="line"/>
      <point x="111.225" y="390.0" type="line"/>
      <point x="111.225" y="460.0" type="line"/>
      <point x="41.225" y="460.0" type="line"/>
    </contour>
    <contour>
      <point x="41.225" y="540.0" type="line"/>
      <point x="111.225" y="540.0" type="line"/>
      <point x="111.225" y="610.0" type="line"/>
      <point x="41.225" y="610.0" type="line"/>
    </contour>
    <contour>
      <point x="153.725" y="340.0" type="line"/>
      <point x="153.725" y="262.7319"/>
      <point x="216.4569" y="200.0"/>
      <point x="293.725" y="200.0" type="curve"/>
      <point x="293.725" y="340.0" type="line"/>
    </contour>
    <contour>
      <point x="153.725" y="340.0" type="line"/>
      <point x="293.725" y="340.0" type="line"/>
      <point x="293.725" y="400.0" type="line"/>
      <point x="153.725" y="400.0" type="line"/>
    </contour>
    <contour>
      <point x="153.725" y="400" type="line"/>
      <point x="293.725" y="400" type="line"/>
      <point x="293.725" y="605.0" type="line"/>
      <point x="153.725" y="605.0" type="line"/>
    </contour>
    <contour>
      <point x="293.725" y="665.0" type="line"/>
      <point x="293.725" y="742.2681"/>
      <point x="230.9931" y="805.0"/>
      <point x="153.725" y="805.0" type="curve"/>
      <point x="153.725" y="665.0" type="line"/>
    </contour>
    <contour>
      <point x="153.725" y="605.0" type="line"/>
      <point x="293.725" y="605.0" type="line"/>
      <point x="293.725" y="665.0" type="line"/>
      <point x="153.725" y="665.0" type="line"/>
    </contour>
    <contour>
      <point x="336.225" y="-5.0" type="line"/>
      <point x="413.4931" y="-5.0"/>
      <point x="476.225" y="57.7319"/>
      <point x="476.225" y="135.0" type="curve"/>
      <point x="336.225" y="135.0" type="line"/>
    </contour>
    <contour>
      <point x="336.225" y="135.0" type="line"/>
      <point x="476.225" y="135.0" type="line"/>
      <point x="476.225" y="195.0" type="line"/>
      <point x="336.225" y="195.0" type="line"/>
    </contour>
    <contour>
      <point x="336.225" y="195.0" type="line"/>
      <point x="476.225" y="195.0" type="line"/>
      <point x="476.225" y="400.0" type="line"/>
      <point x="336.225" y="400.0" type="line"/>
    </contour>
    <contour>
      <point x="336.225" y="400" type="line"/>
      <point x="476.225" y="400" type="line"/>
      <point x="476.225" y="600" type="line"/>
      <point x="336.225" y="600" type="line"/>
    </contour>
    <contour>
      <point x="336.225" y="600" type="line"/>
      <point x="476.225" y="600" type="line"/>
      <point x="476.225" y="800" type="line"/>
      <point x="336.225" y="800" type="line"/>
    </contour>
    <contour>
      <point x="518.725" y="390.0" type="line"/>
      <point x="588.725" y="390.0" type="line"/>
      <point x="588.725" y="460.0" type="line"/>
      <point x="518.725" y="460.0" type="line"/>
    </contour>
    <contour>
      <point x="518.725" y="540.0" type="line"/>
      <point x="588.725" y="540.0" type="line"/>
      <point x="588.725" y="610.0" type="line"/>
      <point x="518.725" y="610.0" type="line"/>
    </contour>
  </outline>
</glyph>
<glyph name="brokenbar" format="2">
  <advance width="222.45"/>
  <unicode hex="00A6"/>
  <outline>
    <contour>
      <point x="41.225" y="-100.0" type="line"/>
      <point x="181.225" y="-100.0" type="line"/>
      <point x="181.225" y="100.0" type="line"/>
      <point x="41.225" y="100.0" type="line"/>
    </contour>
    <contour>
      <point x="41.225" y="100.0" type="line"/>
      <point x="181.225" y="100.0" type="line"/>
      <point x="181.225" y="300.0" type="line"/>
      <point x="41.225" y="300.0" type="line"/>
    </contour>
    <contour>
      <point x="41.225" y="500.0" type="line"/>
      <point x="181.225" y="500.0" type="line"/>
      <point x="181.225" y="700.0" type="line"/>
      <point x="41.225" y="700.0" type="line"/>
    </contour>
    <contour>
      <point x="41.225" y="700.0" type="line"/>
      <point x="181.225" y="700.0" type="line"/>
      <point x="181.225" y="900.0" type="line"/>
      <point x="41.225" y="900.0" type="line"/>
    </contour>
  </outline>
</glyph>
<glyph name="section" format="2">
  <advance width="404.95"/>
  <unicode hex="00A7"/>
  <outline>
    <contour>
      <point x="181.225" y="-200" type="line"/>
      <point x="181.225" y="-122.7319"/>
      <point x="118.4931" y="-60.0"/>
      <point x="41.225" y="-60.0" type="curve"/>
      <point x="41.225" y="-200" type="line"/>
    </contour>
    <contour>
      <point x="41.225" y="240.0" type="line"/>
      <point x="41.225" y="162.7319"/>
      <point x="103.9569" y="100.0"/>
      <point x="181.225" y="100.0" type="curve"/>
      <point x="181.225" y="240.0" type="line"/>
    </contour>
    <contour>
      <point x="41.225" y="240.0" type="line"/>
      <point x="181.225" y="240.0" type="line"/>
      <point x="181.225" y="300.0" type="line"/>
      <point x="41.225" y="300.0" type="line"/>
    </contour>
    <contour>
      <point x="181.225" y="500.0" type="line"/>
      <point x="103.9569" y="500.0"/>
      <point x="41.225" y="437.2681"/>
      <point x="41.225" y="360.0" type="curve"/>
      <point x="181.225" y="360.0" type="line"/>
    </contour>
    <contour>
      <point x="41.225" y="300.0" type="line"/>
      <point x="181.225" y="300.0" type="line"/>
      <point x="181.225" y="360.0" type="line"/>
      <point x="41.225" y="360.0" type="line"/>
    </contour>
    <contour>
      <point x="41.225" y="570.0" type="line"/>
      <point x="41.225" y="492.7319"/>
      <point x="103.9569" y="430.0"/>
      <point x="181.225" y="430.0" type="curve"/>
      <point x="181.225" y="570.0" type="line"/>
    </contour>
    <contour>
      <point x="41.225" y="570.0" type="line"/>
      <point x="181.225" y="570.0" type="line"/>
      <point x="181.225" y="600.0" type="line"/>
      <point x="41.225" y="600.0" type="line"/>
    </contour>
    <contour>
      <point x="181.225" y="800.0" type="line"/>
      <point x="103.9569" y="800.0"/>
      <point x="41.225" y="737.2681"/>
      <point x="41.225" y="660.0" type="curve"/>
      <point x="181.225" y="660.0" type="line"/>
    </contour>
    <contour>
      <point x="41.225" y="600" type="line"/>
      <point x="181.225" y="600" type="line"/>
      <point x="181.225" y="660.0" type="line"/>
      <point x="41.225" y="660.0" type="line"/>
    </contour>
    <contour>
      <point x="223.725" y="-200.0" type="line"/>
      <point x="300.9931" y="-200.0"/>
      <point x="363.725" y="-137.2681"/>
      <point x="363.725" y="-60.0" type="curve"/>
      <point x="223.725" y="-60.0" type="line"/>
    </contour>
    <contour>
      <point x="223.725" y="-60.0" type="line"/>
      <point x="363.725" y="-60.0" type="line"/>
      <point x="363.725" y="0.0" type="line"/>
      <point x="223.725" y="0.0" type="line"/>
    </contour>
    <contour>
      <point x="363.725" y="30.0" type="line"/>
      <point x="363.725" y="107.2681"/>
      <point x="300.9931" y="170.0"/>
      <point x="223.725" y="170.0" type="curve"/>
      <point x="223.725" y="30.0" type="line"/>
    </contour>
    <contour>
      <point x="223.725" y="0" type="line"/>
      <point x="363.725" y="0" type="line"/>
      <point x="363.725" y="30.0" type="line"/>
      <point x="223.725" y="30.0" type="line"/>
    </contour>
    <contour>
      <point x="223.725" y="100.0" type="line"/>
      <point x="300.9931" y="100.0"/>
      <point x="363.725" y="162.7319"/>
      <point x="363.725" y="240.0" type="curve"/>
      <point x="223.725" y="240.0" type="line"/>
    </contour>
    <contour>
      <point x="223.725" y="240.0" type="line"/>
      <point x="363.725" y="240.0" type="line"/>
      <point x="363.725" y="300.0" type="line"/>
      <point x="223.725" y="300.0" type="line"/>
    </contour>
    <contour>
      <point x="363.725" y="360.0" type="line"/>
      <point x="363.725" y="437.2681"/>
      <point x="300.9931" y="500.0"/>
      <point x="223.725" y="500.0" type="curve"/>
      <point x="223.725" y="360.0" type="line"/>
    </contour>
    <contour>
      <point x="223.725" y="300.0" type="line"/>
      <point x="363.725" y="300.0" type="line"/>
      <point x="363.725" y="360.0" type="line"/>
      <point x="223.725" y="360.0" type="line"/>
    </contour>
    <contour>
      <point x="223.725" y="800.0" type="line"/>
      <point x="223.725" y="722.7319"/>
      <point x="286.4569" y="660.0"/>
      <point x="363.725" y="660.0" type="curve"/>
      <point x="363.725" y="800.0" type="line"/>
    </contour>
  </outline>
</glyph>
<glyph name="copyright" format="2">
  <advance width="954.8433400000001"/>
  <unicode hex="00A9"/>
  <outline>
    <contour>
      <point x="307.42167" y="340.0" type="curve"/>
      <point x="447.42167000000006" y="340.0" type="line"/>
      <point x="447.42167000000006" y="200.0" type="line"/>
      <point x="370.15357000000006" y="200.0"/>
      <point x="307.42167" y="262.7319"/>
    </contour>
    <contour>
      <point x="307.42167" y="340.0" type="line"/>
      <point x="307.42167" y="400.0" type="line"/>
      <point x="447.42167000000006" y="400.0" type="line"/>
      <point x="447.42167000000006" y="340.0" type="line"/>
    </contour>
    <contour>
      <point x="447.42167000000006" y="605.0" type="curve"/>
      <point x="447.42167000000006" y="465.0" type="line"/>
      <point x="307.42167" y="465.0" type="line"/>
      <point x="307.42167" y="542.2681"/>
      <point x="370.15357000000006" y="605.0"/>
    </contour>
    <contour>
      <point x="307.42167" y="400" type="line"/>
      <point x="307.42167" y="465.0" type="line"/>
      <point x="447.42167000000006" y="465.0" type="line"/>
      <point x="447.42167000000006" y="400" type="line"/>
    </contour>
    <contour>
      <point x="627.7341700000001" y="340.0" type="curve"/>
      <point x="627.7341700000001" y="200.0" type="line"/>
      <point x="487.73417000000006" y="200.0" type="line"/>
      <point x="487.73417000000006" y="277.2681"/>
      <point x="550.4660700000001" y="340.0"/>
    </contour>
    <contour>
      <point x="629.9216700000001" y="540.0" type="curve" smooth="yes"/>
      <point x="629.9216700000001" y="501.36595"/>
      <point x="598.5557200000001" y="470.0"/>
      <point x="559.9216700000001" y="470.0" type="curve" smooth="yes"/>
      <point x="521.2876200000001" y="470.0"/>
      <point x="489.92167000000006" y="501.36595"/>
      <point x="489.92167000000006" y="540.0" type="curve" smooth="yes"/>
      <point x="489.92167000000006" y="578.63405"/>
      <point x="521.2876200000001" y="610.0"/>
      <point x="559.9216700000001" y="610.0" type="curve" smooth="yes"/>
      <point x="598.5557200000001" y="610.0"/>
      <point x="629.9216700000001" y="578.63405"/>
    </contour>
    <contour>
      <point x="843.6183400000001" y="405.0" type="curve" smooth="yes"/>
      <point x="843.6183400000001" y="607.10944"/>
      <point x="679.53111" y="771.19667"/>
      <point x="477.42167000000006" y="771.19667" type="curve" smooth="yes"/>
      <point x="275.31223" y="771.19667"/>
      <point x="111.225" y="607.10944"/>
      <point x="111.225" y="405.0" type="curve" smooth="yes"/>
      <point x="111.225" y="202.89056"/>
      <point x="275.31223" y="38.80333"/>
      <point x="477.42167000000006" y="38.80333" type="curve" smooth="yes"/>
      <point x="679.53111" y="38.80333"/>
      <point x="843.6183400000001" y="202.89056"/>
    </contour>
  </outline>
</glyph>
<glyph name="ordinalfeminine" format="2">
  <advance width="404.95"/>
  <unicode hex="00AA"/>
  <outline>
    <contour>
      <point x="41.225" y="540.0" type="line"/>
      <point x="41.225" y="462.7319"/>
      <point x="103.9569" y="400.0"/>
      <point x="181.225" y="400.0" type="curve"/>
      <point x="181.225" y="540.0" type="line"/>
    </contour>
    <contour>
      <point x="41.225" y="540.0" type="line"/>
      <point x="181.225" y="540.0" type="line"/>
      <point x="181.225" y="600.0" type="line"/>
      <point x="41.225" y="600.0" type="line"/>
    </contour>
    <contour>
      <point x="181.225" y="800.0" type="line"/>
      <point x="103.9569" y="800.0"/>
      <point x="41.225" y="737.2681"/>
      <point x="41.225" y="660.0" type="curve"/>
      <point x="181.225" y="660.0" type="line"/>
    </contour>
    <contour>
      <point x="41.225" y="600" type="line"/>
      <point x="181.225" y="600" type="line"/>
      <point x="181.225" y="660.0" type="line"/>
      <point x="41.225" y="660.0" type="line"/>
    </contour>
    <contour>
      <point x="223.725" y="540.0" type="line"/>
      <point x="223.725" y="462.7319"/>
      <point x="286.4569" y="400.0"/>
      <point x="363.725" y="400.0" type="curve"/>
      <point x="363.725" y="540.0" type="line"/>
    </contour>
    <contour>
      <point x="223.725" y="540.0" type="line"/>
      <point x="363.725" y="540.0" type="line"/>
      <point x="363.725" y="600.0" type="line"/>
      <point x="223.725" y="600.0" type="line"/>
    </contour>
    <contour>
      <point x="223.725" y="600" type="line"/>
      <point x="363.725" y="600" type="line"/>
      <point x="363.725" y="800" type="line"/>
      <point x="223.725" y="800" type="line"/>
    </contour>
  </outline>
</glyph>
<glyph name="angledblleft" format="2">
  <advance width="404.95"/>
  <unicode hex="00AB"/>
  <outline>
    <contour>
      <point x="41.225" y="400.0" type="line"/>
      <point x="41.225" y="322.7319"/>
      <point x="103.9569" y="260.0"/>
      <point x="181.225" y="260.0" type="curve"/>
      <point x="181.225" y="400.0" type="line"/>
    </contour>
    <contour>
      <point x="181.225" y="540.0" type="line"/>
      <point x="103.9569" y="540.0"/>
      <point x="41.225" y="477.2681"/>
      <point x="41.225" y="400.0" type="curve"/>
      <point x="181.225" y="400.0" type="line"/>
    </contour>
    <contour>
      <point x="223.725" y="400.0" type="line"/>
      <point x="223.725" y="322.7319"/>
      <point x="286.4569" y="260.0"/>
      <point x="363.725" y="260.0" type="curve"/>
      <point x="363.725" y="400.0" type="line"/>
    </contour>
    <contour>
      <point x="363.725" y="540.0" type="line"/>
      <point x="286.4569" y="540.0"/>
      <point x="223.725" y="477.2681"/>
      <point x="223.725" y="400.0" type="curve"/>
      <point x="363.725" y="400.0" type="line"/>
    </contour>
  </outline>
</glyph>
<glyph name="macron" format="2">
  <advance width="404.95"/>
  <unicode hex="00AF"/>
  <outline>
    <contour>
      <point x="62.475" y="800" type="line"/>
      <point x="202.475" y="800" type="line"/>
      <point x="202.475" y="940.0" type="line"/>
      <point x="62.475" y="940.0" type="line"/>
    </contour>
    <contour>
      <point x="202.475" y="800" type="line"/>
      <point x="342.475" y="800" type="line"/>
      <point x="342.475" y="940.0" type="line"/>
      <point x="202.475" y="940.0" type="line"/>
    </contour>
  </outline>
</glyph>
<glyph name="plus_minus" format="2">
  <advance width="587.45"/>
  <unicode hex="00B1"/>
  <outline>
    <contour>
      <point x="83.725" y="130.0" type="line"/>
      <point x="223.725" y="130.0" type="line"/>
      <point x="223.725" y="270.0" type="line"/>
      <point x="83.725" y="270.0" type="line"/>
    </contour>
    <contour>
      <point x="83.725" y="430.0" type="line"/>
      <point x="223.725" y="430.0" type="line"/>
      <point x="223.725" y="570.0" type="line"/>
      <point x="83.725" y="570.0" type="line"/>
    </contour>
    <contour>
      <point x="223.725" y="130.0" type="line"/>
      <point x="363.725" y="130.0" type="line"/>
      <point x="363.725" y="270.0" type="line"/>
      <point x="223.725" y="270.0" type="line"/>
    </contour>
    <contour>
      <point x="223.725" y="300.0" type="line"/>
      <point x="363.725" y="300.0" type="line"/>
      <point x="363.725" y="400.0" type="line"/>
      <point x="223.725" y="400.0" type="line"/>
    </contour>
    <contour>
      <point x="223.725" y="400" type="line"/>
      <point x="363.725" y="400" type="line"/>
      <point x="363.725" y="600" type="line"/>
      <point x="223.725" y="600" type="line"/>
    </contour>
    <contour>
      <point x="223.725" y="600" type="line"/>
      <point x="363.725" y="600" type="line"/>
      <point x="363.725" y="700.0" type="line"/>
      <point x="223.725" y="700.0" type="line"/>
    </contour>
    <contour>
      <point x="363.725" y="130.0" type="line"/>
      <point x="503.725" y="130.0" type="line"/>
      <point x="503.725" y="270.0" type="line"/>
      <point x="363.725" y="270.0" type="line"/>
    </contour>
    <contour>
      <point x="363.725" y="430.0" type="line"/>
      <point x="503.725" y="430.0" type="line"/>
      <point x="503.725" y="570.0" type="line"/>
      <point x="363.725" y="570.0" type="line"/>
    </contour>
  </outline>
</glyph>
<glyph name="sup_two" format="2">
  <advance width="404.95"/>
  <unicode hex="00B2"/>
  <outline>
    <contour>
      <point x="181.225" y="340.0" type="line"/>
      <point x="103.9569" y="340.0"/>
      <point x="41.225" y="277.2681"/>
      <point x="41.225" y="200.0" type="curve"/>
      <point x="181.225" y="200.0" type="line"/>
    </contour>
    <contour>
      <point x="181.225" y="200" type="line"/>
      <point x="223.725" y="200" type="line"/>
      <point x="223.725" y="340.0" type="line"/>
      <point x="181.225" y="340.0" type="line"/>
    </contour>
    <contour>
      <point x="190.6" y="730.0" type="curve" smooth="yes"/>
      <point x="190.6" y="771.39363"/>
      <point x="156.99363" y="805.0"/>
      <point x="115.6" y="805.0" type="curve" smooth="yes"/>
      <point x="74.20636999999999" y="805.0"/>
      <point x="40.6" y="771.39363"/>
      <point x="40.6" y="730.0" type="curve" smooth="yes"/>
      <point x="40.6" y="688.60637"/>
      <point x="74.20636999999999" y="655.0"/>
      <point x="115.6" y="655.0" type="curve" smooth="yes"/>
      <point x="156.99363" y="655.0"/>
      <point x="190.6" y="688.60637"/>
    </contour>
    <contour>
      <point x="223.725" y="200" type="line"/>
      <point x="363.725" y="200" type="line"/>
      <point x="363.725" y="340.0" type="line"/>
      <point x="223.725" y="340.0" type="line"/>
    </contour>
    <contour>
      <point x="223.725" y="369.0" type="line"/>
      <point x="300.9931" y="369.0"/>
      <point x="363.725" y="431.7319"/>
      <point x="363.725" y="509.0" type="curve"/>
      <point x="223.725" y="509.0" type="line"/>
    </contour>
    <contour>
      <point x="223.725" y="509.0" type="line"/>
      <point x="363.725" y="509.0" type="line"/>
      <point x="363.725" y="605.0" type="line"/>
      <point x="223.725" y="605.0" type="line"/>
    </contour>
    <contour>
      <point x="363.725" y="665.0" type="line"/>
      <point x="363.725" y="742.2681"/>
      <point x="300.9931" y="805.0"/>
      <point x="223.725" y="805.0" type="curve"/>
      <point x="223.725" y="665.0" type="line"/>
    </contour>
    <contour>
      <point x="223.725" y="605.0" type="line"/>
      <point x="363.725" y="605.0" type="line"/>
      <point x="363.725" y="665.0" type="line"/>
      <point x="223.725" y="665.0" type="line"/>
    </contour>
  </outline>
</glyph>
<glyph name="sup_three" format="2">
  <advance width="404.95"/>
  <unicode hex="00B3"/>
  <outline>
    <contour>
      <point x="186.225" y="270.0" type="curve" smooth="yes"/>
      <point x="186.225" y="311.39363"/>
      <point x="152.61863" y="345.0"/>
      <point x="111.225" y="345.0" type="curve" smooth="yes"/>
      <point x="69.83136999999999" y="345.0"/>
      <point x="36.225" y="311.39363"/>
      <point x="36.225" y="270.0" type="curve" smooth="yes"/>
      <point x="36.225" y="228.60637"/>
      <point x="69.83136999999999" y="195.0"/>
      <point x="111.225" y="195.0" type="curve" smooth="yes"/>
      <point x="152.61863" y="195.0"/>
      <point x="186.225" y="228.60637"/>
    </contour>
    <contour>
      <point x="186.225" y="730.0" type="curve" smooth="yes"/>
      <point x="186.225" y="771.39363"/>
      <point x="152.61863" y="805.0"/>
      <point x="111.225" y="805.0" type="curve" smooth="yes"/>
      <point x="69.83136999999999" y="805.0"/>
      <point x="36.225" y="771.39363"/>
      <point x="36.225" y="730.0" type="curve" smooth="yes"/>
      <point x="36.225" y="688.60637"/>
      <point x="69.83136999999999" y="655.0"/>
      <point x="111.225" y="655.0" type="curve" smooth="yes"/>
      <point x="152.61863" y="655.0"/>
      <point x="186.225" y="688.60637"/>
    </contour>
    <contour>
      <point x="223.725" y="195.0" type="line"/>
      <point x="300.9931" y="195.0"/>
      <point x="363.725" y="257.7319"/>
      <point x="363.725" y="335.0" type="curve"/>
      <point x="223.725" y="335.0" type="line"/>
    </contour>
    <contour>
      <point x="223.725" y="335.0" type="line"/>
      <point x="363.725" y="335.0" type="line"/>
      <point x="363.725" y="400.0" type="line"/>
      <point x="223.725" y="400.0" type="line"/>
    </contour>
    <contour>
      <point x="363.725" y="460.0" type="line"/>
      <point x="363.725" y="537.2681"/>
      <point x="300.9931" y="600.0"/>
      <point x="223.725" y="600.0" type="curve"/>
      <point x="223.725" y="460.0" type="line"/>
    </contour>
    <contour>
      <point x="223.725" y="400" type="line"/>
      <point x="363.725" y="400" type="line"/>
      <point x="363.725" y="460.0" type="line"/>
      <point x="223.725" y="460.0" type="line"/>
    </contour>
    <contour>
      <point x="223.725" y="600.0" type="line"/>
      <point x="300.9931" y="600.0"/>
      <point x="363.725" y="662.7319"/>
      <point x="363.725" y="740.0" type="curve"/>
      <point x="223.725" y="740.0" type="line"/>
    </contour>
    <contour>
      <point x="223.725" y="740.0" type="line"/>
      <point x="363.725" y="740.0" type="line"/>
      <point x="363.725" y="800.0" type="line"/>
      <point x="223.725" y="800.0" type="line"/>
    </contour>
  </outline>
</glyph>
<glyph name="acute" format="2">
  <advance width="222.45"/>
  <unicode hex="00B4"/>
  <outline>
    <contour>
      <point x="102.475" y="800.0" type="line"/>
      <point x="179.7431" y="800.0"/>
      <point x="242.475" y="862.7319"/>
      <point x="242.475" y="940.0" type="curve"/>
      <point x="102.475" y="940.0" type="line"/>
    </contour>
  </outline>
</glyph>
<glyph name="pilcrow" format="2">
  <advance width="404.95"/>
  <unicode hex="00B6"/>
  <outline>
    <contour>
      <point x="41.225" y="540.0" type="line"/>
      <point x="41.225" y="462.7319"/>
      <point x="103.9569" y="400.0"/>
      <point x="181.225" y="400.0" type="curve"/>
      <point x="181.225" y="540.0" type="line"/>
    </contour>
    <contour>
      <point x="41.225" y="540.0" type="line"/>
      <point x="181.225" y="540.0" type="line"/>
      <point x="181.225" y="600.0" type="line"/>
      <point x="41.225" y="600.0" type="line"/>
    </contour>
    <contour>
      <point x="181.225" y="800.0" type="line"/>
      <point x="103.9569" y="800.0"/>
      <point x="41.225" y="737.2681"/>
      <point x="41.225" y="660.0" type="curve"/>
      <point x="181.225" y="660.0" type="line"/>
    </contour>
    <contour>
      <point x="41.225" y="600" type="line"/>
      <point x="181.225" y="600" type="line"/>
      <point x="181.225" y="660.0" type="line"/>
      <point x="41.225" y="660.0" type="line"/>
    </contour>
    <contour>
      <point x="223.725" y="-100.0" type="line"/>
      <point x="363.725" y="-100.0" type="line"/>
      <point x="363.725" y="0.0" type="line"/>
      <point x="223.725" y="0.0" type="line"/>
    </contour>
    <contour>
      <point x="223.725" y="0" type="line"/>
      <point x="363.725" y="0" type="line"/>
      <point x="363.725" y="200" type="line"/>
      <point x="223.725" y="200" type="line"/>
    </contour>
    <contour>
      <point x="223.725" y="200" type="line"/>
      <point x="363.725" y="200" type="line"/>
      <point x="363.725" y="400" type="line"/>
      <point x="223.725" y="400" type="line"/>
    </contour>
    <contour>
      <point x="223.725" y="400" type="line"/>
      <point x="363.725" y="400" type="line"/>
      <point x="363.725" y="600" type="line"/>
      <point x="223.725" y="600" type="line"/>
    </contour>
    <contour>
      <point x="223.725" y="600" type="line"/>
      <point x="363.725" y="600" type="line"/>
      <point x="363.725" y="800" type="line"/>
      <point x="223.725" y="800" type="line"/>
    </contour>
  </outline>
</glyph>
<glyph name="sup_one" format="2">
  <advance width="222.45"/>
  <unicode hex="00B9"/>
  <outline>
    <contour>
      <point x="41.225" y="200" type="line"/>
      <point x="181.225" y="200" type="line"/>
      <point x="181.225" y="400" type="line"/>
      <point x="41.225" y="400" type="line"/>
    </contour>
    <contour>
      <point x="41.225" y="400" type="line"/>
      <point x="181.225" y="400" type="line"/>
      <point x="181.225" y="600" type="line"/>
      <point x="41.225" y="600" type="line"/>
    </contour>
    <contour>
      <point x="41.225" y="600" type="line"/>
      <point x="181.225" y="600" type="line"/>
      <point x="181.225" y="800" type="line"/>
      <point x="41.225" y="800" type="line"/>
    </contour>
  </outline>
</glyph>
<glyph name="one_over_two" format="2">
  <advance width="769.95"/>
  <unicode hex="00BD"/>
  <outline>
    <contour>
      <point x="19.975" y="200" type="line"/>
      <point x="159.975" y="200" type="line"/>
      <point x="159.975" y="400" type="line"/>
      <point x="19.975" y="400" type="line"/>
    </contour>
    <contour>
      <point x="19.975" y="400" type="line"/>
      <point x="159.975" y="400" type="line"/>
      <point x="159.975" y="600" type="line"/>
      <point x="19.975" y="600" type="line"/>
    </contour>
    <contour>
      <point x="19.975" y="600" type="line"/>
      <point x="159.975" y="600" type="line"/>
      <point x="159.975" y="800" type="line"/>
      <point x="19.975" y="800" type="line"/>
    </contour>
    <contour>
      <point x="223.725" y="-200.0" type="line"/>
      <point x="300.9931" y="-200.0"/>
      <point x="363.725" y="-137.2681"/>
      <point x="363.725" y="-60.0" type="curve"/>
      <point x="223.725" y="-60.0" type="line"/>
    </contour>
    <contour>
      <point x="223.725" y="-60.0" type="line"/>
      <point x="363.725" y="-60.0" type="line"/>
      <point x="363.725" y="0.0" type="line"/>
      <point x="223.725" y="0.0" type="line"/>
    </contour>
    <contour>
      <point x="223.725" y="0" type="line"/>
      <point x="363.725" y="0" type="line"/>
      <point x="363.725" y="200" type="line"/>
      <point x="223.725" y="200" type="line"/>
    </contour>
    <contour>
      <point x="223.725" y="200" type="line"/>
      <point x="363.725" y="200" type="line"/>
      <point x="363.725" y="400" type="line"/>
      <point x="223.725" y="400" type="line"/>
    </contour>
    <contour>
      <point x="223.725" y="400" type="line"/>
      <point x="363.725" y="400" type="line"/>
      <point x="363.725" y="600" type="line"/>
      <point x="223.725" y="600" type="line"/>
    </contour>
    <contour>
      <point x="363.725" y="800.0" type="line"/>
      <point x="286.4569" y="800.0"/>
      <point x="223.725" y="737.2681"/>
      <point x="223.725" y="660.0" type="curve"/>
      <point x="363.725" y="660.0" type="line"/>
    </contour>
    <contour>
      <point x="223.725" y="600" type="line"/>
      <point x="363.725" y="600" type="line"/>
      <point x="363.725" y="660.0" type="line"/>
      <point x="223.725" y="660.0" type="line"/>
    </contour>
    <contour>
      <point x="567.475" y="-60.0" type="line"/>
      <point x="490.2069" y="-60.0"/>
      <point x="427.475" y="-122.7319"/>
      <point x="427.475" y="-200.0" type="curve"/>
      <point x="567.475" y="-200.0" type="line"/>
    </contour>
    <contour>
      <point x="567.475" y="-200" type="line"/>
      <point x="609.975" y="-200" type="line"/>
      <point x="609.975" y="-60.0" type="line"/>
      <point x="567.475" y="-60.0" type="line"/>
    </contour>
    <contour>
      <point x="576.85" y="330.0" type="curve" smooth="yes"/>
      <point x="576.85" y="371.39363"/>
      <point x="543.2436299999999" y="405.0"/>
      <point x="501.85" y="405.0" type="curve" smooth="yes"/>
      <point x="460.45637000000005" y="405.0"/>
      <point x="426.85" y="371.39363"/>
      <point x="426.85" y="330.0" type="curve" smooth="yes"/>
      <point x="426.85" y="288.60637"/>
      <point x="460.45637000000005" y="255.0"/>
      <point x="501.85" y="255.0" type="curve" smooth="yes"/>
      <point x="543.2436299999999" y="255.0"/>
      <point x="576.85" y="288.60637"/>
    </contour>
    <contour>
      <point x="609.975" y="-200" type="line"/>
      <point x="749.975" y="-200" type="line"/>
      <point x="749.975" y="-60.0" type="line"/>
      <point x="609.975" y="-60.0" type="line"/>
    </contour>
    <contour>
      <point x="609.975" y="-31.0" type="line"/>
      <point x="687.2431" y="-31.0"/>
      <point x="749.975" y="31.7319"/>
      <point x="749.975" y="109.0" type="curve"/>
      <point x="609.975" y="109.0" type="line"/>
    </contour>
    <contour>
      <point x="609.975" y="109.0" type="line"/>
      <point x="749.975" y="109.0" type="line"/>
      <point x="749.975" y="205.0" type="line"/>
      <point x="609.975" y="205.0" type="line"/>
    </contour>
    <contour>
      <point x="749.975" y="265.0" type="line"/>
      <point x="749.975" y="342.2681"/>
      <point x="687.2431" y="405.0"/>
      <point x="609.975" y="405.0" type="curve"/>
      <point x="609.975" y="265.0" type="line"/>
    </contour>
    <contour>
      <point x="609.975" y="205.0" type="line"/>
      <point x="749.975" y="205.0" type="line"/>
      <point x="749.975" y="265.0" type="line"/>
      <point x="609.975" y="265.0" type="line"/>
    </contour>
  </outline>
</glyph>
<glyph name="three_over_four" format="2">
  <advance width="952.45"/>
  <unicode hex="00BE"/>
  <outline>
    <contour>
      <point x="164.975" y="270.0" type="curve" smooth="yes"/>
      <point x="164.975" y="311.39363"/>
      <point x="131.36863" y="345.0"/>
      <point x="89.975" y="345.0" type="curve" smooth="yes"/>
      <point x="48.58137" y="345.0"/>
      <point x="14.975000000000001" y="311.39363"/>
      <point x="14.975000000000001" y="270.0" type="curve" smooth="yes"/>
      <point x="14.975000000000001" y="228.60637"/>
      <point x="48.58137" y="195.0"/>
      <point x="89.975" y="195.0" type="curve" smooth="yes"/>
      <point x="131.36863" y="195.0"/>
      <point x="164.975" y="228.60637"/>
    </contour>
    <contour>
      <point x="164.975" y="730.0" type="curve" smooth="yes"/>
      <point x="164.975" y="771.39363"/>
      <point x="131.36863" y="805.0"/>
      <point x="89.975" y="805.0" type="curve" smooth="yes"/>
      <point x="48.58137" y="805.0"/>
      <point x="14.975000000000001" y="771.39363"/>
      <point x="14.975000000000001" y="730.0" type="curve" smooth="yes"/>
      <point x="14.975000000000001" y="688.60637"/>
      <point x="48.58137" y="655.0"/>
      <point x="89.975" y="655.0" type="curve" smooth="yes"/>
      <point x="131.36863" y="655.0"/>
      <point x="164.975" y="688.60637"/>
    </contour>
    <contour>
      <point x="202.475" y="195.0" type="line"/>
      <point x="279.7431" y="195.0"/>
      <point x="342.475" y="257.7319"/>
      <point x="342.475" y="335.0" type="curve"/>
      <point x="202.475" y="335.0" type="line"/>
    </contour>
    <contour>
      <point x="202.475" y="335.0" type="line"/>
      <point x="342.475" y="335.0" type="line"/>
      <point x="342.475" y="400.0" type="line"/>
      <point x="202.475" y="400.0" type="line"/>
    </contour>
    <contour>
      <point x="342.475" y="460.0" type="line"/>
      <point x="342.475" y="537.2681"/>
      <point x="279.7431" y="600.0"/>
      <point x="202.475" y="600.0" type="curve"/>
      <point x="202.475" y="460.0" type="line"/>
    </contour>
    <contour>
      <point x="202.475" y="400" type="line"/>
      <point x="342.475" y="400" type="line"/>
      <point x="342.475" y="460.0" type="line"/>
      <point x="202.475" y="460.0" type="line"/>
    </contour>
    <contour>
      <point x="202.475" y="600.0" type="line"/>
      <point x="279.7431" y="600.0"/>
      <point x="342.475" y="662.7319"/>
      <point x="342.475" y="740.0" type="curve"/>
      <point x="202.475" y="740.0" type="line"/>
    </contour>
    <contour>
      <point x="202.475" y="740.0" type="line"/>
      <point x="342.475" y="740.0" type="line"/>
      <point x="342.475" y="800.0" type="line"/>
      <point x="202.475" y="800.0" type="line"/>
    </contour>
    <contour>
      <point x="406.225" y="-200.0" type="line"/>
      <point x="483.4931" y="-200.0"/>
      <point x="546.225" y="-137.2681"/>
      <point x="546.225" y="-60.0" type="curve"/>
      <point x="406.225" y="-60.0" type="line"/>
    </contour>
    <contour>
      <point x="406.225" y="-60.0" type="line"/>
      <point x="546.225" y="-60.0" type="line"/>
      <point x="546.225" y="0.0" type="line"/>
      <point x="406.225" y="0.0" type="line"/>
    </contour>
    <contour>
      <point x="406.225" y="0" type="line"/>
      <point x="546.225" y="0" type="line"/>
      <point x="546.225" y="200" type="line"/>
      <point x="406.225" y="200" type="line"/>
    </contour>
    <contour>
      <point x="406.225" y="200" type="line"/>
      <point x="546.225" y="200" type="line"/>
      <point x="546.225" y="400" type="line"/>
      <point x="406.225" y="400" type="line"/>
    </contour>
    <contour>
      <point x="406.225" y="400" type="line"/>
      <point x="546.225" y="400" type="line"/>
      <point x="546.225" y="600" type="line"/>
      <point x="406.225" y="600" type="line"/>
    </contour>
    <contour>
      <point x="546.225" y="800.0" type="line"/>
      <point x="468.9569" y="800.0"/>
      <point x="406.225" y="737.2681"/>
      <point x="406.225" y="660.0" type="curve"/>
      <point x="546.225" y="660.0" type="line"/>
    </contour>
    <contour>
      <point x="406.225" y="600" type="line"/>
      <point x="546.225" y="600" type="line"/>
      <point x="546.225" y="660.0" type="line"/>
      <point x="406.225" y="660.0" type="line"/>
    </contour>
    <contour>
      <point x="609.975" y="0.0" type="line"/>
      <point x="687.2431" y="0.0"/>
      <point x="749.975" y="62.7319"/>
      <point x="749.975" y="140.0" type="curve"/>
      <point x="609.975" y="140.0" type="line"/>
    </contour>
    <contour>
      <point x="609.975" y="140.0" type="line"/>
      <point x="749.975" y="140.0" type="line"/>
      <point x="749.975" y="200.0" type="line"/>
      <point x="609.975" y="200.0" type="line"/>
    </contour>
    <contour>
      <point x="609.975" y="200" type="line"/>
      <point x="749.975" y="200" type="line"/>
      <point x="749.975" y="400" type="line"/>
      <point x="609.975" y="400" type="line"/>
    </contour>
    <contour>
      <point x="792.475" y="-200" type="line"/>
      <point x="932.475" y="-200" type="line"/>
      <point x="932.475" y="0" type="line"/>
      <point x="792.475" y="0" type="line"/>
    </contour>
    <contour>
      <point x="792.475" y="0" type="line"/>
      <point x="932.475" y="0" type="line"/>
      <point x="932.475" y="200" type="line"/>
      <point x="792.475" y="200" type="line"/>
    </contour>
  </outline>
</glyph>
<glyph name="invquestion" format="2">
  <advance width="404.95"/>
  <unicode hex="00BF"/>
  <outline>
    <contour>
      <point x="41.225" y="-65.0" type="line"/>
      <point x="41.225" y="-142.2681"/>
      <point x="103.9569" y="-205.0"/>
      <point x="181.225" y="-205.0" type="curve"/>
      <point x="181.225" y="-65.0" type="line"/>
    </contour>
    <contour>
      <point x="41.225" y="-65.0" type="line"/>
      <point x="181.225" y="-65.0" type="line"/>
      <point x="181.225" y="-5.0" type="line"/>
      <point x="41.225" y="-5.0" type="line"/>
    </contour>
    <contour>
      <point x="181.225" y="195.0" type="line"/>
      <point x="103.9569" y="195.0"/>
      <point x="41.225" y="132.2681"/>
      <point x="41.225" y="55.0" type="curve"/>
      <point x="181.225" y="55.0" type="line"/>
    </contour>
    <contour>
      <point x="41.225" y="-5.0" type="line"/>
      <point x="181.225" y="-5.0" type="line"/>
      <point x="181.225" y="55.0" type="line"/>
      <point x="41.225" y="55.0" type="line"/>
    </contour>
    <contour>
      <point x="368.725" y="-142.5" type="curve" smooth="yes"/>
      <point x="368.725" y="-101.10637"/>
      <point x="335.11863" y="-67.5"/>
      <point x="293.725" y="-67.5" type="curve" smooth="yes"/>
      <point x="252.33137" y="-67.5"/>
      <point x="218.725" y="-101.10637"/>
      <point x="218.725" y="-142.5" type="curve" smooth="yes"/>
      <point x="218.725" y="-183.89363"/>
      <point x="252.33137" y="-217.5"/>
      <point x="293.725" y="-217.5" type="curve" smooth="yes"/>
      <point x="335.11863" y="-217.5"/>
      <point x="368.725" y="-183.89363"/>
    </contour>
    <contour>
      <point x="223.725" y="60.0" type="line"/>
      <point x="300.9931" y="60.0"/>
      <point x="363.725" y="122.7319"/>
      <point x="363.725" y="200.0" type="curve"/>
      <point x="223.725" y="200.0" type="line"/>
    </contour>
    <contour>
      <point x="223.725" y="200" type="line"/>
      <point x="363.725" y="200" type="line"/>
      <point x="363.725" y="400.0" type="line"/>
      <point x="223.725" y="400.0" type="line"/>
    </contour>
    <contour>
      <point x="368.725" y="536.25" type="curve" smooth="yes"/>
      <point x="368.725" y="577.64363"/>
      <point x="335.11863" y="611.25"/>
      <point x="293.725" y="611.25" type="curve" smooth="yes"/>
      <point x="252.33137" y="611.25"/>
      <point x="218.725" y="577.64363"/>
      <point x="218.725" y="536.25" type="curve" smooth="yes"/>
      <point x="218.725" y="494.85637"/>
      <point x="252.33137" y="461.25"/>
      <point x="293.725" y="461.25" type="curve" smooth="yes"/>
      <point x="335.11863" y="461.25"/>
      <point x="368.725" y="494.85637"/>
    </contour>
  </outline>
</glyph>
<glyph name="A_with_ring" format="2">
  <advance width="404.95"/>
  <unicode hex="00C5"/>
  <outline>
    <contour>
      <point x="41.225" y="0" type="line"/>
      <point x="181.225" y="0" type="line"/>
      <point x="181.225" y="200" type="line"/>
      <point x="41.225" y="200" type="line"/>
    </contour>
    <contour>
      <point x="41.225" y="200" type="line"/>
      <point x="181.225" y="200" type="line"/>
      <point x="181.225" y="400" type="line"/>
      <point x="41.225" y="400" type="line"/>
    </contour>
    <contour>
      <point x="41.225" y="400" type="line"/>
      <point x="181.225" y="400" type="line"/>
      <point x="181.225" y="605.0" type="line"/>
      <point x="41.225" y="605.0" type="line"/>
    </contour>
    <contour>
      <point x="181.225" y="805.0" type="line"/>
      <point x="103.9569" y="805.0"/>
      <point x="41.225" y="742.2681"/>
      <point x="41.225" y="665.0" type="curve"/>
      <point x="181.225" y="665.0" type="line"/>
    </contour>
    <contour>
      <point x="41.225" y="605.0" type="line"/>
      <point x="181.225" y="605.0" type="line"/>
      <point x="181.225" y="665.0" type="line"/>
      <point x="41.225" y="665.0" type="line"/>
    </contour>
    <contour>
      <point x="223.725" y="0" type="line"/>
      <point x="363.725" y="0" type="line"/>
      <point x="363.725" y="200" type="line"/>
      <point x="223.725" y="200" type="line"/>
    </contour>
    <contour>
      <point x="223.725" y="200" type="line"/>
      <point x="363.725" y="200" type="line"/>
      <point x="363.725" y="400" type="line"/>
      <point x="223.725" y="400" type="line"/>
    </contour>
    <contour>
      <point x="223.725" y="400" type="line"/>
      <point x="363.725" y="400" type="line"/>
      <point x="363.725" y="605.0" type="line"/>
      <point x="223.725" y="605.0" type="line"/>
    </contour>
    <contour>
      <point x="363.725" y="665.0" type="line"/>
      <point x="363.725" y="742.2681"/>
      <point x="300.9931" y="805.0"/>
      <point x="223.725" y="805.0" type="curve"/>
      <point x="223.725" y="665.0" type="line"/>
    </contour>
    <contour>
      <point x="223.725" y="605.0" type="line"/>
      <point x="363.725" y="605.0" type="line"/>
      <point x="363.725" y="665.0" type="line"/>
      <point x="223.725" y="665.0" type="line"/>
    </contour>
    <contour>
      <point x="181.225" y="986.6666666666666" type="line"/>
      <point x="139.83137" y="986.6666666666666"/>
      <point x="106.225" y="953.0602966666667"/>
      <point x="106.225" y="911.6666666666666" type="curve" smooth="yes"/>
      <point x="106.225" y="870.2730366666666"/>
      <point x="139.83137" y="836.6666666666666"/>
      <point x="181.225" y="836.6666666666666" type="curve"/>
    </contour>
    <contour>
      <point x="223.725" y="836.6666666666666" type="line"/>
      <point x="265.11863" y="836.6666666666666"/>
      <point x="298.725" y="870.2730366666666"/>
      <point x="298.725" y="911.6666666666666" type="curve" smooth="yes"/>
      <point x="298.725" y="953.0602966666667"/>
      <point x="265.11863" y="986.6666666666666"/>
      <point x="223.725" y="986.6666666666666" type="curve"/>
    </contour>
  </outline>
</glyph>
<glyph name="E_with_grave" format="2">
  <advance width="404.95"/>
  <unicode hex="00C8"/>
  <outline>
    <contour>
      <point x="41.225" y="0" type="line"/>
      <point x="181.225" y="0" type="line"/>
      <point x="181.225" y="200" type="line"/>
      <point x="41.225" y="200" type="line"/>
    </contour>
    <contour>
      <point x="41.225" y="200" type="line"/>
      <point x="181.225" y="200" type="line"/>
      <point x="181.225" y="400" type="line"/>
      <point x="41.225" y="400" type="line"/>
    </contour>
    <contour>
      <point x="41.225" y="400" type="line"/>
      <point x="181.225" y="400" type="line"/>
      <point x="181.225" y="600" type="line"/>
      <point x="41.225" y="600" type="line"/>
    </contour>
    <contour>
      <point x="41.225" y="600" type="line"/>
      <point x="181.225" y="600" type="line"/>
      <point x="181.225" y="800" type="line"/>
      <point x="41.225" y="800" type="line"/>
    </contour>
    <contour>
      <point x="363.725" y="140.0" type="line"/>
      <point x="286.4569" y="140.0"/>
      <point x="223.725" y="77.2681"/>
      <point x="223.725" y="0.0" type="curve"/>
      <point x="363.725" y="0.0" type="line"/>
    </contour>
    <contour>
      <point x="223.725" y="470.0" type="line"/>
      <point x="223.725" y="392.7319"/>
      <point x="286.4569" y="330.0"/>
      <point x="363.725" y="330.0" type="curve"/>
      <point x="363.725" y="470.0" type="line"/>
    </contour>
    <contour>
      <point x="223.725" y="800.0" type="line"/>
      <point x="223.725" y="722.7319"/>
      <point x="286.4569" y="660.0"/>
      <point x="363.725" y="660.0" type="curve"/>
      <point x="363.725" y="800.0" type="line"/>
    </contour>
    <contour>
      <point x="71.225" y="981.6666666666666" type="line"/>
      <point x="71.225" y="904.3985666666666"/>
      <point x="133.9569" y="841.6666666666666"/>
      <point x="211.225" y="841.6666666666666" type="curve"/>
      <point x="211.225" y="981.6666666666666" type="line"/>
    </contour>
  </outline>
</glyph>
<glyph name="I_with_circumflex" format="2">
  <advance width="222.45"/>
  <unicode hex="00CE"/>
  <outline>
    <contour>
      <point x="41.225" y="0" type="line"/>
      <point x="181.225" y="0" type="line"/>
      <point x="181.225" y="200" type="line"/>
      <point x="41.225" y="200" type="line"/>
    </contour>
    <contour>
      <point x="41.225" y="200" type="line"/>
      <point x="181.225" y="200" type="line"/>
      <point x="181.225" y="400" type="line"/>
      <point x="41.225" y="400" type="line"/>
    </contour>
    <contour>
      <point x="41.225" y="400" type="line"/>
      <point x="181.225" y="400" type="line"/>
      <point x="181.225" y="600" type="line"/>
      <point x="41.225" y="600" type="line"/>
    </contour>
    <contour>
      <point x="41.225" y="600" type="line"/>
      <point x="181.225" y="600" type="line"/>
      <point x="181.225" y="800" type="line"/>
      <point x="41.225" y="800" type="line"/>
    </contour>
    <contour>
      <point x="-33.150000000000006" y="841.6666666666666" type="line"/>
      <point x="44.1181" y="841.6666666666666"/>
      <point x="106.85" y="904.3985666666666"/>
      <point x="106.85" y="981.6666666666666" type="curve"/>
      <point x="-33.150000000000006" y="981.6666666666666" type="line"/>
    </contour>
    <contour>
      <point x="115.6" y="981.6666666666666" type="line"/>
      <point x="115.6" y="904.3985666666666"/>
      <point x="178.3319" y="841.6666666666666"/>
      <point x="255.6" y="841.6666666666666" type="curve"/>
      <point x="255.6" y="981.6666666666666" type="line"/>
    </contour>
  </outline>
</glyph>
<glyph name="I_with_diaeresis" format="2">
  <advance width="222.45"/>
  <unicode hex="00CF"/>
  <outline>
    <contour>
      <point x="41.225" y="0" type="line"/>
      <point x="181.225" y="0" type="line"/>
      <point x="181.225" y="200" type="line"/>
      <point x="41.225" y="200" type="line"/>
    </contour>
    <contour>
      <point x="41.225" y="200" type="line"/>
      <point x="181.225" y="200" type="line"/>
      <point x="181.225" y="400" type="line"/>
      <point x="41.225" y="400" type="line"/>
    </contour>
    <contour>
      <point x="41.225" y="400" type="line"/>
      <point x="181.225" y="400" type="line"/>
      <point x="181.225" y="600" type="line"/>
      <point x="41.225" y="600" type="line"/>
    </contour>
    <contour>
      <point x="41.225" y="600" type="line"/>
      <point x="181.225" y="600" type="line"/>
      <point x="181.225" y="800" type="line"/>
      <point x="41.225" y="800" type="line"/>
    </contour>
    <contour>
      <point x="94.975" y="911.6666666666666" type="curve" smooth="yes"/>
      <point x="94.975" y="953.0602966666667"/>
      <point x="61.368629999999996" y="986.6666666666666"/>
      <point x="19.974999999999994" y="986.6666666666666" type="curve" smooth="yes"/>
      <point x="-21.418630000000007" y="986.6666666666666"/>
      <point x="-55.025000000000006" y="953.0602966666667"/>
      <point x="-55.025000000000006" y="911.6666666666666" type="curve" smooth="yes"/>
      <point x="-55.025000000000006" y="870.2730366666666"/>
      <point x="-21.418630000000007" y="836.6666666666666"/>
      <point x="19.974999999999994" y="836.6666666666666" type="curve" smooth="yes"/>
      <point x="61.368629999999996" y="836.6666666666666"/>
      <point x="94.975" y="870.2730366666666"/>
    </contour>
    <contour>
      <point x="277.475" y="911.6666666666666" type="curve" smooth="yes"/>
      <point x="277.475" y="953.0602966666667"/>
      <point x="243.86862999999997" y="986.6666666666666"/>
      <point x="202.475" y="986.6666666666666" type="curve" smooth="yes"/>
      <point x="161.08137" y="986.6666666666666"/>
      <point x="127.475" y="953.0602966666667"/>
      <point x="127.475" y="911.6666666666666" type="curve" smooth="yes"/>
      <point x="127.475" y="870.2730366666666"/>
      <point x="161.08137" y="836.6666666666666"/>
      <point x="202.475" y="836.6666666666666" type="curve" smooth="yes"/>
      <point x="243.86862999999997" y="836.6666666666666"/>
      <point x="277.475" y="870.2730366666666"/>
    </contour>
  </outline>
</glyph>
<glyph name="ETH" format="2">
  <advance width="587.45"/>
  <unicode hex="00D0"/>
  <outline>
    <contour>
      <point x="268.725" y="470.0" type="line"/>
      <point x="191.4569" y="470.0"/>
      <point x="128.725" y="407.2681"/>
      <point x="128.725" y="330.0" type="curve"/>
      <point x="268.725" y="330.0" type="line"/>
    </contour>
    <contour>
      <point x="223.725" y="0" type="line"/>
      <point x="363.725" y="0" type="line"/>
      <point x="363.725" y="200" type="line"/>
      <point x="223.725" y="200" type="line"/>
    </contour>
    <contour>
      <point x="223.725" y="200" type="line"/>
      <point x="363.725" y="200" type="line"/>
      <point x="363.725" y="400" type="line"/>
      <point x="223.725" y="400" type="line"/>
    </contour>
    <contour>
      <point x="223.725" y="400" type="line"/>
      <point x="363.725" y="400" type="line"/>
      <point x="363.725" y="600" type="line"/>
      <point x="223.725" y="600" type="line"/>
    </contour>
    <contour>
      <point x="223.725" y="600" type="line"/>
      <point x="363.725" y="600" type="line"/>
      <point x="363.725" y="800" type="line"/>
      <point x="223.725" y="800" type="line"/>
    </contour>
    <contour>
      <point x="406.225" y="0.0" type="line"/>
      <point x="483.4931" y="0.0"/>
      <point x="546.225" y="62.7319"/>
      <point x="546.225" y="140.0" type="curve"/>
      <point x="406.225" y="140.0" type="line"/>
    </contour>
    <contour>
      <point x="406.225" y="140.0" type="line"/>
      <point x="546.225" y="140.0" type="line"/>
      <point x="546.225" y="200.0" type="line"/>
      <point x="406.225" y="200.0" type="line"/>
    </contour>
    <contour>
      <point x="406.225" y="200" type="line"/>
      <point x="546.225" y="200" type="line"/>
      <point x="546.225" y="400" type="line"/>
      <point x="406.225" y="400" type="line"/>
    </contour>
    <contour>
      <point x="406.225" y="400" type="line"/>
      <point x="546.225" y="400" type="line"/>
      <point x="546.225" y="600" type="line"/>
      <point x="406.225" y="600" type="line"/>
    </contour>
    <contour>
      <point x="546.225" y="660.0" type="line"/>
      <point x="546.225" y="737.2681"/>
      <point x="483.4931" y="800.0"/>
      <point x="406.225" y="800.0" type="curve"/>
      <point x="406.225" y="660.0" type="line"/>
    </contour>
    <contour>
      <point x="406.225" y="600" type="line"/>
      <point x="546.225" y="600" type="line"/>
      <point x="546.225" y="660.0" type="line"/>
      <point x="406.225" y="660.0" type="line"/>
    </contour>
  </outline>
</glyph>
<glyph name="O_with_smalltilde" format="2">
  <advance width="404.95"/>
  <unicode hex="00D5"/>
  <outline>
    <contour>
      <point x="41.225" y="135.0" type="line"/>
      <point x="41.225" y="57.7319"/>
      <point x="103.9569" y="-5.0"/>
      <point x="181.225" y="-5.0" type="curve"/>
      <point x="181.225" y="135.0" type="line"/>
    </contour>
    <contour>
      <point x="41.225" y="135.0" type="line"/>
      <point x="181.225" y="135.0" type="line"/>
      <point x="181.225" y="195.0" type="line"/>
      <point x="41.225" y="195.0" type="line"/>
    </contour>
    <contour>
      <point x="41.225" y="195.0" type="line"/>
      <point x="181.225" y="195.0" type="line"/>
      <point x="181.225" y="400.0" type="line"/>
      <point x="41.225" y="400.0" type="line"/>
    </contour>
    <contour>
      <point x="41.225" y="400" type="line"/>
      <point x="181.225" y="400" type="line"/>
      <point x="181.225" y="605.0" type="line"/>
      <point x="41.225" y="605.0" type="line"/>
    </contour>
    <contour>
      <point x="181.225" y="805.0" type="line"/>
      <point x="103.9569" y="805.0"/>
      <point x="41.225" y="742.2681"/>
      <point x="41.225" y="665.0" type="curve"/>
      <point x="181.225" y="665.0" type="line"/>
    </contour>
    <contour>
      <point x="41.225" y="605.0" type="line"/>
      <point x="181.225" y="605.0" type="line"/>
      <point x="181.225" y="665.0" type="line"/>
      <point x="41.225" y="665.0" type="line"/>
    </contour>
    <contour>
      <point x="223.725" y="-5.0" type="line"/>
      <point x="300.9931" y="-5.0"/>
      <point x="363.725" y="57.7319"/>
      <point x="363.725" y="135.0" type="curve"/>
      <point x="223.725" y="135.0" type="line"/>
    </contour>
    <contour>
      <point x="223.725" y="135.0" type="line"/>
      <point x="363.725" y="135.0" type="line"/>
      <point x="363.725" y="195.0" type="line"/>
      <point x="223.725" y="195.0" type="line"/>
    </contour>
    <contour>
      <point x="223.725" y="195.0" type="line"/>
      <point x="363.725" y="195.0" type="line"/>
      <point x="363.725" y="400.0" type="line"/>
      <point x="223.725" y="400.0" type="line"/>
    </contour>
    <contour>
      <point x="223.725" y="400" type="line"/>
      <point x="363.725" y="400" type="line"/>
      <point x="363.725" y="605.0" type="line"/>
      <point x="223.725" y="605.0" type="line"/>
    </contour>
    <contour>
      <point x="363.725" y="665.0" type="line"/>
      <point x="363.725" y="742.2681"/>
      <point x="300.9931" y="805.0"/>
      <point x="223.725" y="805.0" type="curve"/>
      <point x="223.725" y="665.0" type="line"/>
    </contour>
    <contour>
      <point x="223.725" y="605.0" type="line"/>
      <point x="363.725" y="605.0" type="line"/>
      <point x="363.725" y="665.0" type="line"/>
      <point x="223.725" y="665.0" type="line"/>
    </contour>
    <contour>
      <point x="202.475" y="981.6666666666666" type="line"/>
      <point x="125.20689999999999" y="981.6666666666666"/>
      <point x="62.474999999999994" y="918.9347666666666"/>
      <point x="62.474999999999994" y="841.6666666666666" type="curve"/>
      <point x="202.475" y="841.6666666666666" type="line"/>
    </contour>
    <contour>
      <point x="202.475" y="841.6666666666666" type="line"/>
      <point x="279.7431" y="841.6666666666666"/>
      <point x="342.475" y="904.3985666666666"/>
      <point x="342.475" y="981.6666666666666" type="curve"/>
      <point x="202.475" y="981.6666666666666" type="line"/>
    </contour>
  </outline>
</glyph>
<glyph name="O_with_stroke" format="2">
  <advance width="404.95"/>
  <unicode hex="00D8"/>
  <outline>
    <contour>
      <point x="41.225" y="135.0" type="line"/>
      <point x="41.225" y="57.7319"/>
      <point x="103.9569" y="-5.0"/>
      <point x="181.225" y="-5.0" type="curve"/>
      <point x="181.225" y="135.0" type="line"/>
    </contour>
    <contour>
      <point x="41.225" y="135.0" type="line"/>
      <point x="181.225" y="135.0" type="line"/>
      <point x="181.225" y="195.0" type="line"/>
      <point x="41.225" y="195.0" type="line"/>
    </contour>
    <contour>
      <point x="41.225" y="195.0" type="line"/>
      <point x="181.225" y="195.0" type="line"/>
      <point x="181.225" y="400.0" type="line"/>
      <point x="41.225" y="400.0" type="line"/>
    </contour>
    <contour>
      <point x="41.225" y="400" type="line"/>
      <point x="181.225" y="400" type="line"/>
      <point x="181.225" y="605.0" type="line"/>
      <point x="41.225" y="605.0" type="line"/>
    </contour>
    <contour>
      <point x="181.225" y="805.0" type="line"/>
      <point x="103.9569" y="805.0"/>
      <point x="41.225" y="742.2681"/>
      <point x="41.225" y="665.0" type="curve"/>
      <point x="181.225" y="665.0" type="line"/>
    </contour>
    <contour>
      <point x="41.225" y="605.0" type="line"/>
      <point x="181.225" y="605.0" type="line"/>
      <point x="181.225" y="665.0" type="line"/>
      <point x="41.225" y="665.0" type="line"/>
    </contour>
    <contour>
      <point x="146.225" y="70.0" type="line"/>
      <point x="68.9569" y="70.0"/>
      <point x="6.225000000000001" y="7.2681"/>
      <point x="6.225000000000001" y="-70.0" type="curve"/>
      <point x="146.225" y="-70.0" type="line"/>
    </contour>
    <contour>
      <point x="223.725" y="-5.0" type="line"/>
      <point x="300.9931" y="-5.0"/>
      <point x="363.725" y="57.7319"/>
      <point x="363.725" y="135.0" type="curve"/>
      <point x="223.725" y="135.0" type="line"/>
    </contour>
    <contour>
      <point x="223.725" y="135.0" type="line"/>
      <point x="363.725" y="135.0" type="line"/>
      <point x="363.725" y="195.0" type="line"/>
      <point x="223.725" y="195.0" type="line"/>
    </contour>
    <contour>
      <point x="223.725" y="195.0" type="line"/>
      <point x="363.725" y="195.0" type="line"/>
      <point x="363.725" y="400.0" type="line"/>
      <point x="223.725" y="400.0" type="line"/>
    </contour>
    <contour>
      <point x="223.725" y="400" type="line"/>
      <point x="363.725" y="400" type="line"/>
      <point x="363.725" y="605.0" type="line"/>
      <point x="223.725" y="605.0" type="line"/>
    </contour>
    <contour>
      <point x="363.725" y="665.0" type="line"/>
      <point x="363.725" y="742.2681"/>
      <point x="300.9931" y="805.0"/>
      <point x="223.725" y="805.0" type="curve"/>
      <point x="223.725" y="665.0" type="line"/>
    </contour>
    <contour>
      <point x="223.725" y="605.0" type="line"/>
      <point x="363.725" y="605.0" type="line"/>
      <point x="363.725" y="665.0" type="line"/>
      <point x="223.725" y="665.0" type="line"/>
    </contour>
    <contour>
      <point x="258.725" y="730.0" type="line"/>
      <point x="335.9931" y="730.0"/>
      <point x="398.725" y="792.7319"/>
      <point x="398.725" y="870.0" type="curve"/>
      <point x="258.725" y="870.0" type="line"/>
    </contour>
  </outline>
</glyph>
<glyph name="U_with_diaeresis" format="2">
  <advance width="404.95"/>
  <unicode hex="00DC"/>
  <outline>
    <contour>
      <point x="41.225" y="135.0" type="line"/>
      <point x="41.225" y="57.7319"/>
      <point x="103.9569" y="-5.0"/>
      <point x="181.225" y="-5.0" type="curve"/>
      <point x="181.225" y="135.0" type="line"/>
    </contour>
    <contour>
      <point x="41.225" y="135.0" type="line"/>
      <point x="181.225" y="135.0" type="line"/>
      <point x="181.225" y="195.0" type="line"/>
      <point x="41.225" y="195.0" type="line"/>
    </contour>
    <contour>
      <point x="41.225" y="195.0" type="line"/>
      <point x="181.225" y="195.0" type="line"/>
      <point x="181.225" y="400.0" type="line"/>
      <point x="41.225" y="400.0" type="line"/>
    </contour>
    <contour>
      <point x="41.225" y="400" type="line"/>
      <point x="181.225" y="400" type="line"/>
      <point x="181.225" y="600" type="line"/>
      <point x="41.225" y="600" type="line"/>
    </contour>
    <contour>
      <point x="41.225" y="600" type="line"/>
      <point x="181.225" y="600" type="line"/>
      <point x="181.225" y="800" type="line"/>
      <point x="41.225" y="800" type="line"/>
    </contour>
    <contour>
      <point x="223.725" y="-5.0" type="line"/>
      <point x="300.9931" y="-5.0"/>
      <point x="363.725" y="57.7319"/>
      <point x="363.725" y="135.0" type="curve"/>
      <point x="223.725" y="135.0" type="line"/>
    </contour>
    <contour>
      <point x="223.725" y="135.0" type="line"/>
      <point x="363.725" y="135.0" type="line"/>
      <point x="363.725" y="195.0" type="line"/>
      <point x="223.725" y="195.0" type="line"/>
    </contour>
    <contour>
      <point x="223.725" y="195.0" type="line"/>
      <point x="363.725" y="195.0" type="line"/>
      <point x="363.725" y="400.0" type="line"/>
      <point x="223.725" y="400.0" type="line"/>
    </contour>
    <contour>
      <point x="223.725" y="400" type="line"/>
      <point x="363.725" y="400" type="line"/>
      <point x="363.725" y="600" type="line"/>
      <point x="223.725" y="600" type="line"/>
    </contour>
    <contour>
      <point x="223.725" y="600" type="line"/>
      <point x="363.725" y="600" type="line"/>
      <point x="363.725" y="800" type="line"/>
      <point x="223.725" y="800" type="line"/>
    </contour>
    <contour>
      <point x="186.225" y="911.6666666666666" type="curve" smooth="yes"/>
      <point x="186.225" y="953.0602966666667"/>
      <point x="152.61863" y="986.6666666666666"/>
      <point x="111.225" y="986.6666666666666" type="curve" smooth="yes"/>
      <point x="69.83136999999999" y="986.6666666666666"/>
      <point x="36.224999999999994" y="953.0602966666667"/>
      <point x="36.224999999999994" y="911.6666666666666" type="curve" smooth="yes"/>
      <point x="36.224999999999994" y="870.2730366666666"/>
      <point x="69.83136999999999" y="836.6666666666666"/>
      <point x="111.225" y="836.6666666666666" type="curve" smooth="yes"/>
      <point x="152.61863" y="836.6666666666666"/>
      <point x="186.225" y="870.2730366666666"/>
    </contour>
    <contour>
      <point x="368.725" y="911.6666666666666" type="curve" smooth="yes"/>
      <point x="368.725" y="953.0602966666667"/>
      <point x="335.11862999999994" y="986.6666666666666"/>
      <point x="293.725" y="986.6666666666666" type="curve" smooth="yes"/>
      <point x="252.33137" y="986.6666666666666"/>
      <point x="218.725" y="953.0602966666667"/>
      <point x="218.725" y="911.6666666666666" type="curve" smooth="yes"/>
      <point x="218.725" y="870.2730366666666"/>
      <point x="252.33137" y="836.6666666666666"/>
      <point x="293.725" y="836.6666666666666" type="curve" smooth="yes"/>
      <point x="335.11862999999994" y="836.6666666666666"/>
      <point x="368.725" y="870.2730366666666"/>
    </contour>
  </outline>
</glyph>
<glyph name="THORN" format="2">
  <advance width="404.95"/>
  <unicode hex="00DE"/>
  <outline>
    <contour>
      <point x="41.225" y="0" type="line"/>
      <point x="181.225" y="0" type="line"/>
      <point x="181.225" y="200" type="line"/>
      <point x="41.225" y="200" type="line"/>
    </contour>
    <contour>
      <point x="41.225" y="200" type="line"/>
      <point x="181.225" y="200" type="line"/>
      <point x="181.225" y="400" type="line"/>
      <point x="41.225" y="400" type="line"/>
    </contour>
    <contour>
      <point x="41.225" y="400" type="line"/>
      <point x="181.225" y="400" type="line"/>
      <point x="181.225" y="600" type="line"/>
      <point x="41.225" y="600" type="line"/>
    </contour>
    <contour>
      <point x="41.225" y="600" type="line"/>
      <point x="181.225" y="600" type="line"/>
      <point x="181.225" y="800" type="line"/>
      <point x="41.225" y="800" type="line"/>
    </contour>
    <contour>
      <point x="223.725" y="100.0" type="line"/>
      <point x="300.9931" y="100.0"/>
      <point x="363.725" y="162.7319"/>
      <point x="363.725" y="240.0" type="curve"/>
      <point x="223.725" y="240.0" type="line"/>
    </contour>
    <contour>
      <point x="223.725" y="240.0" type="line"/>
      <point x="363.725" y="240.0" type="line"/>
      <point x="363.725" y="300.0" type="line"/>
      <point x="223.725" y="300.0" type="line"/>
    </contour>
    <contour>
      <point x="223.725" y="300.0" type="line"/>
      <point x="363.725" y="300.0" type="line"/>
      <point x="363.725" y="500.0" type="line"/>
      <point x="223.725" y="500.0" type="line"/>
    </contour>
    <contour>
      <point x="363.725" y="560.0" type="line"/>
      <point x="363.725" y="637.2681"/>
      <point x="300.9931" y="700.0"/>
      <point x="223.725" y="700.0" type="curve"/>
      <point x="223.725" y="560.0" type="line"/>
    </contour>
    <contour>
      <point x="223.725" y="500.0" type="line"/>
      <point x="363.725" y="500.0" type="line"/>
      <point x="363.725" y="560.0" type="line"/>
      <point x="223.725" y="560.0" type="line"/>
    </contour>
  </outline>
</glyph>
<glyph name="a_with_diaeresis" format="2">
  <advance width="404.95"/>
  <unicode hex="00E4"/>
  <outline>
    <contour>
      <point x="41.225" y="140.0" type="line"/>
      <point x="41.225" y="62.7319"/>
      <point x="103.9569" y="0.0"/>
      <point x="181.225" y="0.0" type="curve"/>
      <point x="181.225" y="140.0" type="line"/>
    </contour>
    <contour>
      <point x="41.225" y="140.0" type="line"/>
      <point x="181.225" y="140.0" type="line"/>
      <point x="181.225" y="200.0" type="line"/>
      <point x="41.225" y="200.0" type="line"/>
    </contour>
    <contour>
      <point x="181.225" y="400.0" type="line"/>
      <point x="103.9569" y="400.0"/>
      <point x="41.225" y="337.2681"/>
      <point x="41.225" y="260.0" type="curve"/>
      <point x="181.225" y="260.0" type="line"/>
    </contour>
    <contour>
      <point x="41.225" y="200" type="line"/>
      <point x="181.225" y="200" type="line"/>
      <point x="181.225" y="260.0" type="line"/>
      <point x="41.225" y="260.0" type="line"/>
    </contour>
    <contour>
      <point x="188.4125" y="530.0" type="curve" smooth="yes"/>
      <point x="188.4125" y="571.39363"/>
      <point x="154.80613" y="605.0"/>
      <point x="113.4125" y="605.0" type="curve" smooth="yes"/>
      <point x="72.01886999999999" y="605.0"/>
      <point x="38.4125" y="571.39363"/>
      <point x="38.4125" y="530.0" type="curve" smooth="yes"/>
      <point x="38.4125" y="488.60637"/>
      <point x="72.01886999999999" y="455.0"/>
      <point x="113.4125" y="455.0" type="curve" smooth="yes"/>
      <point x="154.80613" y="455.0"/>
      <point x="188.4125" y="488.60637"/>
    </contour>
    <contour>
      <point x="223.725" y="135.0" type="line"/>
      <point x="223.725" y="57.7319"/>
      <point x="286.4569" y="-5.0"/>
      <point x="363.725" y="-5.0" type="curve"/>
      <point x="363.725" y="135.0" type="line"/>
    </contour>
    <contour>
      <point x="223.725" y="135.0" type="line"/>
      <point x="363.725" y="135.0" type="line"/>
      <point x="363.725" y="200.0" type="line"/>
      <point x="223.725" y="200.0" type="line"/>
    </contour>
    <contour>
      <point x="223.725" y="200" type="line"/>
      <point x="363.725" y="200" type="line"/>
      <point x="363.725" y="400" type="line"/>
      <point x="223.725" y="400" type="line"/>
    </contour>
    <contour>
      <point x="363.725" y="462.5" type="line"/>
      <point x="363.725" y="539.7681"/>
      <point x="300.9931" y="602.5"/>
      <point x="223.725" y="602.5" type="curve"/>
      <point x="223.725" y="462.5" type="line"/>
    </contour>
    <contour>
      <point x="223.725" y="400" type="line"/>
      <point x="363.725" y="400" type="line"/>
      <point x="363.725" y="462.5" type="line"/>
      <point x="223.725" y="462.5" type="line"/>
    </contour>
    <contour>
      <point x="184.81875" y="711.6666666666666" type="curve" smooth="yes"/>
      <point x="184.81875" y="753.0602966666667"/>
      <point x="151.21238" y="786.6666666666666"/>
      <point x="109.81875" y="786.6666666666666" type="curve" smooth="yes"/>
      <point x="68.42511999999999" y="786.6666666666666"/>
      <point x="34.818749999999994" y="753.0602966666667"/>
      <point x="34.818749999999994" y="711.6666666666666" type="curve" smooth="yes"/>
      <point x="34.818749999999994" y="670.2730366666666"/>
      <point x="68.42511999999999" y="636.6666666666666"/>
      <point x="109.81875" y="636.6666666666666" type="curve" smooth="yes"/>
      <point x="151.21238" y="636.6666666666666"/>
      <point x="184.81875" y="670.2730366666666"/>
    </contour>
    <contour>
      <point x="367.31875" y="711.6666666666666" type="curve" smooth="yes"/>
      <point x="367.31875" y="753.0602966666667"/>
      <point x="333.71237999999994" y="786.6666666666666"/>
      <point x="292.31875" y="786.6666666666666" type="curve" smooth="yes"/>
      <point x="250.92512" y="786.6666666666666"/>
      <point x="217.31875" y="753.0602966666667"/>
      <point x="217.31875" y="711.6666666666666" type="curve" smooth="yes"/>
      <point x="217.31875" y="670.2730366666666"/>
      <point x="250.92512" y="636.6666666666666"/>
      <point x="292.31875" y="636.6666666666666" type="curve" smooth="yes"/>
      <point x="333.71237999999994" y="636.6666666666666"/>
      <point x="367.31875" y="670.2730366666666"/>
    </contour>
  </outline>
</glyph>
<glyph name="e_with_grave" format="2">
  <advance width="404.95"/>
  <unicode hex="00E8"/>
  <outline>
    <contour>
      <point x="41.225" y="135.0" type="line"/>
      <point x="41.225" y="57.7319"/>
      <point x="103.9569" y="-5.0"/>
      <point x="181.225" y="-5.0" type="curve"/>
      <point x="181.225" y="135.0" type="line"/>
    </contour>
    <contour>
      <point x="41.225" y="135.0" type="line"/>
      <point x="181.225" y="135.0" type="line"/>
      <point x="181.225" y="195.0" type="line"/>
      <point x="41.225" y="195.0" type="line"/>
    </contour>
    <contour>
      <point x="41.225" y="195.0" type="line"/>
      <point x="181.225" y="195.0" type="line"/>
      <point x="181.225" y="405.0" type="line"/>
      <point x="41.225" y="405.0" type="line"/>
    </contour>
    <contour>
      <point x="181.225" y="605.0" type="line"/>
      <point x="103.9569" y="605.0"/>
      <point x="41.225" y="542.2681"/>
      <point x="41.225" y="465.0" type="curve"/>
      <point x="181.225" y="465.0" type="line"/>
    </contour>
    <contour>
      <point x="41.225" y="405.0" type="line"/>
      <point x="181.225" y="405.0" type="line"/>
      <point x="181.225" y="465.0" type="line"/>
      <point x="41.225" y="465.0" type="line"/>
    </contour>
    <contour>
      <point x="223.725" y="195.0" type="line"/>
      <point x="363.725" y="195.0" type="line"/>
      <point x="363.725" y="405.0" type="line"/>
      <point x="223.725" y="405.0" type="line"/>
    </contour>
    <contour>
      <point x="363.725" y="465.0" type="line"/>
      <point x="363.725" y="542.2681"/>
      <point x="300.9931" y="605.0"/>
      <point x="223.725" y="605.0" type="curve"/>
      <point x="223.725" y="465.0" type="line"/>
    </contour>
    <contour>
      <point x="223.725" y="405.0" type="line"/>
      <point x="363.725" y="405.0" type="line"/>
      <point x="363.725" y="465.0" type="line"/>
      <point x="223.725" y="465.0" type="line"/>
    </contour>
    <contour>
      <point x="71.225" y="781.6666666666666" type="line"/>
      <point x="71.225" y="704.3985666666666"/>
      <point x="133.9569" y="641.6666666666666"/>
      <point x="211.225" y="641.6666666666666" type="curve"/>
      <point x="211.225" y="781.6666666666666" type="line"/>
    </contour>
  </outline>
</glyph>
<glyph name="i_with_acute" format="2">
  <advance width="222.45"/>
  <unicode hex="00ED"/>
  <outline>
    <contour>
      <point x="41.225" y="0" type="line"/>
      <point x="181.225" y="0" type="line"/>
      <point x="181.225" y="200" type="line"/>
      <point x="41.225" y="200" type="line"/>
    </contour>
    <contour>
      <point x="41.225" y="200" type="line"/>
      <point x="181.225" y="200" type="line"/>
      <point x="181.225" y="400" type="line"/>
      <point x="41.225" y="400" type="line"/>
    </contour>
    <contour>
      <point x="41.225" y="400" type="line"/>
      <point x="181.225" y="400" type="line"/>
      <point x="181.225" y="600" type="line"/>
      <point x="41.225" y="600" type="line"/>
    </contour>
    <contour>
      <point x="102.475" y="641.6666666666666" type="line"/>
      <point x="179.7431" y="641.6666666666666"/>
      <point x="242.475" y="704.3985666666666"/>
      <point x="242.475" y="781.6666666666666" type="curve"/>
      <point x="102.475" y="781.6666666666666" type="line"/>
    </contour>
  </outline>
</glyph>
<glyph name="i_with_diaeresis" format="2">
  <advance width="222.45"/>
  <unicode hex="00EF"/>
  <outline>
    <contour>
      <point x="41.225" y="0" type="line"/>
      <point x="181.225" y="0" type="line"/>
      <point x="181.225" y="200" type="line"/>
      <point x="41.225" y="200" type="line"/>
    </contour>
    <contour>
      <point x="41.225" y="200" type="line"/>
      <point x="181.225" y="200" type="line"/>
      <point x="181.225" y="400" type="line"/>
      <point x="41.225" y="400" type="line"/>
    </contour>
    <contour>
      <point x="41.225" y="400" type="line"/>
      <point x="181.225" y="400" type="line"/>
      <point x="181.225" y="600" type="line"/>
      <point x="41.225" y="600" type="line"/>
    </contour>
    <contour>
      <point x="94.975" y="711.6666666666666" type="curve" smooth="yes"/>
      <point x="94.975" y="753.0602966666667"/>
      <point x="61.368629999999996" y="786.6666666666666"/>
      <point x="19.974999999999994" y="786.6666666666666" type="curve" smooth="yes"/>
      <point x="-21.418630000000007" y="786.6666666666666"/>
      <point x="-55.025000000000006" y="753.0602966666667"/>
      <point x="-55.025000000000006" y="711.6666666666666" type="curve" smooth="yes"/>
      <point x="-55.025000000000006" y="670.2730366666666"/>
      <point x="-21.418630000000007" y="636.6666666666666"/>
      <point x="19.974999999999994" y="636.6666666666666" type="curve" smooth="yes"/>
      <point x="61.368629999999996" y="636.6666666666666"/>
      <point x="94.975" y="670.2730366666666"/>
    </contour>
    <contour>
      <point x="277.475" y="711.6666666666666" type="curve" smooth="yes"/>
      <point x="277.475" y="753.0602966666667"/>
      <point x="243.86862999999997" y="786.6666666666666"/>
      <point x="202.475" y="786.6666666666666" type="curve" smooth="yes"/>
      <point x="161.08137" y="786.6666666666666"/>
      <point x="127.475" y="753.0602966666667"/>
      <point x="127.475" y="711.6666666666666" type="curve" smooth="yes"/>
      <point x="127.475" y="670.2730366666666"/>
      <point x="161.08137" y="636.6666666666666"/>
      <point x="202.475" y="636.6666666666666" type="curve" smooth="yes"/>
      <point x="243.86862999999997" y="636.6666666666666"/>
      <point x="277.475" y="670.2730366666666"/>
    </contour>
  </outline>
</glyph>
<glyph name="eth" format="2">
  <advance width="404.95"/>
  <unicode hex="00F0"/>
  <outline>
    <contour>
      <point x="41.225" y="135.0" type="line"/>
      <point x="41.225" y="57.7319"/>
      <point x="103.9569" y="-5.0"/>
      <point x="181.225" y="-5.0" type="curve"/>
      <point x="181.225" y="135.0" type="line"/>
    </contour>
    <contour>
      <point x="41.225" y="135.0" type="line"/>
      <point x="181.225" y="135.0" type="line"/>
      <point x="181.225" y="195.0" type="line"/>
      <point x="41.225" y="195.0" type="line"/>
    </contour>
    <contour>
      <point x="41.225" y="195.0" type="line"/>
      <point x="181.225" y="195.0" type="line"/>
      <point x="181.225" y="400.0" type="line"/>
      <point x="41.225" y="400.0" type="line"/>
    </contour>
    <contour>
      <point x="181.225" y="600.0" type="line"/>
      <point x="103.9569" y="600.0"/>
      <point x="41.225" y="537.2681"/>
      <point x="41.225" y="460.0" type="curve"/>
      <point x="181.225" y="460.0" type="line"/>
    </contour>
    <contour>
      <point x="41.225" y="400" type="line"/>
      <point x="181.225" y="400" type="line"/>
      <point x="181.225" y="460.0" type="line"/>
      <point x="41.225" y="460.0" type="line"/>
    </contour>
    <contour>
      <point x="223.725" y="-5.0" type="line"/>
      <point x="300.9931" y="-5.0"/>
      <point x="363.725" y="57.7319"/>
      <point x="363.725" y="135.0" type="curve"/>
      <point x="223.725" y="135.0" type="line"/>
    </contour>
    <contour>
      <point x="223.725" y="135.0" type="line"/>
      <point x="363.725" y="135.0" type="line"/>
      <point x="363.725" y="195.0" type="line"/>
      <point x="223.725" y="195.0" type="line"/>
    </contour>
    <contour>
      <point x="223.725" y="195.0" type="line"/>
      <point x="363.725" y="195.0" type="line"/>
      <point x="363.725" y="400.0" type="line"/>
      <point x="223.725" y="400.0" type="line"/>
    </contour>
    <contour>
      <point x="223.725" y="400" type="line"/>
      <point x="363.725" y="400" type="line"/>
      <point x="363.725" y="605.0" type="line"/>
      <point x="223.725" y="605.0" type="line"/>
    </contour>
    <contour>
      <point x="363.725" y="665.0" type="line"/>
      <point x="363.725" y="742.2681"/>
      <point x="300.9931" y="805.0"/>
      <point x="223.725" y="805.0" type="curve"/>
      <point x="223.725" y="665.0" type="line"/>
    </contour>
    <contour>
      <point x="223.725" y="605.0" type="line"/>
      <point x="363.725" y="605.0" type="line"/>
      <point x="363.725" y="665.0" type="line"/>
      <point x="223.725" y="665.0" type="line"/>
    </contour>
  </outline>
</glyph>
<glyph name="n_with_smalltilde" format="2">
  <advance width="404.95"/>
  <unicode hex="00F1"/>
  <outline>
    <contour>
      <point x="41.225" y="0" type="line"/>
      <point x="181.225" y="0" type="line"/>
      <point x="181.225" y="200" type="line"/>
      <point x="41.225" y="200" type="line"/>
    </contour>
    <contour>
      <point x="41.225" y="200" type="line"/>
      <point x="181.225" y="200" type="line"/>
      <point x="181.225" y="400" type="line"/>
      <point x="41.225" y="400" type="line"/>
    </contour>
    <contour>
      <point x="41.225" y="400" type="line"/>
      <point x="181.225" y="400" type="line"/>
      <point x="181.225" y="600" type="line"/>
      <point x="41.225" y="600" type="line"/>
    </contour>
    <contour>
      <point x="223.725" y="0" type="line"/>
      <point x="363.725" y="0" type="line"/>
      <point x="363.725" y="200" type="line"/>
      <point x="223.725" y="200" type="line"/>
    </contour>
    <contour>
      <point x="223.725" y="200" type="line"/>
      <point x="363.725" y="200" type="line"/>
      <point x="363.725" y="400" type="line"/>
      <point x="223.725" y="400" type="line"/>
    </contour>
    <contour>
      <point x="363.725" y="460.0" type="line"/>
      <point x="363.725" y="537.2681"/>
      <point x="300.9931" y="600.0"/>
      <point x="223.725" y="600.0" type="curve"/>
      <point x="223.725" y="460.0" type="line"/>
    </contour>
    <contour>
      <point x="223.725" y="400" type="line"/>
      <point x="363.725" y="400" type="line"/>
      <point x="363.725" y="460.0" type="line"/>
      <point x="223.725" y="460.0" type="line"/>
    </contour>
    <contour>
      <point x="202.475" y="781.6666666666666" type="line"/>
      <point x="125.20689999999999" y="781.6666666666666"/>
      <point x="62.474999999999994" y="718.9347666666666"/>
      <point x="62.474999999999994" y="641.6666666666666" type="curve"/>
      <point x="202.475" y="641.6666666666666" type="line"/>
    </contour>
    <contour>
      <point x="202.475" y="641.6666666666666" type="line"/>
      <point x="279.7431" y="641.6666666666666"/>
      <point x="342.475" y="704.3985666666666"/>
      <point x="342.475" y="781.6666666666666" type="curve"/>
      <point x="202.475" y="781.6666666666666" type="line"/>
    </contour>
  </outline>
</glyph>
<glyph name="o_with_diaeresis" format="2">
  <advance width="404.95"/>
  <unicode hex="00F6"/>
  <outline>
    <contour>
      <point x="41.225" y="135.0" type="line"/>
      <point x="41.225" y="57.7319"/>
      <point x="103.9569" y="-5.0"/>
      <point x="181.225" y="-5.0" type="curve"/>
      <point x="181.225" y="135.0" type="line"/>
    </contour>
    <contour>
      <point x="41.225" y="135.0" type="line"/>
      <point x="181.225" y="135.0" type="line"/>
      <point x="181.225" y="195.0" type="line"/>
      <point x="41.225" y="195.0" type="line"/>
    </contour>
    <contour>
      <point x="41.225" y="195.0" type="line"/>
      <point x="181.225" y="195.0" type="line"/>
      <point x="181.225" y="405.0" type="line"/>
      <point x="41.225" y="405.0" type="line"/>
    </contour>
    <contour>
      <point x="181.225" y="605.0" type="line"/>
      <point x="103.9569" y="605.0"/>
      <point x="41.225" y="542.2681"/>
      <point x="41.225" y="465.0" type="curve"/>
      <point x="181.225" y="465.0" type="line"/>
    </contour>
    <contour>
      <point x="41.225" y="405.0" type="line"/>
      <point x="181.225" y="405.0" type="line"/>
      <point x="181.225" y="465.0" type="line"/>
      <point x="41.225" y="465.0" type="line"/>
    </contour>
    <contour>
      <point x="223.725" y="-5.0" type="line"/>
      <point x="300.9931" y="-5.0"/>
      <point x="363.725" y="57.7319"/>
      <point x="363.725" y="135.0" type="curve"/>
      <point x="223.725" y="135.0" type="line"/>
    </contour>
    <contour>
      <point x="223.725" y="135.0" type="line"/>
      <point x="363.725" y="135.0" type="line"/>
      <point x="363.725" y="195.0" type="line"/>
      <point x="223.725" y="195.0" type="line"/>
    </contour>
    <contour>
      <point x="223.725" y="195.0" type="line"/>
      <point x="363.725" y="195.0" type="line"/>
      <point x="363.725" y="405.0" type="line"/>
      <point x="223.725" y="405.0" type="line"/>
    </contour>
    <contour>
      <point x="363.725" y="465.0" type="line"/>
      <point x="363.725" y="542.2681"/>
      <point x="300.9931" y="605.0"/>
      <point x="223.725" y="605.0" type="curve"/>
      <point x="223.725" y="465.0" type="line"/>
    </contour>
    <contour>
      <point x="223.725" y="405.0" type="line"/>
      <point x="363.725" y="405.0" type="line"/>
      <point x="363.725" y="465.0" type="line"/>
      <point x="223.725" y="465.0" type="line"/>
    </contour>
    <contour>
      <point x="186.225" y="711.6666666666666" type="curve" smooth="yes"/>
      <point x="186.225" y="753.0602966666667"/>
      <point x="152.61863" y="786.6666666666666"/>
      <point x="111.225" y="786.6666666666666" type="curve" smooth="yes"/>
      <point x="69.83136999999999" y="786.6666666666666"/>
      <point x="36.224999999999994" y="753.0602966666667"/>
      <point x="36.224999999999994" y="711.6666666666666" type="curve" smooth="yes"/>
      <point x="36.224999999999994" y="670.2730366666666"/>
      <point x="69.83136999999999" y="636.6666666666666"/>
      <point x="111.225" y="636.6666666666666" type="curve" smooth="yes"/>
      <point x="152.61863" y="636.6666666666666"/>
      <point x="186.225" y="670.2730366666666"/>
    </contour>
    <contour>
      <point x="368.725" y="711.6666666666666" type="curve" smooth="yes"/>
      <point x="368.725" y="753.0602966666667"/>
      <point x="335.11862999999994" y="786.6666666666666"/>
      <point x="293.725" y="786.6666666666666" type="curve" smooth="yes"/>
      <point x="252.33137" y="786.6666666666666"/>
      <point x="218.725" y="753.0602966666667"/>
      <point x="218.725" y="711.6666666666666" type="curve" smooth="yes"/>
      <point x="218.725" y="670.2730366666666"/>
      <point x="252.33137" y="636.6666666666666"/>
      <point x="293.725" y="636.6666666666666" type="curve" smooth="yes"/>
      <point x="335.11862999999994" y="636.6666666666666"/>
      <point x="368.725" y="670.2730366666666"/>
    </contour>
  </outline>
</glyph>
<glyph name="divide" format="2">
  <advance width="587.45"/>
  <unicode hex="00F7"/>
  <outline>
    <contour>
      <point x="83.725" y="330.0" type="line"/>
      <point x="223.725" y="330.0" type="line"/>
      <point x="223.725" y="470.0" type="line"/>
      <point x="83.725" y="470.0" type="line"/>
    </contour>
    <contour>
      <point x="368.725" y="180.0" type="curve" smooth="yes"/>
      <point x="368.725" y="221.39363"/>
      <point x="335.11863" y="255.0"/>
      <point x="293.725" y="255.0" type="curve" smooth="yes"/>
      <point x="252.33137" y="255.0"/>
      <point x="218.725" y="221.39363"/>
      <point x="218.725" y="180.0" type="curve" smooth="yes"/>
      <point x="218.725" y="138.60637"/>
      <point x="252.33137" y="105.0"/>
      <point x="293.725" y="105.0" type="curve" smooth="yes"/>
      <point x="335.11863" y="105.0"/>
      <point x="368.725" y="138.60637"/>
    </contour>
    <contour>
      <point x="223.725" y="330.0" type="line"/>
      <point x="363.725" y="330.0" type="line"/>
      <point x="363.725" y="470.0" type="line"/>
      <point x="223.725" y="470.0" type="line"/>
    </contour>
    <contour>
      <point x="368.725" y="620.0" type="curve" smooth="yes"/>
      <point x="368.725" y="661.39363"/>
      <point x="335.11863" y="695.0"/>
      <point x="293.725" y="695.0" type="curve" smooth="yes"/>
      <point x="252.33137" y="695.0"/>
      <point x="218.725" y="661.39363"/>
      <point x="218.725" y="620.0" type="curve" smooth="yes"/>
      <point x="218.725" y="578.60637"/>
      <point x="252.33137" y="545.0"/>
      <point x="293.725" y="545.0" type="curve" smooth="yes"/>
      <point x="335.11863" y="545.0"/>
      <point x="368.725" y="578.60637"/>
    </contour>
    <contour>
      <point x="363.725" y="330.0" type="line"/>
      <point x="503.725" y="330.0" type="line"/>
      <point x="503.725" y="470.0" type="line"/>
      <point x="363.725" y="470.0" type="line"/>
    </contour>
  </outline>
</glyph>
